<svg width="560" height="315" fill="none" xmlns="http://www.w3.org/2000/svg"><g filter="url('#filter0_f_590_1292')"><path d="M542.285 27.143c0 10.578-8.564 19.142-19.143 19.142-10.578 0-19.142-8.564-19.142-19.142C504 16.563 512.564 8 523.142 8c10.076 0 19.143 8.564 19.143 19.143Z" fill="#0057FF"/></g><g filter="url('#filter1_f_590_1292')"><path d="M485.285 275.143c0 10.578-8.564 19.142-19.143 19.142-10.578 0-19.142-8.564-19.142-19.142 0-10.579 8.564-19.143 19.142-19.143 10.076 0 19.143 8.564 19.143 19.143Z" fill="#0057FF"/></g><g filter="url('#filter2_f_590_1292')"><path d="M60 226.5c0 10.776-8.5 19.5-19 19.5s-19-8.724-19-19.5S30.5 207 41 207c10 0 19 8.724 19 19.5Z" fill="#0057FF"/></g><path d="M556.567 66.535a2.1 2.1 0 0 1-2.126 2.127 2.1 2.1 0 0 1-2.127-2.127 2.1 2.1 0 0 1 2.127-2.127 2.1 2.1 0 0 1 2.126 2.127ZM528.924 27.85c0 3.19-2.657 5.849-5.847 5.849-3.19 0-5.848-2.66-5.848-5.85 0-3.19 2.658-5.849 5.848-5.849s5.847 2.659 5.847 5.85Z" fill="#fff" stroke="#fff" stroke-width="6"/><g filter="url('#filter3_f_590_1292')"><path d="M433 138c0 10.5-8.5 19-19 19s-19-8.5-19-19 8.5-19 19-19c10 0 19 8.5 19 19Z" fill="#0057FF"/></g><path d="M436.295 76.107c0 3.19-2.658 5.85-5.848 5.85-3.189 0-5.847-2.66-5.847-5.85 0-3.19 2.658-5.85 5.847-5.85 3.323 0 5.848 2.526 5.848 5.85ZM197.477 216.093c0 3.19-2.658 5.849-5.847 5.849-3.19 0-5.848-2.659-5.848-5.849 0-3.191 2.658-5.85 5.848-5.85 3.189 0 5.847 2.659 5.847 5.85ZM418.088 138.056c0 2.393-1.994 4.388-4.386 4.388-2.392 0-4.386-1.995-4.386-4.388 0-2.392 1.994-4.387 4.386-4.387 2.525 0 4.386 1.995 4.386 4.387ZM196.946 124.896a2.666 2.666 0 0 1-2.658 2.658 2.666 2.666 0 0 1-2.658-2.658 2.666 2.666 0 0 1 2.658-2.659 2.666 2.666 0 0 1 2.658 2.659ZM470.582 276.58c0 1.994-1.595 3.589-3.721 3.589-1.994 0-3.721-1.595-3.721-3.589s1.594-3.723 3.721-3.723c2.126.133 3.721 1.729 3.721 3.723ZM45.708 226.328a3.858 3.858 0 0 1-3.854 3.856A3.858 3.858 0 0 1 38 226.328a3.857 3.857 0 0 1 3.854-3.855 3.857 3.857 0 0 1 3.854 3.855Z" fill="#fff" stroke="#fff" stroke-width="6"/><path d="M467.924 277.378 191.63 216.624 39.595 226.993l154.56-102.762.133.133 219.015 13.028 16.745-61.817.133-.133 93.029-48.257 31.762 38.95-.93.799-31.098-38.287-91.965 47.858-16.745 62.216-.532-.133-219.281-13.028-150.175 99.971 147.384-10.103h.133l274.168 60.354-53.159-137.593 1.063-.398 54.089 139.587Z" fill="#fff" stroke="#fff" stroke-width="2"/><defs><filter id="filter0_f_590_1292" x="496" y="0" width="54.285" height="54.285" filterUnits="userSpaceOnUse" color-interpolation-filters="sRGB"><feFlood flood-opacity="0" result="BackgroundImageFix"/><feBlend in="SourceGraphic" in2="BackgroundImageFix" result="shape"/><feGaussianBlur stdDeviation="4" result="effect1_foregroundBlur_590_1292"/></filter><filter id="filter1_f_590_1292" x="427" y="236" width="78.285" height="78.285" filterUnits="userSpaceOnUse" color-interpolation-filters="sRGB"><feFlood flood-opacity="0" result="BackgroundImageFix"/><feBlend in="SourceGraphic" in2="BackgroundImageFix" result="shape"/><feGaussianBlur stdDeviation="10" result="effect1_foregroundBlur_590_1292"/></filter><filter id="filter2_f_590_1292" x="0" y="185" width="82" height="83" filterUnits="userSpaceOnUse" color-interpolation-filters="sRGB"><feFlood flood-opacity="0" result="BackgroundImageFix"/><feBlend in="SourceGraphic" in2="BackgroundImageFix" result="shape"/><feGaussianBlur stdDeviation="11" result="effect1_foregroundBlur_590_1292"/></filter><filter id="filter3_f_590_1292" x="351" y="75" width="126" height="126" filterUnits="userSpaceOnUse" color-interpolation-filters="sRGB"><feFlood flood-opacity="0" result="BackgroundImageFix"/><feBlend in="SourceGraphic" in2="BackgroundImageFix" result="shape"/><feGaussianBlur stdDeviation="22" result="effect1_foregroundBlur_590_1292"/></filter></defs></svg>