<svg width="283" height="487" fill="none" xmlns="http://www.w3.org/2000/svg"><g filter="url('#filter0_f_590_1308')"><path d="M274.553 27.62c0 10.578-8.564 19.141-19.143 19.141s-19.142-8.563-19.142-19.142c0-10.578 8.563-19.142 19.142-19.142 10.075 0 19.143 8.564 19.143 19.142Z" fill="#1C53BC"/></g><g filter="url('#filter1_f_590_1308')"><path d="M157.553 221.619c0 10.579-8.564 19.143-19.143 19.143s-19.142-8.564-19.142-19.143c0-10.578 8.563-19.142 19.142-19.142 10.075 0 19.143 8.564 19.143 19.142Z" fill="#1C53BC"/></g><g filter="url('#filter2_f_590_1308')"><path d="M180.553 459.619c0 10.579-8.564 19.143-19.143 19.143s-19.142-8.564-19.142-19.143c0-10.578 8.563-19.142 19.142-19.142 10.075 0 19.143 8.564 19.143 19.142Z" fill="#0057FF"/></g><path d="M257.207 31.304c-.797 1.33-2.525 1.595-3.854.798-1.329-.798-1.594-2.526-.797-3.856s2.525-1.595 3.854-.797c1.329.93 1.728 2.659.797 3.855ZM189.961 170.226c-1.329 2.127-4.12 2.659-6.246 1.329-2.127-1.329-2.658-4.121-1.329-6.248s4.12-2.659 6.246-1.329c2.126 1.329 2.658 4.121 1.329 6.248ZM143.447 224.2c-1.595 2.658-5.05 3.323-7.708 1.595-2.525-1.595-3.323-5.052-1.595-7.711 1.595-2.525 5.05-3.323 7.708-1.595 2.525 1.728 3.323 5.185 1.595 7.711ZM12.542 296.12a5.315 5.315 0 0 1-7.176 1.596 5.319 5.319 0 0 1-1.595-7.179 5.315 5.315 0 0 1 7.176-1.596c2.392 1.596 3.19 4.786 1.595 7.179ZM165.108 461.497c-1.329 1.994-3.987 2.659-6.113 1.33-1.993-1.33-2.658-3.989-1.329-6.116 1.329-1.994 3.987-2.658 6.113-1.329 1.994 1.329 2.525 4.121 1.329 6.115Z" fill="#fff" stroke="#fff" stroke-width="6"/><path d="m160.989 459.104-22.46-237.43-130.107 71.92-.399-.532 131.038-72.319v.399l22.592 237.962h-.664Z" fill="#fff" stroke="#fff" stroke-width="2"/><path d="m139.061 221.408-.532-.399 47.445-53.442 68.708-137.858.532.265-68.708 137.859-.133.133-47.312 53.442Z" fill="#fff" stroke="#fff" stroke-width="2"/><defs><filter id="filter0_f_590_1308" x="228.268" y=".477" width="54.285" height="54.285" filterUnits="userSpaceOnUse" color-interpolation-filters="sRGB"><feFlood flood-opacity="0" result="BackgroundImageFix"/><feBlend in="SourceGraphic" in2="BackgroundImageFix" result="shape"/><feGaussianBlur stdDeviation="4" result="effect1_foregroundBlur_590_1308"/></filter><filter id="filter1_f_590_1308" x="111.268" y="194.477" width="54.285" height="54.285" filterUnits="userSpaceOnUse" color-interpolation-filters="sRGB"><feFlood flood-opacity="0" result="BackgroundImageFix"/><feBlend in="SourceGraphic" in2="BackgroundImageFix" result="shape"/><feGaussianBlur stdDeviation="4" result="effect1_foregroundBlur_590_1308"/></filter><filter id="filter2_f_590_1308" x="134.268" y="432.477" width="54.285" height="54.285" filterUnits="userSpaceOnUse" color-interpolation-filters="sRGB"><feFlood flood-opacity="0" result="BackgroundImageFix"/><feBlend in="SourceGraphic" in2="BackgroundImageFix" result="shape"/><feGaussianBlur stdDeviation="4" result="effect1_foregroundBlur_590_1308"/></filter></defs></svg>