<svg width="547" height="312" fill="none" xmlns="http://www.w3.org/2000/svg"><g filter="url('#filter0_f_590_1265')"><path d="M297.285 160.143c0 10.578-8.564 19.142-19.143 19.142-10.578 0-19.142-8.564-19.142-19.142 0-10.579 8.564-19.143 19.142-19.143 10.076 0 19.143 8.564 19.143 19.143Z" fill="#0057FF"/></g><g filter="url('#filter1_f_590_1265')"><path d="M46.285 284.143c0 10.578-8.564 19.142-19.142 19.142-10.58 0-19.143-8.564-19.143-19.142C8 273.564 16.564 265 27.142 265c10.076 0 19.143 8.564 19.143 19.143Z" fill="#0057FF"/></g><g filter="url('#filter2_f_590_1265')"><path d="M132.285 103.143c0 10.578-8.564 19.142-19.143 19.142-10.578 0-19.142-8.564-19.142-19.142C94 92.563 102.564 84 113.142 84c10.076 0 19.143 8.564 19.143 19.143Z" fill="#0057FF"/></g><g filter="url('#filter3_f_590_1265')"><path d="M240 36c0 7.737-6.487 14-14.5 14S211 43.737 211 36s6.487-14 14.5-14c7.632 0 14.5 6.263 14.5 14Z" fill="#0057FF"/></g><g filter="url('#filter4_f_590_1265')"><path d="M342 62.5c0 10.224-8.947 18.5-20 18.5s-20-8.276-20-18.5S310.947 44 322 44c10.526 0 20 8.276 20 18.5Z" fill="#0057FF"/></g><g filter="url('#filter5_f_590_1265')"><path d="M538.285 238.143c0 10.578-8.564 19.142-19.143 19.142-10.578 0-19.142-8.564-19.142-19.142 0-10.579 8.564-19.143 19.142-19.143 10.076 0 19.143 8.564 19.143 19.143Z" fill="#0057FF"/></g><path d="M523 238.067c0 2.13-1.73 3.862-3.859 3.862a3.864 3.864 0 0 1-3.86-3.862 3.863 3.863 0 0 1 3.86-3.862 3.863 3.863 0 0 1 3.859 3.862ZM33.647 284.674c0 2.929-2.396 5.326-5.324 5.326S23 287.603 23 284.674c0-2.93 2.395-5.327 5.323-5.327 2.795 0 5.324 2.397 5.324 5.327ZM98.992 213.831c0 2.93-2.396 5.327-5.324 5.327s-5.323-2.397-5.323-5.327c0-2.929 2.395-5.326 5.323-5.326 2.928 0 5.323 2.397 5.323 5.326ZM118.688 182.538c0 2.93-2.396 5.327-5.324 5.327-2.927 0-5.323-2.397-5.323-5.327 0-2.929 2.396-5.326 5.323-5.326 2.928-.133 5.324 2.264 5.324 5.326ZM118.688 103.574c0 2.929-2.396 5.326-5.324 5.326-2.927 0-5.323-2.397-5.323-5.326 0-2.93 2.396-5.327 5.323-5.327 2.928 0 5.324 2.397 5.324 5.327Z" fill="#fff"/><path d="M252 42.003C252 45.3 249.3 48 246 48s-6-2.699-6-5.997c0-3.299 2.7-5.997 6-5.997 3.3-.15 6 2.698 6 5.997Z" fill="#fff" stroke="#fff" stroke-width="6"/><path d="M231.544 36.327c0 2.929-2.395 5.326-5.323 5.326-2.928 0-5.324-2.397-5.324-5.326 0-2.93 2.396-5.327 5.324-5.327s5.323 2.397 5.323 5.327Z" fill="#fff" stroke="#FFFEFE" stroke-width="6"/><path d="M267.344 62.426c0 2.93-2.395 5.327-5.323 5.327-2.928 0-5.324-2.397-5.324-5.327s2.396-5.326 5.324-5.326 5.323 2.396 5.323 5.326ZM283.58 160.567c0 2.929-2.395 5.326-5.323 5.326-2.928 0-5.323-2.397-5.323-5.326 0-2.93 2.395-5.327 5.323-5.327 2.795 0 5.323 2.397 5.323 5.327ZM283.58 243.393c0 2.93-2.395 5.327-5.323 5.327-2.928 0-5.323-2.397-5.323-5.327 0-2.929 2.395-5.326 5.323-5.326 2.795 0 5.323 2.397 5.323 5.326ZM66.52 72.28c0 .932-.666 1.598-1.598 1.598-.931 0-1.597-.799-1.597-1.598 0-.932.666-1.598 1.597-1.598.932-.133 1.597.666 1.597 1.598Z" fill="#fff"/><path d="M321.11 65.489a3.062 3.062 0 0 0 0-6.126 3.062 3.062 0 0 0-3.061 3.063 3.062 3.062 0 0 0 3.061 3.063Z" fill="#fff" stroke="#fff" stroke-width="6"/><path d="M396.303 155.24c0 5.46-4.392 9.721-9.849 9.721-5.456 0-9.715-4.394-9.715-9.721 0-5.46 4.392-9.854 9.715-9.854 5.324 0 9.849 4.394 9.849 9.854ZM523 238.067c0 2.13-1.73 3.862-3.859 3.862a3.864 3.864 0 0 1-3.86-3.862 3.863 3.863 0 0 1 3.86-3.862 3.863 3.863 0 0 1 3.859 3.862Z" fill="#fff"/><path d="M523 238.067c0 2.13-1.73 3.862-3.859 3.862a3.864 3.864 0 0 1-3.86-3.862 3.863 3.863 0 0 1 3.86-3.862 3.863 3.863 0 0 1 3.859 3.862Z" fill="#fff"/><path d="m28.59 285.073-.799-.666 65.478-70.842 19.563-31.16v-78.566L63.724 72.014 226.22 35.927l19.962 5.46 16.104 20.64h59.089l.133.133 65.345 92.68 132.553 82.827-.533.799-132.685-82.96-65.345-92.547h-59.09l-16.103-20.774-19.43-5.326L66.252 72.413l47.512 30.894v79.364l-19.83 31.56-65.344 70.842Z" fill="#fff" stroke="#fff" stroke-width="2"/><path d="M278.656 243.393h-1.064v-82.96l43.119-98.14.932.4-42.987 98.007v82.693Z" fill="#fff" stroke="#fff" stroke-width="2"/><defs><filter id="filter0_f_590_1265" x="251" y="133" width="54.285" height="54.285" filterUnits="userSpaceOnUse" color-interpolation-filters="sRGB"><feFlood flood-opacity="0" result="BackgroundImageFix"/><feBlend in="SourceGraphic" in2="BackgroundImageFix" result="shape"/><feGaussianBlur stdDeviation="4" result="effect1_foregroundBlur_590_1265"/></filter><filter id="filter1_f_590_1265" x="0" y="257" width="54.285" height="54.285" filterUnits="userSpaceOnUse" color-interpolation-filters="sRGB"><feFlood flood-opacity="0" result="BackgroundImageFix"/><feBlend in="SourceGraphic" in2="BackgroundImageFix" result="shape"/><feGaussianBlur stdDeviation="4" result="effect1_foregroundBlur_590_1265"/></filter><filter id="filter2_f_590_1265" x="72" y="62" width="82.285" height="82.285" filterUnits="userSpaceOnUse" color-interpolation-filters="sRGB"><feFlood flood-opacity="0" result="BackgroundImageFix"/><feBlend in="SourceGraphic" in2="BackgroundImageFix" result="shape"/><feGaussianBlur stdDeviation="11" result="effect1_foregroundBlur_590_1265"/></filter><filter id="filter3_f_590_1265" x="189" y="0" width="73" height="72" filterUnits="userSpaceOnUse" color-interpolation-filters="sRGB"><feFlood flood-opacity="0" result="BackgroundImageFix"/><feBlend in="SourceGraphic" in2="BackgroundImageFix" result="shape"/><feGaussianBlur stdDeviation="11" result="effect1_foregroundBlur_590_1265"/></filter><filter id="filter4_f_590_1265" x="280" y="22" width="84" height="81" filterUnits="userSpaceOnUse" color-interpolation-filters="sRGB"><feFlood flood-opacity="0" result="BackgroundImageFix"/><feBlend in="SourceGraphic" in2="BackgroundImageFix" result="shape"/><feGaussianBlur stdDeviation="11" result="effect1_foregroundBlur_590_1265"/></filter><filter id="filter5_f_590_1265" x="492" y="211" width="54.285" height="54.285" filterUnits="userSpaceOnUse" color-interpolation-filters="sRGB"><feFlood flood-opacity="0" result="BackgroundImageFix"/><feBlend in="SourceGraphic" in2="BackgroundImageFix" result="shape"/><feGaussianBlur stdDeviation="4" result="effect1_foregroundBlur_590_1265"/></filter></defs></svg>