<svg width="298" height="298" fill="none" xmlns="http://www.w3.org/2000/svg"><path opacity=".54" d="M149 298c82.29 0 149-66.71 149-149S231.29 0 149 0 0 66.71 0 149s66.71 149 149 149Z" fill="url('#paint0_radial_664_559')"/><path d="M148.998 242.553c51.958 0 94.078-42.12 94.078-94.078 0-51.958-42.12-94.077-94.078-94.077-51.957 0-94.077 42.12-94.077 94.077 0 51.958 42.12 94.078 94.077 94.078Z" fill="#00B0CB"/><path d="M148.998 242.289c51.769 0 94.077-42.046 94.077-94.077 0-4.993-.525-9.986-1.314-14.979-3.153-.526-6.044-1.577-8.672-2.891-6.044-3.153-10.774-8.146-15.504-13.139-4.73-4.993-9.46-9.986-15.767-12.614-6.044-2.891-13.928-2.891-19.184 1.577-5.781 4.73-6.307 13.665-3.942 20.76 1.052 2.891 2.366 6.57.263 8.935-2.102 2.365-5.518 1.576-8.409 2.102-4.993.788-8.935 4.73-11.563 8.935-4.467 6.832-7.358 15.504-5.255 23.388 1.314 4.73 4.467 9.723 2.365 14.453-2.102 4.993-8.147 6.307-12.877 8.672-6.569 3.416-11.562 11.3-9.197 18.395 1.051 2.891 2.89 5.256 3.679 7.884 1.839 7.095-3.942 13.402-7.095 20.234 6.044 1.84 12.088 2.365 18.395 2.365Z" fill="#0B93C1"/><path d="M160.824 100.122c-.263-3.416.525-6.57 0-9.986-.526-4.73-3.416-8.671-6.307-12.35-2.891-3.68-6.307-7.096-8.146-11.3-1.052-2.628-1.314-5.782-.789-8.672.263-1.051.789-2.365.789-3.416-50.718 1.313-91.45 42.834-91.45 93.814 0 15.505 3.942 30.221 10.511 43.36 3.942-.788 7.621-2.891 11.037-5.256 3.942-2.365 8.147-4.993 12.089-7.358 6.044-3.679 12.876-8.409 14.19-15.241 1.577-8.672-6.044-17.87-2.628-26.279 1.314-3.153 3.942-5.519 6.833-7.095 4.467-2.891 9.986-4.993 14.978-3.679 7.358 1.577 12.089 8.934 18.658 12.614a20.606 20.606 0 0 0 14.191 2.89c2.628-.263 5.518-1.051 7.621-2.628 3.941-2.89 6.044-7.62 6.569-12.351.263-4.73-1.051-9.46-3.153-13.927-1.577-4.205-4.468-8.41-4.993-13.14Z" fill="#00C3DF"/><path d="M242.552 139.54c0 .788-10.511.263-11.562 0-13.665-2.102-20.235-14.979-32.586-18.658-2.89-.788-6.307-1.051-8.672.788-9.197 6.307 10.249 19.184-2.89 23.126-3.417 1.051-6.833 0-9.986.788-2.891.526-6.044 2.628-8.409 4.73-4.731 3.942-8.147 10.249-7.884 16.556 0 13.665 11.3 27.33 24.439 30.22 2.891.526 6.044.789 8.935 2.103 6.307 2.89 7.095 10.774 4.205 16.292-3.154 6.044-11.3 5.256-13.928 11.826-.789 1.839-1.314 5.518 0 7.095 1.577 1.839 4.993.788 7.095-.263 4.467-2.102 8.672-4.467 12.877-7.358 7.883-5.518 15.241-12.351 21.023-19.972 11.562-14.978 17.869-33.636 18.92-52.557-.263-4.993.263-9.723-1.577-14.716Z" fill="#1EB400"/><path d="M161.351 107.48c-1.576-6.307-1.051-12.876-3.679-18.92-2.628-6.044-8.409-9.986-12.088-15.242-3.679-5.256-5.518-12.088-4.993-18.395-47.827 4.204-85.406 44.41-85.406 93.552 0 9.986 1.577 19.709 4.468 28.644 3.153-1.314 5.781-3.154 7.62-5.519 3.68-4.73 3.943-11.3 4.468-17.344.788-8.935 2.89-17.869 7.884-25.227 4.73-7.358 12.613-13.402 21.548-14.191 4.468-.525 8.935.263 13.14 1.314 4.73 1.051 9.197 2.628 13.139 4.993 4.467 2.628 8.146 6.57 11.825 9.986 3.942 3.416 8.147 6.57 13.402 7.884 4.993 1.051 11.037-.526 13.928-4.731 2.628-3.941 2.102-9.197.526-13.664-2.103-4.468-4.468-8.672-5.782-13.14Z" fill="#0B93C1"/><path d="M164.241 128.503c1.052-5.518-1.313-11.562-4.204-16.555-2.102-3.679-4.205-7.358-5.519-11.3-1.313-3.942 0-8.147-1.313-12.088-1.314-4.73-5.519-8.147-7.884-12.351-3.154-4.993-5.781-10.25-7.358-15.768-.263-1.314-.526-3.153-.788-5.255-5.519-1.314-14.191 1.05-20.761 3.416C75.42 73.055 48.353 114.05 55.185 155.57c2.102-3.153 3.68-6.307 4.993-9.723 1.314-3.942 2.365-8.146 3.68-12.088 2.364-6.57 3.94-13.665 9.46-18.395 3.153-2.891 6.306-2.891 10.51-4.205 4.468-1.314 8.673-3.416 12.615-6.044 2.365-1.577 4.467-3.416 7.095-4.204 6.307-2.365 9.197 2.102 12.351 6.569 5.781 7.621 13.139 10.774 21.811 14.191 3.679 1.576 7.358 3.416 9.986 6.307 2.365 2.89 3.942 7.62 8.409 8.146 3.679.526 6.833-2.891 7.884-6.307 0-.525.262-.788.262-1.314Z" fill="#1EB400"/><path d="M162.138 194.725h-.789c-5.255.526-15.241 6.307-16.818 11.563-1.051 3.153-.788 6.307-.525 9.46.262 3.153.525 7.621 4.204 8.672 1.84.526 3.942.263 5.781 0 4.731-.788 9.724.263 14.454 0 2.365-.263 4.73-.526 6.569-1.577 2.628-1.839 4.468-4.467 7.358-6.044 2.628-1.314 5.519-1.577 4.993-5.518-.525-3.154-2.89-3.154-5.255-3.942-5.519-2.102-9.198-6.307-14.191-9.198-1.051-1.576-3.679-3.416-5.781-3.416Z" fill="#00BE1B"/><path d="M147.686 214.434c.788 2.891 3.416 5.519 6.569 5.256 1.84 0 3.679-1.051 5.519-1.051 1.314 0 2.365.525 3.416.788 1.314.263 2.628 0 3.416-.788.789-1.051.526-2.628 0-3.679-.788-2.102-.788-3.154-.263-4.993.526-1.84 1.314-2.628.263-4.467-1.314-2.103-5.781-3.679-8.146-3.942-6.044-1.314-12.088 6.832-10.774 12.876ZM173.701 215.748c.788 0 1.839-.526 2.628-.789 1.314-.262 2.89-.262 3.679-1.313.525-1.052-.263-2.628-1.314-3.154-1.84-1.314-5.519-4.73-7.096-2.628-1.576 2.103-1.314 8.147 2.103 7.884ZM172.912 159.249c-6.306 9.986 11.563 6.57 15.768 6.307 5.781-.526 12.876-.788 12.613-8.146-.262-9.198-10.511-8.672-16.818-6.833-4.73 1.314-8.935 4.73-11.563 8.672ZM202.081 142.693c.525.263 1.314.526 2.102.263.526-.263.788-.525.788-1.051.263-.526.526-1.051.526-1.577.525-2.102.263-4.204 0-6.307 0-.525-.263-1.051-.526-1.314-3.153-4.204-12.876 6.045-2.89 9.986Z" fill="#00CE1D"/><path d="M207.076 223.895c6.044-4.731 12.614-11.3 17.344-17.344 11.562-14.979 17.869-33.637 18.92-52.558.263-2.628.526-5.781.263-8.409-3.942-.263-8.935.263-12.876 0-4.731-.263-8.41-2.102-12.351-4.467-1.577-.789-3.154-1.577-4.731-1.577-1.576 0-3.416 1.051-3.941 2.628-.526 1.314 0 2.628.262 3.942 1.84 7.095 1.577 17.869-4.993 22.599-5.255 3.679-10.511 0-16.292 0-2.891 0-6.044 1.051-8.147 3.417-4.204 4.73-.788 9.197 4.205 10.774 4.73 1.577 9.46 2.628 13.928 4.993 3.679 1.839 6.832 4.467 9.197 7.883 1.577 2.103 2.891 4.468 3.154 7.096.262 2.365-.263 4.73-1.052 7.095-.788 4.204-1.839 9.986-2.89 13.928ZM140.329 80.938c-1.84-3.416-3.942-6.57-5.256-10.248-1.84-4.205-2.891-11.3-2.103-16.03-5.255 0-11.299 2.102-16.292 3.942C88.034 68.85 65.96 91.45 57.814 119.83c1.05-.263 3.941-.526 4.992-1.314 1.84-1.314 2.628-3.679 4.205-5.519 3.416-3.942 9.198-4.204 13.665-6.569 3.416-1.84 6.044-4.993 9.46-6.833 6.833-4.204 18.921-6.044 26.279-2.628 3.153 1.314 5.518 3.679 7.621 6.307 1.839 2.365 2.89 6.044 6.044 7.358 5.256 2.365 11.3-1.314 14.453-5.781 3.153-4.73 1.051-12.351-.788-17.344-1.314-2.102-2.365-4.467-3.416-6.57ZM147.948 107.217c-2.102 3.416-9.986 6.833-6.044 9.986 3.942 3.154 13.139 12.614 14.979 10.249 2.102-2.628-2.891-29.958-8.935-20.235Z" fill="#00CE1D"/><path d="M161.087 55.185c0 .526 0 1.051-.263 1.577-.526 4.467-1.051 9.198-.788 13.665 0 2.102.263 4.467 1.314 6.307 1.314 2.89 3.941 4.73 6.832 6.044 7.621 3.416 16.556 2.365 23.914 6.044 3.679 1.84 6.832 4.73 10.511 6.57 6.044 3.153 13.139 3.942 18.658 7.883 6.044 4.205 9.197 11.563 15.242 15.505.788.525 1.314.788 2.102 1.314-10.774-34.163-40.732-60.178-77.522-64.909ZM149 145.847c-1.314-1.051-3.153-.526-4.73.263-1.577.788-2.628 1.839-4.205 2.365-3.679 1.314-7.621-1.314-11.562-1.577-5.782-.525-11.037 3.679-13.928 8.672s-3.942 10.774-5.781 16.293c-4.993 16.03-15.768 29.957-29.958 39.155 10.511 11.825 24.176 21.023 39.418 26.279 1.051-7.096.526-14.716 2.102-21.812 1.051-5.255 3.416-10.248 6.57-14.716 2.102-2.89 4.73-5.518 6.832-8.672 2.103-3.153 3.679-6.832 3.154-10.511-.263-2.628-1.577-4.993-1.84-7.621-.262-3.416 1.051-6.832 2.628-9.723 2.102-3.416 4.73-6.57 7.884-9.198 1.576-1.313 3.153-2.365 3.942-3.941 1.051-1.577 1.051-4.205-.526-5.256Z" fill="#00C3DF"/><path opacity=".13" d="M243.601 154.256c0-1.84.263-3.942.263-5.782v-2.627c-.263-2.103-.525-4.205-1.314-6.307 0-.526 0-1.051-.263-1.577 0-.526-.262-1.314-.262-1.84-.789-5.255-1.84-10.511-3.417-15.504-.525-1.314-.788-2.628-1.313-3.679-.263-.526-.263-.788-.526-1.314-.263-.788-.788-1.839-1.051-2.628-.263-.525-.263-.788-.526-1.314-.525-1.314-1.051-2.365-1.576-3.679-.263-.262-.263-.525-.526-.788-.526-1.051-1.051-1.84-1.314-2.891-.263-.262-.526-.788-.526-1.051-2.365 8.147-4.73 16.556-8.146 24.439-6.044 13.665-16.03 26.805-30.22 32.323-12.877 4.993-27.33 3.153-40.732 7.095-17.081 4.993-30.484 18.921-47.565 23.914-12.088 3.416-25.227 2.102-37.84 3.153 3.415 6.044 7.357 11.826 11.825 16.819a127.129 127.129 0 0 0 8.409 8.409l.262.263c1.577 1.314 2.891 2.365 4.468 3.679 3.153 2.365 6.57 4.73 9.986 6.569h.262c11.3 6.57 24.177 10.775 37.842 12.351h.525c1.314 0 2.628.263 3.942.263h4.73c12.877 0 25.228-2.628 36.265-7.358 1.576.263 3.942-.263 5.518-1.051 4.468-2.102 8.672-4.467 12.877-7.358 1.314-.789 2.365-1.84 3.679-2.628.263-.263.525-.263.525-.526 5.519-4.204 10.512-9.197 14.716-14.453.526-.788 1.314-1.577 1.84-2.365 11.563-14.979 18.132-33.637 19.183-52.557Z" fill="#00C3DF"/><path opacity=".33" d="M243.866 148.212v-2.628c-.263-2.102-.526-4.204-1.314-6.307 0-.525 0-1.051-.263-1.576 0-.526-.263-1.314-.263-1.84-.788-5.255-1.839-10.511-3.416-15.504-.525-1.314-.788-2.628-1.314-3.679-.263-.526-.263-.789-.525-1.314-.263-.788-.789-1.84-1.052-2.628-.262-.526-.262-.788-.525-1.314-.526-1.314-1.051-2.365-1.577-3.679-.263-.263-.263-.525-.525-.788-.526-1.051-1.052-1.84-1.314-2.891-.263-.263-.526-.788-.526-1.051 2.102 8.409 4.205 16.818 3.942 25.49-.263 17.081-9.986 33.111-23.388 43.623-3.679 2.89-7.884 5.781-12.614 7.095-6.307 1.84-12.876 1.051-19.183 1.314-9.461.263-18.921 2.628-27.593 6.57-8.935 4.204-16.818 10.248-25.753 13.927-18.921 7.621-40.732 3.679-58.864-5.518 3.153 5.518 6.832 10.774 11.037 15.241a126.904 126.904 0 0 0 8.409 8.41l.263.262c1.577 1.314 2.89 2.365 4.467 3.679 3.154 2.365 6.57 4.731 9.986 6.57h.263c11.3 6.57 24.176 10.774 37.841 12.351h.526c1.314 0 2.628.263 3.941.263h4.731c12.876 0 25.227-2.628 36.264-7.358 1.577.263 3.942-.263 5.519-1.051 4.467-2.103 8.672-4.468 12.876-7.358 1.314-.789 2.365-1.84 3.679-2.628.263-.263.526-.263.526-.526 5.518-4.204 10.511-9.197 14.716-14.453.525-.788 1.314-1.577 1.839-2.365 11.563-14.979 17.87-33.637 18.921-52.557 0-1.84.263-3.679.263-5.782Z" fill="#00C3DF"/><path opacity=".56" d="M243.866 145.847c0-2.102-.526-4.205-1.314-6.307 0-.525 0-1.051-.263-1.577 0-.525-.263-1.313-.263-1.839-.788-5.256-1.839-10.512-3.416-15.504-.526-1.314-.788-2.628-1.314-3.679-.263-.526-.263-.789-.526-1.314-.262-.789-.788-1.84-1.051-2.628-.263-.526-.263-.789-.525-1.314-.526-1.314-1.051-2.365-1.577-3.679-.263-.263-.263-.526-.526-.789-.525-1.051-1.051-1.839-1.314-2.89-.262-.526-.525-.789-.788-1.314-.525-.789-.788-1.577-1.314-2.365-.263-.526-.525-.789-.788-1.314-.526-1.051-1.314-2.103-2.102-3.154-.263-.525-.526-.788-.789-1.314-.525-.788-1.051-1.314-1.314-2.102-.263-.525-.788-1.051-1.051-1.314-.525-.525-1.051-1.314-1.314-1.84-.263-.525-.788-1.05-1.051-1.313-.788-.789-1.577-1.84-2.102-2.628-.526-.526-.789-1.051-1.314-1.577l-1.314-1.314-1.577-1.576c-.263-.263-.788-.789-1.314-1.052l-.788-.788.525.526 1.314 1.314c.526.525 1.051 1.05 1.314 1.576.789.789 1.577 1.577 2.103 2.628.262.526.788 1.051 1.051 1.314.525.526 1.051 1.314 1.314 1.84.262.525.788 1.05 1.051 1.314.525.788 1.051 1.313 1.314 2.102.263.525.525.788.788 1.314.788 1.05 1.314 2.102 2.102 3.153.263.526.526.788.789 1.314.525.788.788 1.577 1.314 2.365.262.526.525.789.788 1.314.526.788 1.051 1.84 1.314 2.891.263.263.263.525.526.788.525 1.051 1.051 2.365 1.576 3.679.263.526.263.789.526 1.314.263.788.788 1.84 1.051 2.628.263.526.263.788.526 1.314.525 1.314.788 2.628 1.313 3.679 1.577 4.993 2.628 10.249 3.417 15.504 0 .526.262 1.314.262 1.84 0 .525 0 1.051.263 1.577.789 2.102 1.051 4.204 1.314 6.306v2.628c0 1.84-.263 3.942-.263 5.782-1.051 18.92-7.358 37.578-18.92 52.557-.526.788-1.314 1.577-1.84 2.365-4.467 5.256-9.46 10.249-14.716 14.453-.263.263-.525.263-.525.526-1.314.788-2.365 1.839-3.679 2.628-3.942 2.89-8.41 5.255-12.877 7.358-1.577.788-3.679 1.576-5.518 1.051-11.037 4.73-23.388 7.358-36.265 7.358h-4.73c-1.314 0-2.628-.263-3.942-.263h-.525c-13.665-1.314-26.542-5.518-37.842-12.351h-.262c-3.417-2.102-6.833-4.204-9.986-6.57-1.577-1.051-2.891-2.365-4.468-3.679l-.263-.262c-.525-.526-1.05-1.052-1.839-1.577 1.577 1.577 3.153 3.153 4.993 4.73l.263.263c1.576 1.314 2.89 2.365 4.467 3.679 3.153 2.365 6.57 4.73 9.986 6.57h.263c11.3 6.569 24.176 10.774 37.841 12.351h.526c1.313 0 2.627.262 3.941.262h4.731c12.876 0 25.227-2.628 36.264-7.358 1.577.263 3.942-.262 5.519-1.051 4.467-2.102 8.672-4.467 12.876-7.358 1.314-.788 2.365-1.839 3.679-2.628.263-.263.526-.263.526-.525 5.518-4.205 10.511-9.198 14.716-14.454.525-.788 1.314-1.576 1.839-2.365 11.563-14.979 17.87-33.636 18.921-52.557 0-1.84.263-3.942.263-5.781v-2.891Z" fill="#00C3DF"/><path opacity=".41" d="M137.173 55.185c-1.314-.262-2.891-.525-4.467-.525-5.256 0-11.3 2.102-16.293 3.679-1.577.526-3.154 1.051-4.467 1.84-.526.262-1.314.525-1.84.788-.788.263-1.314.525-2.102 1.05-23.388 10.775-41.258 30.221-49.141 54.135-.263.788-.526 1.839-.789 2.628 0 .263-.262.525-.262.788-1.314 4.73-2.365 9.46-2.891 14.191 11.825 17.606 31.797 29.169 54.659 29.169 36.265 0 65.697-29.432 65.697-65.697 0-16.292-5.781-31.008-15.504-42.571-3.417-.526-7.096-.526-10.775-.526-3.941.263-7.883.526-11.825 1.051Z" fill="#98F1FF"/><path opacity=".42" d="M222.317 89.61c-.263-.525-.789-1.05-1.051-1.313-.789-.788-1.577-1.84-2.103-2.628-.525-.525-.788-1.051-1.314-1.577l-1.313-1.314-1.577-1.576c-.263-.263-.789-.789-1.314-1.052-1.051-1.05-2.102-1.839-3.154-2.89-.262-.263-.525-.526-1.051-.788-.525-.526-1.314-1.052-1.839-1.577-.263-.263-.526-.526-1.051-.788-.789-.526-1.314-1.052-2.103-1.577-1.839-1.314-3.416-2.365-5.255-3.416-.263 0-.263-.263-.526-.263-.788-.526-1.577-1.051-2.628-1.577-.263 0-.263-.263-.525-.263-2.891-1.576-5.519-3.153-8.672-4.467-11.826-5.256-24.702-8.146-38.367-8.146-3.942 0-7.884.262-11.563.788-1.314-.263-2.89-.526-4.467-.526-5.256 0-11.3 2.103-16.293 3.68-1.577.525-3.153 1.05-4.467 1.839-.526.262-1.314.525-1.84.788-.788.263-1.314.526-2.102 1.051-1.314.526-2.628 1.314-3.942 2.103-.526.262-.788.525-1.314.788-.788.525-1.839 1.051-2.628 1.577l-1.576.788-2.366 1.577c-.525.263-1.05.788-1.576 1.05-.789.526-1.577 1.052-2.103 1.578-.525.262-1.05.788-1.576 1.05-.789.526-1.577 1.052-2.103 1.578-.525.262-.788.788-1.314 1.05-.788.526-1.576 1.315-2.365 1.84-.262.263-.788.526-1.05 1.051-1.052 1.051-2.103 1.84-3.154 2.89h-.263l-3.153 3.154c-.263.263-.526.789-1.052 1.052-.525.788-1.313 1.576-1.839 2.102-.263.525-.788.788-1.051 1.314-.526.788-1.051 1.314-1.577 2.102-.263.526-.788 1.051-1.051 1.577-.526.788-1.051 1.314-1.577 2.102-.262.526-.788 1.051-1.05 1.577-.526.788-1.052 1.576-1.315 2.365l-.788 1.576c-.526.789-1.051 1.577-1.314 2.628-.263.526-.526.789-.788 1.314-.526 1.314-1.314 2.365-1.84 3.679-1.314 2.891-2.628 6.044-3.679 9.198-.263.788-.526 1.839-.788 2.628 0 .263-.263.525-.263.788-3.416 11.563-4.205 23.651-2.365 35.739 0 .526 0 1.051.263 1.577 0 .525 0 1.051.262 1.839v2.628c0 .526.263 1.051.263 1.84 0 .525.263 1.051.263 1.576 0 .526.263.789.263 1.314 0 .263 0 .526.263.789.262.788.262 1.576.525 2.365 0 .525.263 1.051.263 1.577v.525c.263.788.263 1.314.525 2.102 0 .526.263.789.263 1.314 1.314 4.205 2.628 8.147 4.468 12.088v.263l2.365 4.73c3.679 6.833 7.883 13.403 13.139 19.184a12.476 12.476 0 0 0 2.628 2.628c-3.68-4.468-6.833-9.461-9.46-14.716l-2.365-4.73v-.263c-1.84-3.942-3.154-7.884-4.468-12.088 0-.526-.263-.789-.263-1.314-.263-.789-.263-1.314-.525-2.103v-.525c0-.526-.263-1.051-.263-1.577-.263-.788-.263-1.577-.526-2.365 0-.263 0-.526-.262-.788 0-.526-.263-.789-.263-1.314 0-.526-.263-1.052-.263-1.577 0-.526-.263-1.051-.263-1.84v-2.627c0-.526 0-1.052-.262-1.84 0-.526 0-1.051-.263-1.577-2.103-12.088-1.051-24.439 2.365-35.739 0-.262.262-.525.262-.788.263-.788.526-1.84.789-2.628.788-2.365 1.577-4.73 2.628-6.832 8.934 11.562 23.125 19.183 38.892 19.183 27.067 0 48.878-21.811 48.878-48.878 0-9.198-2.627-17.607-6.832-24.965 2.365-.263 4.467-.263 6.832-.263 13.665 0 26.542 2.89 38.104 8.147 3.154 1.314 5.782 2.89 8.672 4.467.263 0 .263.263.526.263.788.525 1.839 1.05 2.628 1.577.263 0 .263.262.525.262 1.84 1.052 3.417 2.365 4.993 3.416.789.526 1.577 1.052 2.103 1.577.263.263.525.526 1.051.789.788.525 1.314 1.05 1.839 1.576.263.263.526.526 1.052.789 1.051 1.05 2.102 1.84 3.153 2.89.525.263.788.789 1.314 1.052l1.577 1.576c0-.525-.263-.525-.263-.788Z" fill="#00DF16"/><path opacity=".63" d="M243.864 145.847c-.263-2.102-.525-4.204-1.314-6.307 0-.525 0-1.051-.262-1.576 0-.526-.263-1.314-.263-1.84-.789-5.256-1.84-10.511-3.416-15.504-.526-1.314-.789-2.628-1.314-3.679-.263-.526-.263-.789-.526-1.314-.263-.789-.788-1.84-1.051-2.628-.263-.526-.263-.789-.526-1.314-.525-1.314-1.051-2.365-1.576-3.679-.263-.263-.263-.526-.526-.788-.526-1.052-1.051-1.84-1.314-2.891-.263-.526-.525-.788-.788-1.314-.526-.788-.789-1.577-1.314-2.365-.263-.526-.526-.788-.789-1.314-.525-1.051-1.313-2.102-2.102-3.154-.263-.525-.525-.788-.788-1.313-.526-.789-1.051-1.314-1.314-2.103-.263-.525-.789-1.05-1.051-1.314-.526-.525-1.051-1.314-1.314-1.84-.263-.525-.789-1.05-1.051-1.313-.789-.788-1.577-1.84-2.103-2.628-.525-.525-.788-1.051-1.314-1.577l-1.314-1.314-1.576-1.576c-.263-.263-.789-.789-1.314-1.052-1.051-1.05-2.103-1.839-3.154-2.89-.262-.263-.525-.526-1.051-.788-.525-.526-1.314-1.052-1.839-1.577-.263-.263-.526-.526-1.051-.788-.789-.526-1.314-1.052-2.103-1.577-1.839-1.314-3.416-2.365-5.255-3.416-.263 0-.263-.263-.526-.263-.788-.526-1.577-1.051-2.628-1.577-.263 0-.263-.263-.525-.263-2.891-1.576-5.519-3.153-8.672-4.467-11.826-5.256-24.702-8.146-38.367-8.146-3.942 0-7.884.262-11.563.788-1.314-.263-2.89-.526-4.467-.526-5.256 0-11.3 2.103-16.293 3.68-1.577.525-3.153 1.05-4.467 1.839-.526.262-1.314.525-1.84.788-.788.263-1.314.526-2.102 1.051-23.388 10.775-41.258 30.22-49.141 54.134-.263.789-.526 1.84-.789 2.628 0 .263-.262.526-.262.789-3.417 11.562-4.205 23.65-2.365 35.739 0 .525 0 1.051.262 1.576 0 .526 0 1.051.263 1.84v2.628c0 .525.263 1.051.263 1.839 0 .526.263 1.051.263 1.577 0 .525.262.788.262 1.314 0 .263 0 .525.263.788.263.788.263 1.577.526 2.365 0 .526.263 1.051.263 1.577v.525c.262.789.262 1.314.525 2.103 0 .525.263.788.263 1.314 1.314 4.204 2.628 8.146 4.467 12.088v.263l2.365 4.73c3.68 6.832 7.884 13.402 13.14 19.183a126.599 126.599 0 0 0 8.409 8.409l.263.263c1.576 1.314 2.89 2.365 4.467 3.679 3.154 2.365 6.57 4.73 9.986 6.57h.263c11.3 6.57 24.176 10.774 37.841 12.351h.526c1.314 0 2.627.263 3.941.263h4.731c12.876 0 25.227-2.628 36.264-7.358 1.577.262 3.942-.263 5.519-1.052 4.467-2.102 8.672-4.467 12.876-7.358 1.314-.788 2.365-1.839 3.679-2.627.263-.263.526-.263.526-.526 5.518-4.205 10.511-9.198 14.716-14.453.525-.789 1.314-1.577 1.839-2.365 11.563-14.979 17.87-33.637 18.921-52.558 0-1.839.263-3.941.263-5.781.525-1.051.525-1.839.525-2.628Z" fill="url('#paint1_linear_664_559')"/><path opacity=".37" d="M130.34 135.598c20.899 0 37.842-16.942 37.842-37.841 0-20.9-16.943-37.842-37.842-37.842-20.899 0-37.841 16.943-37.841 37.842 0 20.899 16.942 37.841 37.841 37.841Z" fill="url('#paint2_radial_664_559')"/><path opacity=".49" d="M233.352 112.998c.263 11.037-1.313 22.074-5.255 33.111-17.081 48.353-70.164 73.581-118.254 56.5-24.965-8.935-43.623-27.067-53.609-49.404.789 37.315 24.44 72.003 61.755 85.143 48.353 17.081 101.173-8.147 118.254-56.5 8.147-23.65 6.57-48.09-2.891-68.85Z" fill="url('#paint3_linear_664_559')"/><path opacity=".25" d="M186.578 66.223c7.621 7.883 13.665 17.344 18.133 28.118 19.446 47.301-2.891 101.435-50.192 121.144-24.44 9.986-50.718 8.935-73.055-1.051 25.49 27.067 66.222 37.316 102.749 22.074 47.302-19.446 69.902-73.843 50.193-121.144-9.198-22.863-26.805-39.944-47.828-49.141Z" fill="url('#paint4_linear_664_559')"/><defs><linearGradient id="paint1_linear_664_559" x1="81.136" y1="80.581" x2="216.389" y2="215.834" gradientUnits="userSpaceOnUse"><stop stop-color="#fff"/><stop offset=".997" stop-color="#1876E7"/></linearGradient><linearGradient id="paint3_linear_664_559" x1="140.129" y1="114.325" x2="170.577" y2="241.331" gradientUnits="userSpaceOnUse"><stop offset=".242" stop-color="#fff"/><stop offset=".92" stop-color="#fff"/><stop offset="1" stop-color="#fff"/></linearGradient><linearGradient id="paint4_linear_664_559" x1="118.219" y1="129.665" x2="225.795" y2="203.718" gradientUnits="userSpaceOnUse"><stop offset=".242" stop-color="#fff"/><stop offset=".92" stop-color="#fff"/><stop offset="1" stop-color="#fff"/></linearGradient><radialGradient id="paint0_radial_664_559" cx="0" cy="0" r="1" gradientUnits="userSpaceOnUse" gradientTransform="translate(149.057 149.023) scale(149.118)"><stop stop-color="#ACFFFB"/><stop offset=".198" stop-color="#87C7C4"/><stop offset=".594" stop-color="#3F5D5C"/><stop offset=".869" stop-color="#121A1A"/><stop offset=".997"/></radialGradient><radialGradient id="paint2_radial_664_559" cx="0" cy="0" r="1" gradientUnits="userSpaceOnUse" gradientTransform="translate(130.21 97.667) scale(37.851)"><stop stop-color="#ECECEC"/><stop offset=".469" stop-color="#F1F1F1"/><stop offset="1" stop-color="#fff"/></radialGradient></defs></svg>