<svg width="298" height="298" fill="none" xmlns="http://www.w3.org/2000/svg"><path opacity=".54" d="M149.132 290.673c78.152 0 141.506-63.355 141.506-141.507 0-78.152-63.354-141.507-141.506-141.507S7.625 71.014 7.625 149.166c0 78.152 63.355 141.507 141.507 141.507Z" fill="url('#paint0_radial_664_637')"/><mask id="mask0_664_637" style="mask-type:luminance" maskUnits="userSpaceOnUse" x="60" y="60" width="178" height="178"><path d="M209.123 83.545c-36.15-33.205-92.373-30.818-125.578 5.332s-30.818 92.373 5.332 125.578 92.373 30.818 125.578-5.332 30.818-92.373-5.332-125.578Z" fill="#fff"/></mask><g mask="url('#mask0_664_637')"><path d="M231.938 181.3c17.817-45.737-4.816-97.26-50.553-115.077-45.738-17.818-97.26 4.815-115.077 50.553-17.818 45.737 4.815 97.259 50.553 115.077 45.737 17.817 97.259-4.816 115.077-50.553Z" fill="#F1AC5E"/></g><mask id="mask1_664_637" style="mask-type:luminance" maskUnits="userSpaceOnUse" x="60" y="60" width="179" height="178"><path d="M231.936 181.301c17.817-45.737-4.816-97.258-50.553-115.076-45.737-17.818-97.258 4.815-115.075 50.552-17.818 45.737 4.815 97.258 50.552 115.076 45.737 17.817 97.258-4.816 115.076-50.552Z" fill="#fff"/></mask><g mask="url('#mask1_664_637')"><path d="M237.758 149.166c0-12.165-2.482-23.584-6.951-34.26-2.979 7.2-7.944 13.406-14.647 17.379-6.455 3.723-14.151 5.709-19.613 10.923-5.213 4.965-7.696 12.165-12.661 17.378-14.647 15.64-42.452 6.703-60.575 17.874-6.951 4.221-11.916 11.42-18.867 15.641-8.193 5.213-18.371 6.454-28.301 5.71 16.136 23.087 42.7 38.231 72.987 38.231 48.907-.248 88.628-39.969 88.628-88.876Z" fill="#F19B3A"/></g><mask id="mask2_664_637" style="mask-type:luminance" maskUnits="userSpaceOnUse" x="60" y="60" width="179" height="178"><path d="M231.936 181.301c17.817-45.737-4.816-97.258-50.553-115.076-45.737-17.818-97.258 4.815-115.075 50.552-17.818 45.737 4.815 97.258 50.552 115.076 45.737 17.817 97.258-4.816 115.076-50.552Z" fill="#fff"/></mask><g mask="url('#mask2_664_637')"><path d="M153.6 166.544c6.455 1.738 19.861 0 27.309-8.44 7.447-8.441 2.979-14.151-4.221-10.427-7.199 3.724-30.039 17.129-23.088 18.867Z" fill="#F19B3A"/></g><mask id="mask3_664_637" style="mask-type:luminance" maskUnits="userSpaceOnUse" x="60" y="60" width="179" height="178"><path d="M231.936 181.301c17.817-45.737-4.816-97.258-50.553-115.076-45.737-17.818-97.258 4.815-115.075 50.552-17.818 45.737 4.815 97.258 50.552 115.076 45.737 17.817 97.258-4.816 115.076-50.552Z" fill="#fff"/></mask><g mask="url('#mask3_664_637')"><path d="M42.13 150.159c-2.978 4.965 1.242 10.179 4.718 13.158 5.461 4.468 12.413 6.206 19.116 5.213 15.888-1.738 27.06-15.888 40.714-22.839 7.448-3.724 14.399-4.221 22.591-3.476 9.682.745 18.371.496 27.557-2.731 7.448-2.731 14.399-6.703 22.343-8.441 8.192-1.986 16.137-2.731 23.336-7.447 13.406-8.938 20.357-23.833 21.847-39.473.745-7.2 1.738-18.868-7.2-21.599-8.689-2.73-11.419 7.2-11.419 13.903.248 14.895-5.959 31.032-21.599 34.756-7.696 1.738-14.895 3.227-22.343 6.454-8.441 3.724-15.889 7.448-25.074 7.2-9.682 0-19.116-1.241-28.55 1.738-9.185 3.227-17.13 8.689-24.825 14.647-6.207 4.717-12.91 10.923-21.102 12.164-2.98.497-6.455.249-9.186-.744-2.979-1.242-4.717-3.724-8.192-3.972-.993-.497-1.986.496-2.731 1.489Z" fill="#F18913"/></g><mask id="mask4_664_637" style="mask-type:luminance" maskUnits="userSpaceOnUse" x="60" y="60" width="179" height="178"><path d="M231.936 181.301c17.817-45.737-4.816-97.258-50.553-115.076-45.737-17.818-97.258 4.815-115.075 50.552-17.818 45.737 4.815 97.258 50.552 115.076 45.737 17.817 97.258-4.816 115.076-50.552Z" fill="#fff"/></mask><g mask="url('#mask4_664_637')"><path d="M203.251 115.9c-11.172-.993-25.322 7.448-33.515 14.399-5.461 4.717-10.178 10.923-16.633 14.399-6.951 3.724-15.392 2.979-22.84 5.213-14.647 4.469-24.329 14.399-33.018 26.316-3.972 5.71-8.192 11.171-14.399 14.647-6.455 3.724-14.399 5.213-21.598 6.206-7.448.993-14.896 1.738-22.343 1.242-5.214-.497-15.144-3.228-17.378 3.972-2.235 6.951 6.703 11.171 11.916 12.164 8.44 1.738 17.378.745 26.067-.248 14.647-1.738 29.294-4.717 40.714-14.895 10.923-9.931 16.137-24.578 29.295-32.026 7.447-4.22 15.888-4.468 23.832-7.447 7.696-2.979 13.654-8.441 19.116-14.399 5.462-5.958 10.427-10.924 17.378-15.144 5.71-3.476 11.668-6.206 15.392-11.668.248-1.241-.745-2.483-1.986-2.731Z" fill="#F18913"/></g><mask id="mask5_664_637" style="mask-type:luminance" maskUnits="userSpaceOnUse" x="60" y="60" width="179" height="178"><path d="M231.936 181.301c17.817-45.737-4.816-97.258-50.553-115.076-45.737-17.818-97.258 4.815-115.075 50.552-17.818 45.737 4.815 97.258 50.552 115.076 45.737 17.817 97.258-4.816 115.076-50.552Z" fill="#fff"/></mask><g mask="url('#mask5_664_637')"><path d="M55.041 96.287c-9.93 10.179-8.937 35.998 9.93 33.515 9.434-1.241 18.123-8.441 26.812-12.413 4.717-2.234 10.179-4.22 15.392-4.22 4.965 0 9.93 1.738 14.896 2.482 18.619 2.98 40.962-4.965 57.099-14.15 7.944-4.469 15.392-10.924 19.116-19.613 3.972-8.937 3.227-21.598-4.221-28.55-2.482-2.233-6.206-3.723-9.433-2.482-7.2 2.483-7.945 9.434-5.71 15.889 2.482 7.2 1.241 11.916-5.214 16.633-11.668 8.44-29.046 15.888-43.693 17.13-7.696.744-14.896-2.235-22.592-1.986-7.199.248-14.15 2.482-20.605 5.461-3.724 1.738-7.2 3.724-10.675 5.71-3.476 1.986-7.696 5.462-11.916 6.455-4.717.993-4.717-2.979-4.717-6.951 0-3.724.745-7.448.745-11.172 0-2.234-3.476-3.476-5.214-1.738Z" fill="#F19B3A"/></g><mask id="mask6_664_637" style="mask-type:luminance" maskUnits="userSpaceOnUse" x="60" y="60" width="179" height="178"><path d="M231.936 181.301c17.817-45.737-4.816-97.258-50.553-115.076-45.737-17.818-97.258 4.815-115.075 50.552-17.818 45.737 4.815 97.258 50.552 115.076 45.737 17.817 97.258-4.816 115.076-50.552Z" fill="#fff"/></mask><g mask="url('#mask6_664_637')"><path d="M162.537 48.87c-5.958 3.228-6.207 11.669-8.193 17.379-2.731 7.696-7.696 14.895-13.406 20.605-5.709 5.958-13.405 10.675-21.35 12.91-7.696 2.234-16.633 1.737-23.584 5.461-2.98 1.489-1.986 5.71.993 6.703 8.192 2.482 18.619-.497 26.563-2.234 9.682-1.987 18.868-4.469 27.06-9.93 15.641-10.18 25.323-29.047 19.861-47.418-1.241-3.475-4.965-5.213-7.944-3.475Z" fill="#F19B3A"/></g><mask id="mask7_664_637" style="mask-type:luminance" maskUnits="userSpaceOnUse" x="60" y="60" width="179" height="178"><path d="M231.936 181.301c17.817-45.737-4.816-97.258-50.553-115.076-45.737-17.818-97.258 4.815-115.075 50.552-17.818 45.737 4.815 97.258 50.552 115.076 45.737 17.817 97.258-4.816 115.076-50.552Z" fill="#fff"/></mask><g mask="url('#mask7_664_637')"><path d="M247.69 99.267c-14.896 42.948-47.914 78.201-93.345 88.131-11.668 2.483-24.081 2.731-35.749 5.71-10.675 2.731-20.109 8.193-30.04 12.661-10.674 4.717-20.853 6.703-32.273 3.228-11.171-3.476-20.109-11.172-31.032-15.144-2.73-.993-4.717 2.483-3.476 4.717 8.938 15.888 29.543 26.812 47.666 26.563 20.109-.496 36.245-14.398 55.361-18.619 10.179-2.234 20.854-2.482 31.281-4.717 9.434-1.986 18.867-5.213 27.556-9.185 17.627-7.945 33.763-19.861 45.928-35.005 13.654-16.881 22.095-35.997 25.074-57.595.496-3.972-5.958-4.22-6.951-.745Z" fill="#F18913"/></g><mask id="mask8_664_637" style="mask-type:luminance" maskUnits="userSpaceOnUse" x="60" y="60" width="179" height="178"><path d="M231.936 181.301c17.817-45.737-4.816-97.258-50.553-115.076-45.737-17.818-97.258 4.815-115.075 50.552-17.818 45.737 4.815 97.258 50.552 115.076 45.737 17.817 97.258-4.816 115.076-50.552Z" fill="#fff"/></mask><g mask="url('#mask8_664_637')"><path d="M92.033 233.574c17.378-7.448 37.239-7.945 55.858-10.427 17.627-2.235 34.508-6.703 50.645-14.151 15.888-7.448 30.287-17.626 42.7-30.039 11.916-12.165 22.591-26.067 25.819-42.949.745-3.723-3.724-5.461-5.958-2.482-9.931 13.406-18.123 27.805-30.039 39.721-12.413 12.165-27.061 21.847-42.949 28.798-16.137 6.951-32.77 10.675-49.9 13.158-17.13 2.482-33.266 5.213-47.417 16.136-1.738.993-.496 2.979 1.241 2.235Z" fill="#F1AC5E"/></g><mask id="mask9_664_637" style="mask-type:luminance" maskUnits="userSpaceOnUse" x="60" y="60" width="179" height="178"><path d="M231.936 181.301c17.817-45.737-4.816-97.258-50.553-115.076-45.737-17.818-97.258 4.815-115.075 50.552-17.818 45.737 4.815 97.258 50.552 115.076 45.737 17.817 97.258-4.816 115.076-50.552Z" fill="#fff"/></mask><g mask="url('#mask9_664_637')"><path d="M209.208 140.974c-1.738-1.241-4.469.496-5.958 1.738-1.738 1.241-4.469 3.227-3.228 5.461.993 1.986 3.476 1.49 4.965.497 2.483-1.49 4.717-2.979 6.952-4.717 1.241-.993.496-2.979-.745-3.227-3.972-.993-10.179.744-10.427 5.71 0 1.737 1.986 2.482 3.227 1.241 1.738-1.49 3.228-3.972 5.959-3.227-.249-.993-.497-2.235-.745-3.476-1.241 1.241-2.731 1.986-3.972 2.979l-2.235 1.49c-.248 0-.496.248-.744.496.496 1.49.993 1.986 1.489 1.241.497-.248.993-.993 1.49-1.489.496-.497 1.241-.745 1.738-1.241.993-.745 1.986-.994 2.482-2.235.497-.496.248-.993-.248-1.241Z" fill="#F1AC5E"/></g><mask id="mask10_664_637" style="mask-type:luminance" maskUnits="userSpaceOnUse" x="60" y="60" width="179" height="178"><path d="M231.936 181.301c17.817-45.737-4.816-97.258-50.553-115.076-45.737-17.818-97.258 4.815-115.075 50.552-17.818 45.737 4.815 97.258 50.552 115.076 45.737 17.817 97.258-4.816 115.076-50.552Z" fill="#fff"/></mask><g mask="url('#mask10_664_637')"><path d="M199.774 152.145c-1.241 0-2.234.249-2.979 1.242-.993 1.241-.248 2.979 1.242 2.979 1.737 0 2.73-1.242 2.979-2.731 0-.745-.497-1.49-1.242-1.738-1.986-.496-4.717 1.241-3.972 3.476.248.744.745 1.241 1.49 1.241s1.241-.248 1.986-.745l.248-.248c.248 0 .248 0 0 0 .248 0 .497-.248.497-.248-.993-.497-1.738-.993-2.731-1.49 0-.248.248-.496.745-.745.496.745.993 1.49 1.737 2.235 0-.249.497-.993.497-.993.993-.993.745-2.235-.497-2.235Z" fill="#F1AC5E"/></g><mask id="mask11_664_637" style="mask-type:luminance" maskUnits="userSpaceOnUse" x="60" y="60" width="179" height="178"><path d="M231.936 181.301c17.817-45.737-4.816-97.258-50.553-115.076-45.737-17.818-97.258 4.815-115.075 50.552-17.818 45.737 4.815 97.258 50.552 115.076 45.737 17.817 97.258-4.816 115.076-50.552Z" fill="#fff"/></mask><g mask="url('#mask11_664_637')"><path d="M207.967 90.081c-1.49 1.49-1.241 2.73-1.738 4.965-.745 3.227-1.986 6.455-3.724 9.186-3.227 5.213-8.192 9.433-12.909 13.406-.745.496.248 1.489.993 1.241 6.206-3.228 11.668-7.696 15.392-13.654 2.234-3.724 6.206-11.42 2.731-15.144-.249-.248-.497-.248-.745 0Z" fill="#F1AC5E"/></g><mask id="mask12_664_637" style="mask-type:luminance" maskUnits="userSpaceOnUse" x="60" y="60" width="179" height="178"><path d="M231.936 181.301c17.817-45.737-4.816-97.258-50.553-115.076-45.737-17.818-97.258 4.815-115.075 50.552-17.818 45.737 4.815 97.258 50.552 115.076 45.737 17.817 97.258-4.816 115.076-50.552Z" fill="#fff"/></mask><g mask="url('#mask12_664_637')"><path d="M181.403 128.561c-7.696 2.979-12.164 8.689-17.626 14.647-7.696 7.945-17.378 10.675-27.06 15.392-.993.497-.248 1.986.745 1.738 8.441-1.986 17.378-5.462 24.081-10.923 7.447-5.958 12.413-14.647 20.605-19.116.745-.497.248-1.986-.745-1.738Z" fill="#F1AC5E"/></g><mask id="mask13_664_637" style="mask-type:luminance" maskUnits="userSpaceOnUse" x="60" y="60" width="179" height="178"><path d="M231.936 181.301c17.817-45.737-4.816-97.258-50.553-115.076-45.737-17.818-97.258 4.815-115.075 50.552-17.818 45.737 4.815 97.258 50.552 115.076 45.737 17.817 97.258-4.816 115.076-50.552Z" fill="#fff"/></mask><g mask="url('#mask13_664_637')"><path d="M95.01 211.727c7.2-1.986 13.655-5.958 21.351-7.447 7.696-1.738 15.64-2.235 23.336-2.731 13.654-.993 29.791-1.738 40.466-10.923 1.49-1.242 0-3.724-1.738-3.228-7.696 2.235-15.143 4.965-23.088 6.207-8.44 1.241-16.881 1.489-25.322 2.482-11.668 1.242-29.543 2.731-36.99 13.158-.993 1.241.496 2.979 1.986 2.482Z" fill="#F1AC5E"/></g><mask id="mask14_664_637" style="mask-type:luminance" maskUnits="userSpaceOnUse" x="60" y="60" width="179" height="178"><path d="M231.936 181.301c17.817-45.737-4.816-97.258-50.553-115.076-45.737-17.818-97.258 4.815-115.075 50.552-17.818 45.737 4.815 97.258 50.552 115.076 45.737 17.817 97.258-4.816 115.076-50.552Z" fill="#fff"/></mask><g mask="url('#mask14_664_637')"><path d="M208.216 166.296c-4.22 1.986-6.951 5.71-10.427 8.689-3.227 2.731-8.689 4.965-10.675 8.689-.496 1.241.248 2.234 1.241 2.483 4.221.496 8.441-3.476 11.42-5.958 3.972-3.228 6.703-7.448 9.931-11.42 1.241-1.49 0-2.979-1.49-2.483Z" fill="#F1AC5E"/></g><mask id="mask15_664_637" style="mask-type:luminance" maskUnits="userSpaceOnUse" x="60" y="60" width="179" height="178"><path d="M231.936 181.301c17.817-45.737-4.816-97.258-50.553-115.076-45.737-17.818-97.258 4.815-115.075 50.552-17.818 45.737 4.815 97.258 50.552 115.076 45.737 17.817 97.258-4.816 115.076-50.552Z" fill="#fff"/></mask><g mask="url('#mask15_664_637')"><path d="M67.95 122.354c5.462 3.228 10.427-1.241 14.895-4.468 7.448-5.214 15.144-9.93 24.33-10.179 8.689-.248 17.378 1.738 26.067 1.242 7.696-.497 15.392-1.738 22.095-5.462 1.241-.745.744-3.227-.745-2.979-7.944.993-15.64 2.731-23.833 2.979-7.944.248-15.888-1.49-23.832-1.241-6.207.248-12.165 2.234-17.379 5.461-6.454 3.724-13.902 12.91-21.35 12.91-.496-.249-.993 1.241-.248 1.737Z" fill="#F1AC5E"/></g><mask id="mask16_664_637" style="mask-type:luminance" maskUnits="userSpaceOnUse" x="60" y="60" width="179" height="178"><path d="M231.936 181.301c17.817-45.737-4.816-97.258-50.553-115.076-45.737-17.818-97.258 4.815-115.075 50.552-17.818 45.737 4.815 97.258 50.552 115.076 45.737 17.817 97.258-4.816 115.076-50.552Z" fill="#fff"/></mask><g mask="url('#mask16_664_637')"><path d="M191.583 65.255c-1.738-.993-3.475-.496-4.468.994-2.483 3.972-2.731 9.681-4.966 13.902-2.482 5.213-5.958 8.937-9.93 13.157-1.241 1.242 0 3.228 1.738 2.98 7.199-1.242 13.654-7.2 16.881-13.655 1.738-3.475 5.71-14.647.745-17.378Z" fill="#F18913"/></g><mask id="mask17_664_637" style="mask-type:luminance" maskUnits="userSpaceOnUse" x="60" y="60" width="179" height="178"><path d="M231.936 181.301c17.817-45.737-4.816-97.258-50.553-115.076-45.737-17.818-97.258 4.815-115.075 50.552-17.818 45.737 4.815 97.258 50.552 115.076 45.737 17.817 97.258-4.816 115.076-50.552Z" fill="#fff"/></mask><g mask="url('#mask17_664_637')"><path d="M66.461 143.208c.249 1.241.993 1.986 1.986 1.738 4.966-.745 9.186-4.965 12.662-8.193 2.482-2.234 5.213-4.22 8.192-5.71 3.227-1.737 6.703-2.482 9.434-4.717 2.234-1.737.248-4.965-2.234-5.213-7.2-.496-14.896 5.462-19.365 10.427-2.482 2.731-4.22 5.958-6.95 8.441 0 0-3.973 2.234-3.725 3.227Z" fill="#F18913"/></g><mask id="mask18_664_637" style="mask-type:luminance" maskUnits="userSpaceOnUse" x="60" y="60" width="179" height="178"><path d="M231.936 181.301c17.817-45.737-4.816-97.258-50.553-115.076-45.737-17.818-97.258 4.815-115.075 50.552-17.818 45.737 4.815 97.258 50.552 115.076 45.737 17.817 97.258-4.816 115.076-50.552Z" fill="#fff"/></mask><g mask="url('#mask18_664_637')"><path d="M229.565 96.536c-4.965 4.22-7.447 11.42-10.923 16.881-3.724 5.71-8.441 11.172-12.909 16.385-.993 1.242 0 2.979 1.489 2.483 7.2-1.738 12.413-6.207 16.634-12.165 4.22-5.958 9.682-14.647 9.682-22.095 0-1.986-2.483-2.73-3.973-1.49Z" fill="#F18913"/></g><mask id="mask19_664_637" style="mask-type:luminance" maskUnits="userSpaceOnUse" x="60" y="60" width="179" height="178"><path d="M231.936 181.301c17.817-45.737-4.816-97.258-50.553-115.076-45.737-17.818-97.258 4.815-115.075 50.552-17.818 45.737 4.815 97.258 50.552 115.076 45.737 17.817 97.258-4.816 115.076-50.552Z" fill="#fff"/></mask><g mask="url('#mask19_664_637')"><path d="M119.341 240.773c4.717-2.979 11.668-2.979 17.13-3.972 6.206-.993 12.413-1.986 18.371-3.227 10.675-2.234 21.35-6.207 29.046-14.399.993-.993 0-2.979-1.49-2.483-11.668 3.476-23.584 6.207-35.5 8.441-10.924 2.235-22.592 2.979-30.536 11.668-1.738 2.235.496 5.71 2.979 3.972Z" fill="#F18913"/></g><mask id="mask20_664_637" style="mask-type:luminance" maskUnits="userSpaceOnUse" x="60" y="60" width="179" height="178"><path d="M231.936 181.301c17.817-45.737-4.816-97.258-50.553-115.076-45.737-17.818-97.258 4.815-115.075 50.552-17.818 45.737 4.815 97.258 50.552 115.076 45.737 17.817 97.258-4.816 115.076-50.552Z" fill="#fff"/></mask><g mask="url('#mask20_664_637')"><path d="M55.787 185.412c8.193 3.972 16.385 1.49 23.833-2.979 7.448-4.22 17.13-11.42 20.109-19.861.993-2.979-2.483-4.468-4.717-3.475-6.703 2.979-11.172 10.178-17.13 14.399-5.958 4.22-13.902 7.696-21.102 7.944-1.738 0-2.979 2.979-.993 3.972Z" fill="#F19B3A"/></g><mask id="mask21_664_637" style="mask-type:luminance" maskUnits="userSpaceOnUse" x="60" y="60" width="179" height="178"><path d="M231.936 181.301c17.817-45.737-4.816-97.258-50.553-115.076-45.737-17.818-97.258 4.815-115.075 50.552-17.818 45.737 4.815 97.258 50.552 115.076 45.737 17.817 97.258-4.816 115.076-50.552Z" fill="#fff"/></mask><g mask="url('#mask21_664_637')"><path d="M105.935 156.118c1.986-.497 3.972-.993 6.206-1.738 1.986-.745 4.221-1.241 5.462-2.979.745-.993.248-2.483-.745-3.228-1.986-1.241-5.213 0-7.199.993-2.235 1.242-3.476 2.98-4.965 4.966-.745.993.248 2.234 1.241 1.986Z" fill="#F19B3A"/></g><mask id="mask22_664_637" style="mask-type:luminance" maskUnits="userSpaceOnUse" x="60" y="60" width="179" height="178"><path d="M231.936 181.301c17.817-45.737-4.816-97.258-50.553-115.076-45.737-17.818-97.258 4.815-115.075 50.552-17.818 45.737 4.815 97.258 50.552 115.076 45.737 17.817 97.258-4.816 115.076-50.552Z" fill="#fff"/></mask><g mask="url('#mask22_664_637')"><path d="M143.173 56.566c-7.448 7.2-10.675 18.371-21.35 22.095-8.441 2.98-17.875 2.235-26.564 4.965-3.724 1.242-12.165 5.959-16.137 2.98-2.482-1.986-1.986-5.959-4.965-7.696-6.951-4.47-10.427 6.454-8.44 11.42 3.227 7.944 11.667 10.674 19.363 9.681 5.462-.744 10.179-3.227 15.392-4.965 4.469-1.49 9.434-2.234 14.151-2.979 8.689-1.49 16.385-4.22 22.591-10.923 5.214-5.71 12.413-15.144 9.434-23.336-.248-1.986-2.234-2.483-3.475-1.242Z" fill="#F19B3A"/></g><mask id="mask23_664_637" style="mask-type:luminance" maskUnits="userSpaceOnUse" x="60" y="60" width="179" height="178"><path d="M231.936 181.301c17.817-45.737-4.816-97.258-50.553-115.076-45.737-17.818-97.258 4.815-115.075 50.552-17.818 45.737 4.815 97.258 50.552 115.076 45.737 17.817 97.258-4.816 115.076-50.552Z" fill="#fff"/></mask><g mask="url('#mask23_664_637')"><path d="M83.592 80.4c-5.214 5.46-1.738 9.185 4.965 8.688 6.951-.496 13.654-1.738 20.605-2.482 4.965-.745 10.179-.993 14.896-2.731 7.696-2.731 17.129-9.93 17.874-18.62.745-7.2-6.454-16.385-13.902-11.42-2.483 1.738-2.235 5.462.745 6.455 1.737.248 2.73 1.242 2.979 2.98 2.234 1.985 1.986 4.22-.745 6.206-1.49 1.738-3.724 3.724-5.71 4.965-3.476 2.234-7.448 3.227-11.42 3.724-4.469.744-9.185 1.241-13.902 1.986-.993.248-15.392 2.482-15.144.993.496-.745-.496-1.49-1.241-.745Z" fill="#F18913"/></g><mask id="mask24_664_637" style="mask-type:luminance" maskUnits="userSpaceOnUse" x="60" y="60" width="179" height="178"><path d="M231.936 181.301c17.817-45.737-4.816-97.258-50.553-115.076-45.737-17.818-97.258 4.815-115.075 50.552-17.818 45.737 4.815 97.258 50.552 115.076 45.737 17.817 97.258-4.816 115.076-50.552Z" fill="#fff"/></mask><g mask="url('#mask24_664_637')"><path d="M120.83 62.524c-.993.497-1.49 1.242-2.483 1.738-1.986 1.49-4.22 1.49-6.703 1.986-3.724.497-7.447 2.234-11.171 1.738.496 2.98.745 6.206 1.241 9.185 4.469-1.489 31.032-7.944 20.109-16.881-4.469-3.724-9.434.745-13.406 2.98-2.979 1.489-6.206 2.978-9.434 3.971-3.227.993-5.461.993-7.2 4.22-.496 1.242-.744 2.98.497 3.973 3.972 3.227 8.193 1.49 12.91-.249 2.234-.744 4.468-1.737 6.454-2.73 1.49-.745 5.462-4.469 6.952-4.22-.993-.497-2.235-.994-3.228-1.242.248.248.497.497.745.497-.497-.993-.993-2.235-1.241-3.228.248-.496.744-.993.993-1.49-.745.249-1.738.745-2.483.994-1.489.496-2.979 1.24-4.717 1.737-3.227 1.242-6.206 1.987-9.434 2.731-5.461 1.242-3.723 8.69 1.242 9.186 3.475.496 6.206-.745 9.434-1.738 3.227-.993 6.702-.993 9.682-2.483 3.475-1.737 7.696-6.703 3.723-10.178-.744-.745-1.489-.745-2.482-.497Z" fill="#F18913"/></g><mask id="mask25_664_637" style="mask-type:luminance" maskUnits="userSpaceOnUse" x="60" y="60" width="179" height="178"><path d="M231.936 181.301c17.817-45.737-4.816-97.258-50.553-115.076-45.737-17.818-97.258 4.815-115.075 50.552-17.818 45.737 4.815 97.258 50.552 115.076 45.737 17.817 97.258-4.816 115.076-50.552Z" fill="#fff"/></mask><g mask="url('#mask25_664_637')"><path d="M158.811 63.27c-.993 4.964-3.972 9.93-3.227 14.895.248.993 1.49 2.234 2.731 1.986 7.944-.993 9.682-10.427 8.689-16.882-.993-3.972-7.448-3.724-8.193 0Z" fill="#F18913"/></g><mask id="mask26_664_637" style="mask-type:luminance" maskUnits="userSpaceOnUse" x="60" y="60" width="179" height="178"><path d="M231.936 181.301c17.817-45.737-4.816-97.258-50.553-115.076-45.737-17.818-97.258 4.815-115.075 50.552-17.818 45.737 4.815 97.258 50.552 115.076 45.737 17.817 97.258-4.816 115.076-50.552Z" fill="#fff"/></mask><g mask="url('#mask26_664_637')"><path d="m152.854 81.392-1.49.745c-.496.248-.993.993-1.489 1.49-.745.744-1.738 2.482-1.738 3.723 0 .993.744 1.49 1.489 1.49.745 0 1.242-.248 1.986-.497.993-.496 1.49-.993 1.986-1.737.497-.497.993-1.242.993-1.738.249-.745.249-1.242.249-1.986.744-1.242-.993-1.986-1.986-1.49Z" fill="#F18913"/></g><mask id="mask27_664_637" style="mask-type:luminance" maskUnits="userSpaceOnUse" x="60" y="60" width="179" height="178"><path d="M231.936 181.301c17.817-45.737-4.816-97.258-50.553-115.076-45.737-17.818-97.258 4.815-115.075 50.552-17.818 45.737 4.815 97.258 50.552 115.076 45.737 17.817 97.258-4.816 115.076-50.552Z" fill="#fff"/></mask><g mask="url('#mask27_664_637')"><path d="M144.909 90.826c-1.241.993-2.731 1.738-4.22 2.73-.745.497-1.241.993-1.738 1.49-.745.496-1.489.745-1.738 1.738-.496.993 0 1.738.993 2.234 1.49.745 4.469-.496 5.71-1.49 1.49-1.24 2.731-2.73 3.972-4.22.993-1.986-1.489-3.724-2.979-2.482Z" fill="#F18913"/></g><mask id="mask28_664_637" style="mask-type:luminance" maskUnits="userSpaceOnUse" x="60" y="60" width="179" height="178"><path d="M231.936 181.301c17.817-45.737-4.816-97.258-50.553-115.076-45.737-17.818-97.258 4.815-115.075 50.552-17.818 45.737 4.815 97.258 50.552 115.076 45.737 17.817 97.258-4.816 115.076-50.552Z" fill="#fff"/></mask><g mask="url('#mask28_664_637')"><path d="M103.203 123.596c.994.248 1.738 0 2.731 0 .497 0 .993 0 1.49-.248.496 0 .993-.497 1.489-.497 2.731-.993 2.235-4.468-.744-4.716-1.242-.249-2.235-.001-3.476.496-.993.496-1.986.993-2.731 1.986-.745 1.241 0 2.731 1.241 2.979Z" fill="#F18913"/></g><mask id="mask29_664_637" style="mask-type:luminance" maskUnits="userSpaceOnUse" x="60" y="60" width="179" height="178"><path d="M231.936 181.301c17.817-45.737-4.816-97.258-50.553-115.076-45.737-17.818-97.258 4.815-115.075 50.552-17.818 45.737 4.815 97.258 50.552 115.076 45.737 17.817 97.258-4.816 115.076-50.552Z" fill="#fff"/></mask><g mask="url('#mask29_664_637')"><path d="M114.623 121.114c.745 0 1.242-.249 1.986-.497.497-.248.745-.745.745-1.489-.248-1.49-1.986-1.49-2.979-1.242-1.986.497-1.738 3.476.248 3.228Z" fill="#F18913"/></g><mask id="mask30_664_637" style="mask-type:luminance" maskUnits="userSpaceOnUse" x="60" y="60" width="179" height="178"><path d="M231.936 181.301c17.817-45.737-4.816-97.258-50.553-115.076-45.737-17.818-97.258 4.815-115.075 50.552-17.818 45.737 4.815 97.258 50.552 115.076 45.737 17.817 97.258-4.816 115.076-50.552Z" fill="#fff"/></mask><g mask="url('#mask30_664_637')"><path d="M196.798 94.053c-.745 0-1.49.249-1.987.993-.496.497-.744.745-.993 1.241-.744.745-1.241 1.49-1.241 2.483 0 .993.497 1.738 1.241 2.234.745.497 1.986.497 2.731 0 .745-.496 1.242-1.24 1.49-1.737.248-.497.496-.993.993-1.49.496-.993.496-1.738.248-2.483-.496-.992-1.489-1.24-2.482-1.24Z" fill="#F18913"/></g><mask id="mask31_664_637" style="mask-type:luminance" maskUnits="userSpaceOnUse" x="60" y="60" width="179" height="178"><path d="M231.936 181.301c17.817-45.737-4.816-97.258-50.553-115.076-45.737-17.818-97.258 4.815-115.075 50.552-17.818 45.737 4.815 97.258 50.552 115.076 45.737 17.817 97.258-4.816 115.076-50.552Z" fill="#fff"/></mask><g mask="url('#mask31_664_637')"><path d="M188.604 101.501c-.744.248-1.489.496-1.986.993-.248.496-.496 1.241-.744 1.738-.249.496.248 1.241.744.993.497 0 1.242 0 1.738-.249.745-.248.993-.993 1.49-1.737.993-.497-.248-1.986-1.242-1.738Z" fill="#F18913"/></g><mask id="mask32_664_637" style="mask-type:luminance" maskUnits="userSpaceOnUse" x="60" y="60" width="179" height="178"><path d="M231.936 181.301c17.817-45.737-4.816-97.258-50.553-115.076-45.737-17.818-97.258 4.815-115.075 50.552-17.818 45.737 4.815 97.258 50.552 115.076 45.737 17.817 97.258-4.816 115.076-50.552Z" fill="#fff"/></mask><g mask="url('#mask32_664_637')"><path d="M189.1 142.215c.745-.248-.248 0 0 0h.993c.993 0 1.49-.497 2.234-.993 0 0 .497-.248.249 0 .248-.248.744-.248.993-.496.993-.497 1.986-1.242 2.234-2.483-.496.496-.993 1.241-1.241 1.738.248-.249.496-.497.745-.497 1.986-1.489 1.241-4.717-1.242-4.717h-.993c.497.249.993.249 1.49.497-1.986-1.49-4.221.248-5.71 1.489-.745.745-1.49 1.49-1.49 2.731v1.49c.249.744.993 1.489 1.738 1.241Z" fill="#F19B3A"/></g><mask id="mask33_664_637" style="mask-type:luminance" maskUnits="userSpaceOnUse" x="60" y="60" width="179" height="178"><path d="M231.936 181.301c17.817-45.737-4.816-97.258-50.553-115.076-45.737-17.818-97.258 4.815-115.075 50.552-17.818 45.737 4.815 97.258 50.552 115.076 45.737 17.817 97.258-4.816 115.076-50.552Z" fill="#fff"/></mask><g mask="url('#mask33_664_637')"><path d="M145.904 165.055c-2.483 0-4.22.497-6.703 1.241-.993.249-1.986.745-2.979 1.242-1.241.745-1.49.993-2.483 2.234-.744.745-.248 1.738.745 1.738 1.242.248 1.49.496 2.979 0 .993-.248 2.235-.745 3.228-.993 1.986-.745 3.972-1.49 5.71-2.731 1.241-.993.744-2.731-.497-2.731Z" fill="#F19B3A"/></g><path opacity=".61" d="M213.926 88.592c1.986 7.2 2.979 14.895 2.979 22.839 0 48.907-39.721 88.877-88.876 88.877-25.571 0-48.659-10.924-64.796-28.054 10.179 37.984 44.687 65.789 85.897 65.789 48.907 0 88.877-39.721 88.877-88.876-.249-23.585-9.186-44.687-24.081-60.575Z" fill="#F1AC5E"/><path opacity=".82" d="M207.967 82.882c7.945 13.405 12.413 28.797 12.413 45.431 0 48.906-39.721 88.876-88.876 88.876-22.591 0-43.445-8.441-59.085-22.592 15.392 25.819 43.942 43.197 76.215 43.197 48.907 0 88.876-39.721 88.876-88.876.248-26.067-11.171-49.9-29.543-66.036Z" fill="#F1AC5E"/><path opacity=".25" d="M219.636 95.543c9.434 14.15 14.896 31.032 14.896 49.403 0 48.906-39.721 88.876-88.876 88.876-28.798 0-54.617-13.903-70.754-35.004 15.889 23.832 42.949 39.472 73.733 39.472 48.907 0 88.876-39.721 88.876-88.876.248-20.357-6.455-38.976-17.875-53.871Z" fill="#F1AC5E"/><path opacity=".58" d="M212.686 87.35c-16.137-16.633-38.728-27.06-63.802-27.06-2.98 0-6.207.248-9.186.497-1.49.248-3.227.496-4.717.496-.496 0-.993.248-1.241.248-.993.249-2.234.497-3.227.745-.497 0-.994.248-1.49.248l-2.979.745c-.497.248-.993.248-1.738.497-.993.248-1.986.496-2.731.993-.496.248-.993.248-1.738.496-.993.248-1.986.745-2.73.993-.497.248-.993.497-1.49.497-.993.496-1.986.745-2.731 1.241l-1.489.745-2.979 1.49c-.249.248-.745.248-.993.496-2.731 1.49-5.462 2.979-7.945 4.717-.248 0-.248.248-.496.248-.993.745-2.234 1.49-3.227 2.234-.249.249-.745.497-.994.745-.993.745-1.737 1.49-2.73 2.234-.249.249-.745.497-.993.993-.745.745-1.49 1.49-2.483 2.235l-.993.993-2.234 2.234-.993.993c-.745.745-1.49 1.738-2.235 2.483-.248.248-.496.745-.745.993-.744.993-1.489 1.738-2.234 2.73-.248.249-.496.497-.496.745-.993 1.242-1.738 2.483-2.731 3.724-9.682 14.151-15.392 31.281-15.392 49.9 0 26.564 11.668 50.148 30.04 66.533-15.393-15.889-25.075-37.735-25.075-61.816 0-18.123 5.462-35.004 14.896-49.155 6.703 6.703 16.136 10.923 26.563 10.923 20.605 0 37.487-16.881 37.487-37.487 0-4.22-.745-8.44-1.986-12.412a95.96 95.96 0 0 1 11.916-.745c22.343.496 42.7 8.689 58.341 22.591Z" fill="#F1AC5E"/><path opacity=".25" d="M143.422 60.539c-44.686 2.73-80.435 38.728-82.918 83.662 10.675 9.931 24.826 16.137 40.466 16.137 32.522 0 58.837-26.315 58.837-58.837 0-15.888-6.207-30.287-16.385-40.962Z" fill="#F1AC5E"/><path opacity=".5" d="M149.629 82.882c0 4.468 3.476 7.944 7.944 7.944 4.469 0 7.944-3.476 7.944-7.944 0-4.469-3.475-7.945-7.944-7.945-4.468 0-7.944 3.724-7.944 7.945ZM145.158 101.253c0 2.73 2.235 4.965 4.965 4.965 2.731 0 4.966-2.235 4.966-4.965 0-2.731-2.235-4.966-4.966-4.966-2.73 0-4.965 1.986-4.965 4.966Z" fill="#F1AC5E"/><path opacity=".51" d="M149.132 238.042c49.085 0 88.876-39.791 88.876-88.876 0-49.085-39.791-88.876-88.876-88.876-49.085 0-88.876 39.791-88.876 88.876 0 49.085 39.791 88.876 88.876 88.876Z" fill="url('#paint1_linear_664_637')"/><path opacity=".32" d="M228.823 114.659c.248 10.427-1.242 20.853-4.966 31.28-16.136 45.679-66.284 69.512-111.715 53.375-23.585-8.44-41.211-25.57-50.645-46.672.745 35.253 23.088 68.023 58.341 80.435 45.679 16.137 95.579-7.696 111.715-53.375 7.696-22.095 6.207-45.183-2.73-65.043Z" fill="url('#paint2_linear_664_637')"/><path opacity=".32" d="M184.632 70.469c7.2 7.448 12.909 16.385 17.13 26.563 18.371 44.687-2.731 95.828-47.417 114.447-23.088 9.434-47.914 8.441-69.016-.993 24.081 25.57 62.561 35.253 97.069 20.854 44.686-18.371 66.036-69.761 47.417-114.447-8.689-21.35-25.322-37.487-45.183-46.424Z" fill="url('#paint3_linear_664_637')"/><defs><linearGradient id="paint1_linear_664_637" x1="86.277" y1="86.361" x2="211.804" y2="211.887" gradientUnits="userSpaceOnUse"><stop stop-color="#FFF100"/><stop offset=".997" stop-color="#EC8D66"/></linearGradient><linearGradient id="paint2_linear_664_637" x1="140.692" y1="116.001" x2="169.457" y2="235.985" gradientUnits="userSpaceOnUse"><stop offset=".242" stop-color="#fff"/><stop offset=".92" stop-color="#fff"/><stop offset="1" stop-color="#fff"/></linearGradient><linearGradient id="paint3_linear_664_637" x1="119.991" y1="130.492" x2="221.619" y2="200.451" gradientUnits="userSpaceOnUse"><stop offset=".242" stop-color="#fff"/><stop offset=".391" stop-color="#FFFEFC"/><stop offset=".503" stop-color="#FFFAF2"/><stop offset=".603" stop-color="#FFF4E2"/><stop offset=".696" stop-color="#FFECCB"/><stop offset=".784" stop-color="#FFE1AE"/><stop offset=".869" stop-color="#FFD48A"/><stop offset=".949" stop-color="#FFC55F"/><stop offset="1" stop-color="#FFB940"/></linearGradient><radialGradient id="paint0_radial_664_637" cx="0" cy="0" r="1" gradientUnits="userSpaceOnUse" gradientTransform="translate(149.04 149.241) scale(141.425)"><stop stop-color="#ACFFFB"/><stop offset=".167" stop-color="#7FBDBA"/><stop offset=".332" stop-color="#588381"/><stop offset=".489" stop-color="#395453"/><stop offset=".638" stop-color="#20302F"/><stop offset=".776" stop-color="#0E1515"/><stop offset=".9" stop-color="#040605"/><stop offset=".997"/></radialGradient></defs></svg>