<svg width="298" height="298" fill="none" xmlns="http://www.w3.org/2000/svg"><path opacity=".43" d="M149 298c82.29 0 149-66.71 149-149S231.29 0 149 0 0 66.71 0 149s66.71 149 149 149Z" fill="url('#paint0_radial_664_587')"/><path d="M148.999 241.114c50.441 0 91.331-40.891 91.331-91.331 0-50.441-40.89-91.331-91.331-91.331-50.44 0-91.331 40.89-91.331 91.331 0 50.44 40.89 91.331 91.331 91.331Z" fill="#FF2424"/><path d="M213.715 84.807c-4.958.261-9.916 2.088-14.352 4.697-8.872 4.958-16.179 12.526-20.093 21.659-3.914 9.394-3.914 20.354 1.044 29.226 2.348 4.436 6.001 8.089 9.655 11.742 2.609 2.61 5.479 5.48 6.262 8.873 1.044 4.697-1.826 9.133-5.219 12.264-7.045 6.002-17.483 7.306-25.833 3.392-6.002-2.87-10.699-8.35-16.44-11.742-8.089-4.697-18.788-5.219-27.399-.783s-14.613 13.047-15.657 22.441c-.522 4.697 0 9.916-3.392 13.569-2.87 3.132-8.09 3.654-10.438 7.307-2.61 3.653-1.044 8.611-.522 13.047 15.657 13.047 36.011 20.615 57.93 20.615 50.624 0 91.331-40.969 91.331-91.331 0-25.312-10.177-48.275-26.877-64.976Z" fill="#E72121"/><path d="M214.759 86.112c-2.871 1.305-5.219 2.61-7.568 4.175-12.525 8.611-22.18 24.529-16.7 38.359 4.436 10.96 16.7 17.223 20.876 28.182 3.653 9.394.782 20.354-5.48 28.182-6.263 7.829-15.135 13.309-24.007 17.745-10.438 4.958-22.964 9.133-33.401 3.914-6.785-3.392-11.482-9.916-18.528-12.786-9.133-3.654-20.875 1.304-24.789 10.437-1.566 3.654-1.827 7.829-3.654 11.482-1.565 3.131-4.175 5.219-7.045 7.046 15.135 11.22 34.184 18.005 54.538 18.005 50.623 0 91.33-40.969 91.33-91.331.261-24.529-9.655-46.97-25.572-63.41Z" fill="#D80B0B"/><path d="M208.496 103.595c.522-4.175-3.392-6.001-8.089-.26-3.653 4.175-7.567 11.22-2.87 16.439 1.565 1.566 3.392 2.088 4.957 0 .783-1.305 1.044-2.87 1.044-4.436.261-2.348.522-3.653 2.088-5.48 1.044-1.565 2.609-3.914 2.87-6.263ZM209.279 122.383c-.261-.521-.783-1.043-1.305-1.043 0-.261-.261-.522-.261-.522-.783-.783-1.826-.522-2.348 0-1.044 1.044-1.566 2.609-.783 4.175.522 1.305 2.348 1.827 3.653 1.566 1.044-1.044 1.827-2.61 1.044-4.176ZM97.07 161.786c-6.001-.522-9.915 5.48-12.003 10.177-2.87 5.741-3.653 12.786-.783 18.788 1.566 3.132 4.175 4.697 7.046 4.436 2.087.783 4.697-.261 5.74-2.609 3.393-2.871 2.871-7.046 2.61-11.221 1.305-2.87 4.175-4.958 5.48-8.089 1.566-5.48-3.131-11.221-8.09-11.482ZM190.752 157.872c-1.305-3.392-4.437-3.914-7.568-2.87-4.175 1.827-15.396 11.482-9.133 15.918 3.131 2.348 6.785 0 9.394-2.088.783-.522 1.566-1.305 2.349-1.826.521 0 1.043 0 1.304-.522 2.61-1.827 4.958-5.219 3.654-8.612ZM176.922 151.609c.782.522 1.565.783 2.348 1.305 1.044.522 2.349.261 2.61-1.044v-1.565c.522-2.088-1.566-4.958-3.915-6.002-.26-.261-.782-.522-1.304-.522-1.566-.522-2.871.522-3.654 1.827-.782 1.565-.26 3.131 1.044 4.436.783.522 1.827 1.304 2.871 1.565ZM112.467 155.785c-.261-.261-.522-.261-.522-.522-2.349-1.566-5.219-.261-6.263 2.348 0 .261 0 .522-.261.783-1.044 2.348-1.044 5.219 1.305 6.785 2.87 1.826 5.48-.261 6.262-3.132 1.044-1.826 1.044-4.697-.521-6.262ZM102.553 152.392c-.261-.261-.522-.521-1.044-.521-.783-.261-1.305-.261-2.088 0-1.044.521-2.087 1.304-2.348 2.609-.261.522-.261 1.566.26 2.088.262.521 1.305 1.043 1.827 1.043 1.044.261 2.349.261 3.132-.522 1.043 0 1.826-.782 1.826-1.826s-.783-2.088-1.565-2.871Z" fill="#E72121"/><path d="m154.479 179.27-.261-.261c-3.392-4.958-9.133-11.221-11.742-5.741-1.305 2.87.522 6.263 2.348 8.089 2.088 2.349 4.958 3.393 7.829 3.915.783.26 1.565.26 2.348.521 1.566.261 2.61-1.043 1.827-2.609-.522-.522-1.305-2.088-2.349-3.914ZM160.482 179.27c-.522 0-1.305.26-1.566.782-.522.783-.522 1.827 0 2.871s1.305 1.304 2.348 1.565h.522s.261 0 .261.261c1.305.522 2.349-.782 2.088-2.087-.261-2.088-1.827-3.132-3.653-3.392ZM161.002 188.142h-1.044c-.782 0-1.826.783-1.826 1.827 0 1.043.783 1.565 1.826 1.826h1.044c.783 0 1.827-.783 1.827-1.826-.261-1.044-.783-1.566-1.827-1.827ZM110.903 182.401c-2.61 1.305-3.132 4.958-1.305 7.046.522.522 1.305.522 1.827.261 2.609-.261 2.348-4.697 2.087-6.524-.261-1.044-1.565-1.305-2.609-.783ZM112.468 176.921l-.261.261c-.783.783-.783 1.827 0 2.349.783.782 1.827.782 2.349 0l.261-.261c.783-.783.783-1.827 0-2.349-.522-.783-1.827-.783-2.349 0ZM199.1 148.478c-.782-1.304-2.087-2.087-3.392-3.131-1.044-1.044-1.305-2.609-2.348-3.653-1.044-1.044-2.871-1.566-4.175-.522-3.393 2.87 1.043 6.263 3.131 7.828 1.566 1.827 3.392 3.393 5.48 2.871 1.565-.261 2.087-2.088 1.304-3.393Z" fill="#FF2424"/><path d="M157.35 204.059c2.609 1.044 7.567 1.827 9.655-1.043.783-1.305.783-2.871-.261-4.176-1.044-1.043-2.349-1.565-3.653-1.565-1.566-.522-3.393-.522-5.219 0-1.305.522-2.871 1.565-3.132 3.131-.26 2.088 1.044 3.131 2.61 3.653ZM180.051 97.332c1.305.783 2.61.262 3.654-.521 2.087-1.305 3.653-3.132 5.741-4.176 2.348-1.565 8.089-3.13 7.828-6.784-.261-3.132-5.219-3.653-7.568-3.132-2.348.522-4.697 1.827-6.523 3.915a14.954 14.954 0 0 0-2.871 2.87c-2.087 1.827-3.653 6.002-.261 7.828ZM177.443 106.205c.522 0 1.044-.261 1.566-.783.522-.783.783-1.566.783-2.348v-.783c0-1.044-.783-1.566-1.827-1.827-1.305 0-2.348.783-2.87 1.827-.522 1.304-.522 2.609.522 3.653.782.261 1.304.261 1.826.261ZM202.494 85.59h1.305c.783-.261 1.044-.783 1.305-1.566v-.522c.261-.522 0-1.304-.522-1.826-.783-.783-1.827-.522-2.348 0l-.261.26c-.522.262-.783.522-1.305.783-.522.783-.783 1.827 0 2.349.522.783 1.305.783 1.826.522ZM89.243 196.753c-1.566-.261-3.393 0-4.958 1.044-.522.261-1.044.783-1.566 1.305-.261.522-.522 1.044-.783 1.826-.26 2.61 2.349 4.176 4.697 4.176 1.566 0 3.131-.522 4.175-1.566 2.61-2.349 1.566-6.002-1.565-6.785ZM81.153 191.012c-.783-.522-1.827-.522-2.349 0-.783.783-1.044 2.088-.522 2.871 0 0 0 .261.261.261l.261.261s0 .261.261.261c1.044 1.043 2.87 1.043 3.653-.522.261-1.044-.26-2.61-1.565-3.132ZM189.708 181.618c-.261.522-.783 1.044-1.044 1.827-2.087 2.87-2.609 5.74 0 6.784h.261l1.566.783c5.741 1.566 22.441-14.613 13.83-17.744-.261 0-.783-.261-1.044-.261-.261-.261-.783-.261-1.304-.261-4.958 1.826-9.134 4.697-12.265 8.872ZM202.754 167.788c.261.261.261.522.522.783l1.305 1.304c.783.783 2.087.783 2.609-.261.783-1.565 1.044-3.914.261-5.479 0-.261-.261-.522-.522-.783-.783-1.044-1.826-1.827-3.131-1.827-1.305.261-2.088 1.305-2.348 2.349v.261c-.261.521-.262.782-.262 1.304.522.783.783 1.827 1.566 2.349ZM197.795 170.658c1.044 1.305 3.393.261 3.393-1.304 0-1.827-2.088-2.61-3.393-1.305-.261.261-.522.783-.522 1.305 0 .521 0 1.043.522 1.304Z" fill="#D80B0B"/><path d="M133.344 69.15c-1.565 0-2.87 0-4.436-.26-.783-.261-1.826-.261-2.87.26-7.828 2.61-14.874 6.524-21.398 11.743-5.219 4.175-12.786 10.96-12.525 18.527.26 7.307 7.828 10.438 14.091 8.872 8.611-2.087 16.701-9.133 23.485-14.352 5.219-3.914 14.352-10.177 14.874-17.483.522-6.524-5.741-7.568-11.221-7.307ZM76.197 107.77c-.783.783-1.566 1.827-2.088 2.871 0 0 0 .261-.26.261 0 .261-.261.261-.261.522v.261c-1.044 2.087-2.088 4.175-2.088 6.262 0 2.088.783 3.654 2.088 4.697 1.043 1.305 2.609 2.088 4.175 2.088.522 0 1.043 0 1.565-.261 7.307-.522 13.57-11.743 8.35-17.483-3.913-3.393-8.61-2.61-11.48.782ZM101.768 113.511h-.783c-.26-.261-.522-.261-1.043-.261-1.305-.261-2.87-.261-3.915.522-1.043.783-2.087 1.827-2.348 3.131v.261a5.527 5.527 0 0 0 0 4.958c1.044 1.566 2.61 2.349 4.436 2.61 1.305 0 3.131-.261 4.175-1.044.261-.261.522-.261.522-.522 1.827-1.044 2.609-3.131 2.349-5.219 0-2.087-1.566-3.914-3.393-4.436ZM156.307 66.541c-1.304-.522-2.87-.26-4.175.522-1.566 1.044-2.348 2.61-2.087 4.697 0 .261.261.522.261.783 0 1.827.26 3.914 1.565 5.219 1.566 1.566 4.436 1.566 6.002 0 1.044-1.044 1.566-2.349 1.827-3.653 1.043-2.87 0-6.524-3.393-7.568ZM146.652 84.546c-1.827 1.305-4.437 2.87-4.959 5.22-.26.521-.26 1.043-.26 1.565 0 1.305 1.043 3.132 2.609 3.392.783 0 1.305.261 2.088 0 .261 0 .261-.26.522-.26 1.043-.261 2.087-.783 2.87-1.827.522-.522 1.305-1.305 1.827-2.088 1.304-1.565 1.565-3.653.26-5.219-1.043-1.304-3.392-2.087-4.957-.782Z" fill="#E72121"/><path d="M70.457 129.168c-3.132 6.263.26 13.57 8.09 10.438 1.565-.522 4.435-3.392 6.262-2.87 1.305.522 2.87 3.653 4.436 4.697 3.914 2.609 8.35 2.609 12.786 2.087 8.872-1.043 16.962-5.479 21.92-12.786 2.87-4.175 2.348-9.394 6.262-12.264 4.436-3.132 9.916-5.219 10.177-11.221 0-1.305-.783-2.87-1.826-3.392-3.915-1.827-5.741-1.044-9.655 1.043-3.393 1.827-7.829 3.654-10.438 6.524-2.61 2.61-2.871 5.741-3.653 9.133-1.044 3.392-3.132 6.002-5.741 8.089-2.871 2.088-6.263 4.437-9.655 5.219-4.697 1.305-6.002-1.304-9.394-3.653-2.088-1.566-4.436-2.348-7.046-1.566-2.61.783-8.35 7.046-8.35 1.305-.522-1.565-3.131-2.609-4.175-.783ZM165.438 71.5c6.002 7.567-4.436 13.308-8.35 18.005-3.914 4.958-3.131 8.872-1.044 14.613 1.827 4.958-1.305 7.045-5.219 9.655-2.609 1.565-5.219 3.392-7.567 5.479-4.958 4.436-9.133 10.438-10.438 17.223-.261 1.566.261 3.392 1.827 4.175.261.261.521.261.782.261 1.044.522 2.871 0 3.654-1.044 5.479-7.045 9.916-13.308 17.483-18.266 6.524-4.436 12.004-10.699 9.133-19.049-.522-1.566-2.087-3.392-2.087-4.958 0-2.349 2.087-3.653 3.653-4.958 2.609-2.349 4.958-4.697 6.523-8.09 2.871-6.523 1.044-13.308-4.958-16.96-3.131-1.828-5.218 1.826-3.392 3.913ZM70.456 151.61c-.261.261.782 2.87 1.043 3.392.783 1.305 2.088 2.348 3.393 3.131 3.131 1.566 6.784 1.305 9.394-1.044.782-.782 1.304-2.348.782-3.392-.782-2.609-2.87-2.609-5.218-2.087-2.088.522-2.349-.261-3.393-2.088-1.043-1.827-2.61-3.653-4.958-3.392-2.087 0-3.914 1.565-4.436 3.653-.26 2.088 1.827 3.131 3.392 1.827ZM68.628 162.048c.261 1.826.783 3.392 2.088 4.436 1.827 1.565 4.697 1.826 6.263-.261.783-1.044.783-2.349 0-3.393.522.783-.261-.522-.261-.522-.522-.782-1.566-1.304-2.349-1.565h-.26c-.262 0-.262 0 0 0 .26 0 .26 0 0 0h-.262c-.26-.261-.26-.261 0 0 .261.261.261.261 0 0l-.26-.261c.26.261.26.261 0 0-.522-1.044-1.827-1.566-3.132-1.305-1.044.522-2.087 1.566-1.827 2.871Z" fill="#E72121"/><path opacity=".28" d="M189.708 67.846c6.002 12.264 9.394 26.094 9.394 40.707 0 50.624-40.969 91.331-91.331 91.331-14.613 0-28.443-3.392-40.707-9.394 14.873 30.009 45.926 50.885 81.936 50.885 50.624 0 91.331-40.969 91.331-91.331.261-36.272-20.353-67.324-50.623-82.198Z" fill="#B70909"/><path opacity=".28" d="M210.322 81.676c7.307 13.308 11.743 28.443 11.743 44.622 0 50.623-40.968 91.331-91.331 91.331-23.485 0-44.883-8.872-61.061-23.485 15.657 27.921 45.404 46.709 79.849 46.709 50.624 0 91.331-40.969 91.331-91.331a92.439 92.439 0 0 0-30.531-67.846Z" fill="#B70909"/><path opacity=".92" d="M212.409 83.764c-16.44-15.918-38.881-25.573-63.41-25.573-9.133 0-18.005 1.305-26.356 3.914-.782.261-1.304.522-1.826.522-.522.26-1.044.26-1.566.522-1.044.26-2.087.783-2.87 1.044-.522.26-1.044.26-1.566.522-.783.26-1.566.782-2.609 1.043-.522.261-1.305.522-1.827.783s-1.305.522-1.827 1.044c-.522.26-1.043.522-1.304.783-1.044.522-1.827 1.044-2.871 1.566-.522.26-.783.521-1.304.782-1.044.522-2.088 1.305-2.871 1.827-.26.26-.783.522-1.044.783-.522.522-1.304.783-1.826 1.305-.261.26-.522.26-.522.521-1.044.783-2.088 1.566-3.392 2.349-.262.26-.522.522-.783.522l-3.132 2.348c-.26.261-.522.261-.782.522-1.827 1.566-3.654 3.392-5.22 4.958l-.26.261c-1.044 1.044-2.088 2.349-3.132 3.392l-.26.261c-1.044 1.305-2.088 2.349-3.132 3.654-12.004 15.395-19.049 34.966-19.049 55.842 0 28.443 13.047 54.016 33.662 70.716-17.222-16.7-27.921-39.924-27.921-65.758 0-12.004 2.348-23.224 6.523-33.662 6.524 4.697 14.352 7.306 22.964 7.306 21.919 0 39.924-17.744 39.924-39.924 0-7.568-2.087-14.613-5.74-20.615 8.872-2.87 18.266-4.436 27.921-4.436 21.658.26 41.751 8.09 57.408 20.876Z" fill="#FFF2C8"/><path d="M136.474 86.895c0 7.568 6.001 13.569 13.569 13.569 7.567 0 13.569-6.001 13.569-13.569 0-7.567-6.002-13.57-13.569-13.57-7.568 0-13.569 6.003-13.569 13.57ZM132.822 112.729c0 4.958 3.914 8.872 8.872 8.872s8.873-3.914 8.873-8.872-3.915-8.873-8.873-8.873c-4.697 0-8.872 4.176-8.872 8.873Z" fill="#FFF2C8"/><path opacity=".14" d="M199.363 73.326C185.011 63.67 167.527 58.19 149 58.19c-12.786 0-24.79 2.61-35.749 7.306-3.654 1.566-7.046 3.132-10.177 5.22-.261.26-.783.26-1.044.521l-2.349 1.566c-.522.26-.782.522-1.304.783l-2.349 1.565c-.522.261-.783.522-1.305.783-.782.522-1.304 1.044-2.087 1.566-.522.26-.783.522-1.305 1.044-.783.522-1.305 1.043-2.087 1.826-.522.261-.783.783-1.305 1.044-.783.522-1.305 1.305-2.088 1.827l-1.043 1.043-1.827 1.827-1.044 1.044c-.522.783-1.305 1.305-1.826 2.087-.261.261-.522.783-1.044 1.044-.522.783-1.305 1.305-1.827 2.088-.26.26-.522.783-.783 1.044-.522.782-1.043 1.565-1.826 2.348-.261.261-.522.783-.783 1.044l-1.566 2.348c-.26.261-.522.783-.522 1.044-.522.783-1.044 1.827-1.566 2.61-.26.261-.26.522-.521.782-.522 1.044-1.044 1.827-1.566 2.871 0 .261-.261.522-.261.522-6.524 12.786-10.438 27.138-10.438 42.273 0 33.401 17.745 62.366 44.361 78.545-24.79-16.44-41.23-44.361-41.23-76.457 0-13.831 3.132-26.878 8.612-38.62 5.74 4.436 13.047 7.045 20.875 7.045 18.267 0 33.141-14.091 33.141-31.835 0-7.829-2.871-14.874-7.829-20.354 11.221-4.958 23.746-7.567 36.793-7.567 17.484.26 33.663 4.957 47.232 13.308Z" fill="#FFF2C8"/><path d="M148.999 240.331c50.441 0 91.331-40.89 91.331-91.331 0-50.44-40.89-91.33-91.331-91.33-50.44 0-91.331 40.89-91.331 91.33 0 50.441 40.89 91.331 91.331 91.331Z" fill="url('#paint1_linear_664_587')"/><path opacity=".22" d="M57.668 127.342c0 11.481 2.87 22.441 7.828 31.835 9.394 5.741 20.354 8.872 32.097 8.872 34.705 0 62.627-28.182 62.627-62.627 0-18.005-7.568-34.184-19.832-45.665-4.436-1.044-9.133-1.305-14.091-1.305-37.837-.261-68.629 30.791-68.629 68.89Z" fill="#fff"/><path opacity=".19" d="M104.64 100.986c5.62 0 10.177-4.557 10.177-10.177 0-5.62-4.557-10.177-10.177-10.177-5.62 0-10.177 4.556-10.177 10.177 0 5.62 4.556 10.177 10.177 10.177Z" fill="#fff"/><path opacity=".19" d="M94.723 97.594c0 1.565 1.304 2.87 2.87 2.87s2.87-1.305 2.87-2.87c0-1.566-1.304-2.87-2.87-2.87-1.827 0-2.87 1.304-2.87 2.87ZM108.814 106.727a7.046 7.046 0 1 0 0-14.093 7.046 7.046 0 0 0 0 14.093Z" fill="#fff"/><path opacity=".17" d="M233.026 111.424c.261 10.959-1.305 21.919-5.219 32.879-16.962 48.014-69.673 73.065-117.426 56.103-24.79-8.872-43.317-26.877-53.233-49.058.783 37.055 24.268 71.499 61.323 84.547 48.014 16.961 100.464-8.09 117.425-56.104 8.09-23.224 6.524-47.492-2.87-68.367Z" fill="url('#paint2_linear_664_587')"/><path opacity=".17" d="M186.577 64.975c7.567 7.829 13.569 17.223 18.005 27.921 19.31 46.971-2.871 100.725-49.841 120.296-24.268 9.916-50.362 8.872-72.543-1.044 25.312 26.878 65.759 37.055 102.03 21.92 46.97-19.31 69.412-73.326 49.841-120.296-9.133-22.441-26.617-39.403-47.492-48.797Z" fill="url('#paint3_linear_664_587')"/><path opacity=".19" d="M223.63 96.55c9.394 14.352 14.612 31.313 14.612 49.84 0 50.624-40.968 91.331-91.33 91.331-30.792 0-57.93-15.134-74.37-38.359 16.179 25.051 44.622 41.752 76.718 41.752 50.624 0 91.331-40.969 91.331-91.331 0-19.832-6.263-38.098-16.961-53.233Z" fill="#fff"/><defs><linearGradient id="paint1_linear_664_587" x1="84.463" y1="84.363" x2="213.783" y2="213.683" gradientUnits="userSpaceOnUse"><stop stop-color="red"/><stop offset="1" stop-color="#930005"/></linearGradient><linearGradient id="paint2_linear_664_587" x1="140.35" y1="112.826" x2="170.586" y2="238.943" gradientUnits="userSpaceOnUse"><stop offset=".242" stop-color="#fff"/><stop offset=".92" stop-color="#fff"/><stop offset="1" stop-color="#fff"/></linearGradient><linearGradient id="paint3_linear_664_587" x1="118.591" y1="128.058" x2="225.414" y2="201.593" gradientUnits="userSpaceOnUse"><stop offset=".242" stop-color="#fff"/><stop offset=".92" stop-color="#fff"/><stop offset="1" stop-color="#fff"/></linearGradient><radialGradient id="paint0_radial_664_587" cx="0" cy="0" r="1" gradientUnits="userSpaceOnUse" gradientTransform="translate(149.124 149.023) scale(148.9)"><stop stop-color="red"/><stop offset=".146" stop-color="#D90000"/><stop offset=".997"/></radialGradient></defs></svg>