<svg width="298" height="298" fill="none" xmlns="http://www.w3.org/2000/svg"><path opacity=".54" d="M149 298c82.29 0 149-66.71 149-149S231.29 0 149 0 0 66.71 0 149s66.71 149 149 149Z" fill="url('#paint0_radial_664_239')"/><path opacity=".68" d="M148.999 240.532c50.607 0 91.632-40.981 91.632-91.532 0-50.552-41.025-91.533-91.632-91.533-50.608 0-91.633 40.98-91.633 91.533 0 50.551 41.025 91.532 91.633 91.532Z" fill="url('#paint1_linear_664_239')"/><path d="M148.999 240.532c50.607 0 91.632-40.981 91.632-91.532 0-50.552-41.025-91.533-91.632-91.533-50.608 0-91.633 40.98-91.633 91.533 0 50.551 41.025 91.532 91.633 91.532Z" fill="#DDC3A3"/><g opacity=".89" fill="#D8B58C"><path d="M232.326 141.199c0-1.56-.519-3.641-1.558-5.461-.519-2.08-1.557-3.38-3.374-3.9-1.298-.781-2.856-.52-4.673 1.04-2.076 1.82-3.374 5.46-3.374 8.841-1.038 4.421-.519 11.702 5.451 12.222 6.49.52 7.788-7.801 7.528-12.742ZM208.962 112.335c-.26 0-.519.26-.519.26-2.077.26-4.413 1.3-5.711 3.12-1.298 2.081-1.038 4.421.779 6.241 2.336 2.08 4.932 1.82 7.009.26 0 0 .259 0 .259-.26 1.558-1.04 2.596-2.86 3.115-4.681.779-3.12-1.557-5.98-4.932-4.94ZM138.097 161.222c-3.115 1.82-5.97 4.94-6.749 8.581-2.336 8.581 9.345 8.841 14.537 6.241 5.97-3.121 11.421-13.262 3.374-17.423-3.374-1.56-7.008-.26-10.123 2.081-.52.26-.779.26-1.039.52ZM160.939 171.883c2.077-.78 2.855-2.6 3.115-4.681.26-.78.26-1.82-.26-2.6 0-.52-.259-.78-.259-1.04.259-.78 0-1.82-.519-2.341-.779-.78-2.856-1.04-3.635 0-.519.521-.778 1.041-1.038 1.561-1.038 1.04-1.557 2.34-1.298 3.9 0 .26-.259.78-.259 1.04-.52 2.601 1.298 5.201 4.153 4.161ZM87.998 152.38c5.71-4.68 6.23-16.902 3.634-23.403-1.298-2.86-3.634-5.721-6.75-5.461-1.816.261-3.114 1.301-4.412 2.861-5.192 1.04-7.268 13.262-6.75 17.162.52 6.501 7.788 14.302 14.278 8.841ZM133.423 101.413c1.817.521 3.374-.26 4.672-1.3.779-.78 1.558-1.56 2.077-2.6 1.298-2.86 1.298-8.321-2.336-9.621-7.269-2.6-11.941 11.961-4.413 13.521ZM91.892 169.543c-3.893-2.86-7.787-2.86-10.123.78-2.596 1.3-2.596 8.321-2.596 10.401.519 5.461 4.153 10.662 9.864 10.922h2.077c2.076.52 3.893.26 5.191-1.56l.779-1.561a8.383 8.383 0 0 0 1.817-5.2c0-5.201-2.855-10.922-7.009-13.782ZM155.749 125.597c2.855 4.94 9.085 7.541 14.277 5.981 3.374-1.041 5.97-2.861 8.047-5.721 1.557-2.08 3.115-4.161 3.894-6.761 1.298-4.421.259-9.881-3.115-13.262-2.596-2.34-5.452-3.64-9.086-3.9-2.596 0-4.932.78-7.268 1.82-3.634 1.82-6.23 5.461-7.268 9.361-.26.78-.26 1.56-.26 2.34-1.038 3.121-1.038 7.021.779 10.142ZM192.09 173.703c-4.413 0-4.413 6.761 0 6.761 4.413.26 4.413-6.761 0-6.761ZM171.324 207.768c-2.077-1.82-4.154-3.12-7.009-3.641-1.298-.26-2.596-.52-3.894-.52-1.038 0-2.855.26-3.374.52-1.817.521-3.115 1.561-4.413 2.601-2.596 2.08-3.375 6.241-2.336 9.361.778 3.12 3.374 5.981 6.749 6.761h.519c.779.26 1.557.52 2.076.78 2.596.52 4.933.52 7.528 0 3.115-.52 5.711-3.64 6.49-6.501.779-3.12.259-7.281-2.336-9.361ZM144.587 214.529c0-.26-.26-.52-.26-1.041v-.26s0-.26-.259-.26c-.26-.26-.26-.52-.52-.78 0-.26-.259-.26-.259-.52l-.26-.26c-1.817-2.08-4.413-3.12-7.268-2.86-4.672.52-7.528 5.461-6.49 10.141 1.039 4.161 5.711 6.241 9.605 4.681.519-.26.779-.52 1.298-.78 1.298-.52 2.336-1.3 3.115-2.341 1.298-1.56 1.817-3.38 1.298-5.72ZM145.105 199.447c-2.336 0-4.413 1.82-4.153 4.16 0 2.341 1.817 4.161 4.153 4.161 2.336 0 4.413-1.82 4.153-4.161-.259-2.08-1.817-4.16-4.153-4.16ZM212.076 170.062c-6.489 0-6.489 10.142 0 10.142 6.49.26 6.49-10.142 0-10.142ZM210.001 183.844c-6.23 0-6.23 9.622 0 9.622 6.489 0 6.489-9.622 0-9.622ZM194.166 194.506c-3.375 0-3.375 5.201 0 5.201 3.374 0 3.374-5.201 0-5.201ZM202.474 169.543c-3.894 0-3.894 6.241 0 6.241 4.153 0 4.153-6.241 0-6.241ZM200.655 181.764c-2.077 0-3.894 1.82-3.634 3.641 0 2.08 1.557 3.64 3.634 3.64s3.894-1.82 3.634-3.64c0-2.081-1.557-3.641-3.634-3.641ZM179.109 184.365c-2.336 0-4.672 2.08-4.672 4.42s2.076 4.421 4.672 4.421c2.336 0 4.672-2.081 4.672-4.421-.259-2.34-2.076-4.42-4.672-4.42ZM201.694 138.599c-2.856 0-5.711 1.3-7.788 3.12-1.817 1.82-3.374 4.941-3.115 7.801 0 2.86 1.038 5.721 3.115 7.801s4.932 3.121 7.788 3.121c2.855 0 5.71-1.301 7.787-3.121 1.817-1.82 3.375-4.941 3.115-7.801 0-2.86-1.038-5.721-3.115-7.801-2.336-1.82-4.932-3.12-7.787-3.12ZM183.523 146.14c3.634 0 3.634-5.461 0-5.461-3.374 0-3.374 5.461 0 5.461ZM182.226 150.82c-8.307 0-8.307 12.742 0 12.742s8.307-12.742 0-12.742ZM201.695 104.534c2.076 1.3 4.413.52 6.23-1.04.519-.52 1.038-1.3 1.557-1.82.26-.26.26-.52.519-.78.26-.261.26-.781.52-1.04v-.26c.519-1.04.519-1.82.259-2.861-.519-1.3-1.817-2.34-3.115-2.08-1.817 0-3.374.52-4.413 1.82-.259.26-.259.52-.519.78s-.519.52-.779.52c-1.038.78-1.817 1.82-1.817 3.381-.519 1.3.26 2.6 1.558 3.38ZM190.531 91.012c1.298 1.3 3.375 1.3 4.413-.26 1.557-3.12 1.038-6.76-1.298-9.361-1.817-2.08-4.932-.78-5.711 1.56-.519 1.04-.519 2.34-.519 3.38 0 1.82.779 2.861 1.817 4.161.26.26.779.52 1.298.52ZM131.349 234.292c3.634 0 3.634-5.461 0-5.461s-3.634 5.461 0 5.461ZM117.59 229.091c3.634 0 3.634-5.461 0-5.461s-3.634 5.461 0 5.461ZM106.688 180.464c3.634 0 3.634-5.721 0-5.721-3.635 0-3.635 5.721 0 5.721ZM68.53 151.861c3.115 0 3.115-4.681 0-4.681s-3.115 4.681 0 4.681ZM223.76 109.735c2.076 0 4.153-1.821 3.893-3.901 0-2.08-1.817-3.9-3.893-3.9-2.077 0-4.154 1.82-3.894 3.9 0 2.08 1.817 3.901 3.894 3.901ZM217.269 117.276c3.115 0 3.115-4.681 0-4.681s-3.115 4.681 0 4.681ZM215.971 128.717c3.115 0 3.115-4.94 0-4.94-3.374-.26-3.374 4.94 0 4.94Z"/><path d="M195.982 140.939c3.375 0 3.375-5.201 0-5.201-3.374 0-3.374 5.201 0 5.201ZM172.362 161.482c2.336 0 4.672-2.081 4.672-4.681s-2.076-4.681-4.672-4.681c-2.336 0-4.673 2.081-4.673 4.681s2.077 4.681 4.673 4.681ZM165.353 172.663c2.855 0 5.451-2.6 5.451-5.461-.26-2.86-2.336-5.46-5.451-5.46-2.856 0-5.452 2.6-5.452 5.46.26 2.861 2.337 5.461 5.452 5.461Z"/><path d="M154.968 180.464c3.634 0 7.009-3.12 6.749-6.761-.259-3.64-2.855-6.761-6.749-6.761-3.634 0-7.008 3.121-6.749 6.761.26 3.641 3.115 6.761 6.749 6.761ZM151.075 235.071c3.634 0 7.008-3.12 6.749-6.761-.26-3.64-2.856-6.76-6.749-6.76-3.634 0-7.009 3.12-6.749 6.76.259 3.641 3.115 6.761 6.749 6.761ZM152.373 213.229c2.596 0 4.933-2.341 4.933-4.941 0-2.601-2.077-4.941-4.933-4.941-2.595 0-4.932 2.34-4.932 4.941.26 2.86 2.077 4.941 4.932 4.941ZM132.126 205.948c2.077 0 4.153-1.821 4.153-4.161s-1.817-4.161-4.153-4.161c-2.077 0-4.153 1.821-4.153 4.161.259 2.34 1.817 4.161 4.153 4.161ZM118.628 196.846c6.489 0 6.489-9.881 0-9.881-6.23 0-6.23 9.881 0 9.881ZM194.686 195.806c3.635 0 7.009-3.12 7.009-7.021-.259-3.64-3.115-7.021-7.009-7.021-3.634 0-7.008 3.121-7.008 7.021.259 3.901 3.115 7.021 7.008 7.021ZM177.813 180.465c2.596 0 5.192-2.341 4.932-4.941 0-2.6-2.336-4.941-4.932-4.941-2.596 0-5.191 2.341-4.932 4.941 0 2.6 2.077 4.941 4.932 4.941ZM102.794 135.738c2.077 0 4.153-1.82 4.153-4.16 0-2.081-1.817-4.161-4.153-4.161-2.077 0-4.153 1.82-4.153 4.161.26 2.34 1.817 4.16 4.153 4.16ZM66.712 132.358c3.115 0 3.115-4.941 0-4.941-3.375-.26-3.375 4.941 0 4.941ZM105.388 163.042c2.077 0 4.154-1.82 3.894-3.901 0-2.08-1.817-3.9-3.894-3.9-2.076 0-4.153 1.82-3.893 3.9 0 2.081 1.817 3.901 3.893 3.901ZM117.07 178.384c2.855 0 5.451-2.34 5.192-5.2 0-2.861-2.337-5.201-5.192-5.201s-5.451 2.34-5.192 5.201c.26 2.86 2.337 5.2 5.192 5.2Z"/></g><g opacity=".44" fill="#CE9B78"><path d="M166.65 132.877c-3.893.78-6.749 5.461-5.451 9.362.26.78.519 1.56.779 2.08 1.038 1.3 2.077 2.34 3.634 3.12 1.557.52 3.375.78 4.932.26 2.596-.78 4.673-2.86 5.192-5.721v.261-.261c.778-2.34 0-5.72-1.817-7.28-2.077-1.561-4.413-2.341-7.269-1.821ZM124.079 191.125c-2.596 0-4.932 1.3-6.23 3.64-1.038 1.821-1.038 3.901-.26 5.721.26.78.779 1.56 1.298 2.081.779.78 1.817 1.3 2.856 1.56 1.817.78 4.153.26 5.71-.78 1.298-.78 2.077-1.821 2.596-3.121.519-1.3.779-2.86.26-4.42-.779-2.601-3.115-4.681-6.23-4.681ZM110.32 196.586c-.259-3.64-2.855-6.501-6.489-6.501-3.375 0-6.75 3.121-6.49 6.501.26 3.641 2.856 6.501 6.49 6.501 3.374 0 6.749-3.12 6.489-6.501ZM78.133 173.443c4.413 0 4.413-6.761 0-6.761-4.153 0-4.413 6.761 0 6.761ZM93.19 201.007c-8.047 0-8.047 12.741 0 12.741 8.306 0 8.306-12.741 0-12.741ZM107.725 208.808c-3.115 0-3.115 4.68 0 4.68s3.115-4.68 0-4.68ZM169.765 181.504c-.779-.78-1.817-.78-2.855-1.04-.779 0-1.818 0-2.596.26-.26 0-.26.26-.519.26-3.375.52-5.971 4.16-4.933 7.801 1.298 4.421 7.009 5.981 10.384 2.6 1.038-1.04 2.076-2.34 2.336-3.64.26-1.3.26-2.6 0-3.901-.519-1.04-1.038-1.82-1.817-2.34ZM213.376 136.518c.519-1.3.779-2.861.26-4.161-1.039-3.12-4.413-5.46-7.528-4.42-1.298.52-2.596 1.04-3.375 2.08-3.115 3.38-2.077 8.581 2.077 10.401 1.817.781 3.893.781 5.711-.26 1.557-.78 2.336-2.08 2.855-3.64ZM194.425 112.075c-5.97 0-5.97 9.361 0 9.361 5.97-.26 5.97-9.361 0-9.361ZM178.852 108.174c3.374 0 6.489-2.86 6.489-6.501-.259-3.38-2.855-6.5-6.489-6.5-3.375 0-6.49 2.86-6.49 6.5.26 3.641 2.856 6.501 6.49 6.501ZM112.659 163.042c-2.336-1.821-4.932-2.861-8.047-2.081-2.596.78-5.192 3.121-5.711 5.721-1.038 4.161-.52 8.061 1.557 11.702 1.039 1.82 2.596 3.64 4.673 4.94 4.153 3.901 10.902 4.941 14.796 0 4.932-6.761-1.817-15.862-7.268-20.282ZM123.301 216.608c-1.557-2.08-4.412-3.38-6.749-3.38-2.855 0-5.451 1.56-7.008 3.901-1.558 2.34-1.558 5.46-.52 8.061 1.298 3.12 4.413 4.94 7.788 4.94h1.038c2.077 1.04 4.154 1.3 6.49 0 3.634-2.08 4.153-6.761 2.076-10.141-.519-1.3-1.817-2.34-3.115-3.381ZM86.958 102.194c.779-.78 1.298-1.56 1.558-2.6.26-.78.26-1.82-.26-2.6-.779-1.301-2.077-1.561-3.374-1.301-1.039.26-2.077.52-2.856 1.56-1.298 1.3-1.557 3.641 0 4.941.26.26.779.52 1.038.78.52.78 1.558 1.04 2.596.52l.52-.52c0-.26.259-.52.778-.78ZM65.673 121.696c.26 1.56 1.038 2.6 2.076 3.381.52.26.779.78 1.298 1.04 3.894 2.34 8.307.26 10.903-3.121.519-.78 1.038-1.56 1.297-2.34 1.298-1.82 2.077-3.64 1.558-5.721-.52-4.42-5.451-6.501-9.345-4.94-2.855 1.04-5.192 3.12-6.75 5.72-1.297 1.821-1.557 3.901-1.037 5.981ZM90.075 120.655c4.932 0 4.932-7.54 0-7.54s-4.932 7.54 0 7.54ZM99.158 151.86c1.298 2.34 3.375 3.901 5.97 4.421 2.337.52 4.413.26 6.49-.78 1.298-.781 2.596-2.081 3.375-3.381 1.297-2.34 1.817-4.941 1.038-7.801-.779-2.6-2.856-4.941-5.451-5.981-2.337-1.04-4.932-1.04-7.528 0-2.596 1.04-4.154 3.641-4.413 6.241-.779 2.34-.779 4.941.519 7.281ZM114.214 159.401c0 2.6 2.077 4.68 4.673 4.68 2.336 0 4.672-2.08 4.672-4.68 0-2.6-2.077-4.681-4.672-4.681-2.596.26-4.932 2.341-4.673 4.681ZM125.378 172.663c4.153 0 4.413-6.761 0-6.761s-4.413 6.761 0 6.761ZM73.201 161.481c1.817-3.38 1.039-7.801-1.557-10.401-1.558-1.561-3.894-2.081-6.23-1.561-2.855 1.041-4.153 3.381-4.413 6.241 0 1.3.26 2.341 1.038 3.121 0 .52 0 .78.26 1.3 1.298 5.201 8.566 5.721 10.902 1.3ZM95.266 163.042c5.191 0 5.191-8.062 0-8.062-5.192.261-5.192 8.062 0 8.062ZM81.508 188.525c-2.077-1.04-4.672-1.04-6.75.26-1.037.78-1.816 1.82-2.076 2.861-.519 1.04-.779 2.34-.26 3.38.52 1.56 1.299 3.121 2.856 3.901.779.52 1.817.78 2.596 1.04 1.298.26 2.336.26 3.634-.26 1.038-.52 2.077-1.3 2.596-2.341.779-1.56 1.298-3.38.519-5.2-.52-1.3-1.558-2.601-3.115-3.641ZM228.431 167.982c2.596 0 2.596-4.161 0-4.161-2.596.26-2.596 4.161 0 4.161ZM226.094 129.237c10.383 0 10.383-16.122 0-16.122s-10.383 16.122 0 16.122ZM227.653 135.737c0 2.341 1.817 4.421 4.413 4.421 2.336 0 4.412-2.08 4.412-4.421 0-2.34-1.817-4.42-4.412-4.42-2.337 0-4.673 2.08-4.413 4.42Z"/><path d="M218.568 113.115c5.192 0 5.192-8.061 0-8.061-4.932 0-4.932 8.061 0 8.061ZM177.293 116.495c0-.26 0-.26-.259-.52v-.26c-.26-.26-.26-.52-.779-.78-1.038-1.04-2.077-1.3-3.375-1.3-1.557-.26-3.115 1.04-4.153 2.34-.779 1.301-.779 2.861-.519 4.421.519 2.86 3.894 4.161 6.49 3.12 1.297-.52 2.076-1.3 2.595-2.6.26-.52.26-.78.26-1.3.519-.78.26-2.08-.26-3.121ZM179.63 186.965c-2.856 0-2.856 4.42 0 4.42 3.115.26 3.115-4.42 0-4.42ZM212.336 174.223c-2.856 0-2.856 4.42 0 4.42 2.855 0 2.855-4.42 0-4.42ZM200.395 149.52c-5.971 0-5.971 9.361 0 9.361 5.97 0 5.97-9.361 0-9.361ZM197.8 149.52c3.115 0 3.115-4.681 0-4.681-3.115-.26-3.115 4.681 0 4.681ZM183.524 156.02c-2.596 0-2.596 4.161 0 4.161 2.855 0 2.855-4.161 0-4.161ZM236.998 157.321c-.26-.52-.26-.78-.519-1.3-1.558-2.081-4.673-2.341-6.49-.52-1.298 1.3-1.557 3.12-1.038 4.68 0 .26.259.52.519 1.04.26.261.519.781.779 1.041.519.52 1.298 1.04 2.076 1.3 2.337.52 4.932-1.04 5.192-3.381.26-1.04 0-2.08-.519-2.86ZM223.498 167.722c1.817-2.34 2.077-5.461.779-7.801-1.558-2.6-4.413-3.9-7.528-3.12-.519.26-1.298.52-1.817.78-.779.26-1.558.78-2.077 1.3-2.855 3.12-2.076 8.321 1.558 10.401 3.115 1.821 6.749 1.301 9.085-1.56ZM226.873 175.523c-1.558-.26-2.855 0-4.153.52-.779.521-1.558 1.041-2.077 2.081-.779 1.04-1.038 2.08-1.298 3.38-.26 1.56.779 3.641 1.817 4.681 1.298 1.3 2.856 1.82 4.673 1.56 1.817-.26 3.115-1.04 4.153-2.6.779-1.04 1.038-2.341 1.038-3.641 0-1.3-.259-2.34-1.038-3.64-.26-.78-2.077-2.081-3.115-2.341Z"/></g><g opacity=".23"><mask id="mask0_664_239" style="mask-type:luminance" maskUnits="userSpaceOnUse" x="57" y="57" width="184" height="184"><path d="M149 240.532c50.607 0 91.632-40.981 91.632-91.532 0-50.552-41.025-91.533-91.632-91.533-50.608 0-91.633 40.98-91.633 91.533 0 50.551 41.025 91.532 91.633 91.532Z" fill="#fff"/></mask><g mask="url('#mask0_664_239')" fill="#C87E56"><path d="M130.311 225.97c-.259.52-.259 1.04-.519 1.56-.259-.26-.519-.78-1.038-1.04-2.336-2.08-5.451-3.641-8.566-3.641-.779 0-1.558 0-2.336.26-.26-1.3-1.039-2.6-2.856-2.6-2.855 0-3.634 3.38-2.336 5.201-.26.26-.779.52-1.038 1.04-1.558 1.56-2.596 3.38-3.115 5.461-.52 2.08-.52 4.42 0 6.5v.26c.519 1.041.778 1.821 1.297 2.861.779 1.3 1.818 2.6 3.115 3.38.779.78 1.558 1.301 2.596 1.561 1.558.78 3.115 1.04 4.673 1.04 2.076 0 4.153-.78 6.23-1.561 1.298-.78 2.596-1.82 3.374-3.12 1.039-1.3 1.817-2.6 2.077-4.161v-.26c.519-1.82.519-3.38.26-5.2.259 0 .259.26.519.26 1.298.52 2.595.52 3.893 0 1.298-.26 2.337-1.04 3.115-2.341 1.039-2.08.779-4.68-1.038-6.24-2.077-2.861-6.749-2.341-8.307.78ZM84.103 131.058c-1.298-.26-2.596-.26-3.634 0-2.855.78-4.413 3.38-4.413 5.98-.26.78-.519 1.821-.519 2.601 0 3.12 1.817 5.981 4.932 6.761 2.856.78 5.451 0 7.269-2.341 1.297-1.56 1.557-3.38 1.297-5.46 0-2.081-.26-4.161-1.817-5.721-.26-.26-.779-.52-1.038-.78 1.038.78 1.038.78.26.26-1.039-.78-1.558-1.04-2.337-1.3ZM117.59 79.57c1.817 0 3.375-1.56 3.375-3.12 0-1.82-1.298-3.12-3.375-3.12-1.817 0-3.374 1.56-3.374 3.12s1.557 3.12 3.374 3.12ZM103.313 92.572c.26.26.779.26 1.298.52 2.077.52 4.413-.26 5.97-1.56 2.077-1.56 3.634-3.38 3.634-5.98 0-3.381-2.855-5.982-5.97-5.982-1.298 0-2.596.26-3.634.78-.779.26-1.558.78-2.077 1.56-.519.26-1.038.78-1.557 1.3-1.558 1.561-2.077 3.641-1.558 5.722.52 1.56 2.077 3.12 3.894 3.64ZM117.072 82.95c-.26 1.3 0 2.6 1.298 3.641 1.557 1.3 3.894.78 4.932-1.04 1.038-1.56.259-3.64-1.298-4.68-1.558-1.04-4.413 0-4.932 2.08ZM176.516 87.112c2.596.78 5.192.52 7.528-.78 2.336-1.3 3.894-4.161 3.634-7.022 0-2.6-1.038-4.94-3.115-7.02-1.817-2.08-4.413-3.641-7.268-4.421a7.396 7.396 0 0 0-3.375 0c-6.229.52-10.642 7.02-7.008 12.742 2.076 3.64 5.97 5.46 9.604 6.5ZM199.618 90.752c.778.52 1.817 1.04 2.595 1.3 2.077.52 3.894 0 5.711-1.3 1.298-1.04 1.817-3.12 1.298-4.68 0-.521-.26-.781-.519-1.301-.519-1.04-1.298-1.56-2.077-2.08-.259-.26-.519-.78-1.038-1.04-.519-.52-1.038-.78-1.558-1.3h-.259s-.26-.26-.519-.26c-.26-.26-.52-.26-.52-.52-2.076-1.301-4.672-.52-5.71 1.3-1.039 1.04-1.817 3.12-1.039 4.68.52 2.08 1.817 3.9 3.635 5.2ZM196.762 97.253c1.039 1.04 2.596.78 3.375-.52.779-1.04 0-2.86-1.298-3.12-.26 0-.519-.26-.779-.26-1.817-.52-3.115 1.82-1.817 3.12 0 .52.26.78.519.78ZM221.943 163.822c2.337-1.041 3.894-3.641 4.673-5.981.779-1.82.779-4.421 0-6.241-1.038-3.12-3.634-5.721-7.009-5.721-2.855 0-5.711 1.56-7.009 4.161-.519 1.56-1.038 2.86-.778 4.42a17.438 17.438 0 0 0 0 5.201c.519 2.08 2.076 3.64 3.893 4.421 2.337 1.04 4.154.52 6.23-.26ZM187.938 128.457c-.779 3.381 0 6.761 3.115 8.581 3.634 2.08 8.566 0 9.345-4.16.26-.52.26-1.301.26-1.821s.259-.78.259-1.3c.779-1.3.779-3.38 0-4.42-1.298-1.821-3.115-3.121-5.711-2.861-1.038.26-2.076.52-2.855 1.3-2.077 1.041-3.894 2.341-4.413 4.681ZM199.617 106.354c-4.932 0-4.932 7.541 0 7.541s4.932-7.541 0-7.541ZM104.093 171.883c-1.817-.78-3.894-1.56-5.71-1.56-3.116.26-5.971 2.08-6.75 5.2-.519 2.341.26 4.941 2.337 6.241.26.78.778 1.56 1.297 2.081 3.635 3.38 9.865 3.64 12.72-.781 2.336-3.9.26-9.101-3.894-11.181ZM90.334 177.604c-.26-.78-.52-1.301-1.039-1.821 0 0 0-.26-.26-.26l-.259-.26c-.779-.78-1.817-1.3-2.855-1.3-1.039 0-1.558.26-2.596.78-2.077 1.04-2.337 3.381-2.077 5.201v.52c.779 2.08 2.596 3.641 4.932 3.38 2.336-.26 3.894-2.08 3.894-4.42-.26 1.04-.26 1.04 0 .26s.26-1.56.26-2.08ZM72.682 185.405c1.298-.521 2.337-1.561 2.856-3.121.519-1.3.519-2.86.26-4.16-.26-1.301-1.039-2.601-1.818-3.641-.779-.78-2.336-1.3-3.374-1.3-1.039 0-2.596.52-3.375 1.3-.779.78-1.298 2.08-1.298 3.38v.261c-.26 1.3-.26 2.6.26 3.9.519 1.3 1.557 2.34 2.596 3.12 1.038 1.041 2.595.781 3.893.261ZM133.944 198.406c.26 0 .519.26.779.26 3.634 1.04 7.009-1.56 7.009-5.46 0-2.601-1.298-4.941-2.856-7.021-1.298-1.561-2.855-3.121-4.153-4.421-3.375-3.38-8.826-1.3-10.124 3.12-.778 2.861.26 5.981 1.558 8.582 1.557 2.34 4.672 5.2 7.787 4.94ZM143.808 188.265c1.817.52 3.375-1.04 3.115-3.12-.26-1.041-.779-1.821-1.817-2.341-2.336-1.3-4.932 1.3-3.634 3.641.519 1.04 1.298 1.56 2.336 1.82Z"/><path d="M147.702 188.005c-4.413 0-4.413 7.021 0 7.021s4.413-7.021 0-7.021ZM218.05 195.806c-4.413-3.38-10.124 1.82-12.2 5.461-.52.78-.52 1.56-.779 2.6-1.558 2.08-1.817 4.681.259 6.761 5.192 5.201 11.941-4.941 14.277-8.841 1.298-2.08.52-4.421-1.557-5.981ZM147.703 75.67c3.635 0 3.894-5.72 0-5.72-3.893-.26-3.893 5.72 0 5.72ZM149.519 80.35c2.077 0 2.077-3.12 0-3.12-2.076-.26-2.076 3.12 0 3.12ZM153.933 77.23c3.115 0 3.115-4.94 0-4.94s-3.115 4.94 0 4.94ZM144.588 229.091c-1.038-.26-1.817 0-2.336.78-.779 1.04-.52 2.6.519 3.12 1.038.52 2.336.26 3.115-.78.779-1.04.259-2.86-1.298-3.12ZM143.807 221.55c-1.817 0-3.374 1.56-3.374 3.12 0 1.82 1.298 3.12 3.374 3.12 1.817 0 3.375-1.56 3.375-3.12-.26-1.82-1.558-3.12-3.375-3.12ZM152.116 229.611c0-1.04-1.038-2.08-2.336-1.82h-.259c-1.558.52-1.558 2.86 0 3.38h.259c1.039.52 2.336-.52 2.336-1.56ZM65.414 139.898c2.856 3.121 7.528.78 8.307-2.86.26-.78.26-1.56.26-2.34v-1.041c0-.26-.26-1.56 0-1.04 0-1.3-.26-2.08-1.298-3.12-.78-.78-2.077-1.3-3.115-1.3-2.077 0-3.894 1.3-4.932 2.86-1.039 1.82-1.039 3.641-.52 5.461 0 1.04.26 2.34 1.298 3.38ZM77.356 120.916c-.52 0-1.038.26-1.298.52-.52.26-1.038.78-1.557 1.3-.52 1.3-.78 2.34-.26 3.641.52 1.3 1.558 1.82 2.596 2.34 1.298.52 2.596 0 3.374-1.04.26-.26.52-.52.78-.52 1.297-1.04 1.557-3.381.518-4.681-.519-1.3-2.336-1.82-4.153-1.56ZM72.423 116.755c-3.115 0-3.115 4.681 0 4.681 2.856.26 2.856-4.681 0-4.681ZM191.83 146.399c-3.634 0-3.634 5.721 0 5.721s3.634-5.721 0-5.721ZM212.598 116.755c-4.413 0-4.413 6.761 0 6.761s4.413-6.761 0-6.761ZM213.115 114.415c11.422 0 11.422-17.942 0-17.942-11.681 0-11.681 17.942 0 17.942ZM187.938 100.373c-3.374 1.301-3.115 7.281 1.298 7.281 4.672 0 4.672-7.021.519-7.541 4.153-1.3 3.634-8.58-1.298-8.58-5.711.26-5.97 8.58-.519 8.84ZM205.07 184.624c14.277 0 14.277-22.363 0-22.363s-14.277 22.363 0 22.363ZM198.84 190.085c-2.596 0-3.894 1.56-4.672 3.381-.779-.78-1.818-1.301-3.375-1.301-6.49 0-6.49 10.142 0 10.142 2.596 0 4.153-1.56 4.672-3.381.779.781 1.817 1.041 3.115 1.041 6.75.26 6.75-9.882.26-9.882Z"/><path d="M220.905 183.064c-8.047 0-8.047 12.742 0 12.742s8.047-12.742 0-12.742ZM239.854 154.46c-9.605 0-9.605 15.082 0 15.082 9.604 0 9.604-15.082 0-15.082ZM229.73 169.282c-8.047 0-8.047 12.482 0 12.482s8.047-12.482 0-12.482ZM165.354 226.23c-1.558 0-3.115.26-4.673.78 2.596-2.08 2.336-7.281-1.298-8.321 2.077-.52 3.894-2.6 3.894-4.941 0-2.6-2.336-4.94-4.932-4.94-2.596 0-5.192 2.34-4.932 4.94 0 2.341 1.557 4.161 3.634 4.681-4.672 1.3-4.413 9.361 1.298 9.361h1.038c-1.298.52-2.336 1.56-3.374 2.34-1.298 1.301-2.336 2.861-2.856 4.421a12.116 12.116 0 0 0-1.298 5.461c.26 3.64 1.298 7.281 4.154 9.881 2.855 2.6 6.23 4.161 9.864 4.161 3.634 0 7.268-1.561 9.864-4.161 1.298-1.3 2.336-2.86 2.855-4.42a12.106 12.106 0 0 0 1.298-5.461c-.259-3.641-1.298-7.281-4.153-9.882-3.115-2.34-6.49-3.9-10.383-3.9ZM92.152 204.647h-.519c1.817-1.82 3.115-4.42 2.855-6.761 0-2.6-1.038-4.94-2.855-6.76-1.817-1.821-4.153-2.861-6.75-2.861-2.335 0-4.931 1.04-6.748 2.861-1.558 1.56-2.856 4.42-2.856 6.76v.521c-7.268 0-7.268 11.441 0 11.441 2.596 0 4.413-1.56 5.192-3.38 1.038.52 1.817.78 2.855 1.04-10.383 7.281-7.527 27.823 8.567 27.823 19.987 0 19.987-30.684.26-30.684ZM67.491 170.583c.52 1.04 1.558 2.08 3.375 2.08 4.932 0 4.932-7.801 0-7.801h-.26c.52-1.3.52-2.6.52-3.901v-1.3c.778.78 1.817 1.56 3.374 1.56 5.71 0 5.71-8.841 0-8.841-2.336 0-3.894 1.56-4.153 3.381-.779-1.821-1.817-3.641-3.115-4.941-2.856-2.6-6.23-4.161-10.124-4.161-3.634 0-7.528 1.561-10.124 4.161-1.297 1.3-2.336 2.86-2.855 4.681-.779 1.82-1.298 3.64-1.298 5.46.26 3.641 1.298 7.541 4.153 10.142 2.856 2.6 6.23 4.16 10.124 4.16 3.634 0 7.528-1.56 10.124-4.16-.26-.26 0-.26.26-.52ZM88.516 165.382c0-2.861-2.336-5.201-5.191-5.201-2.856 0-5.451 2.34-5.192 5.201 0 2.86 2.336 5.201 5.192 5.201 2.596 0 5.191-2.341 5.191-5.201ZM70.347 189.305c-4.153 0-4.153 6.501 0 6.501 4.154 0 4.154-6.501 0-6.501ZM57.888 140.418c1.557 0 2.855-1.3 2.855-2.86 0-1.56-1.298-2.86-2.855-2.86-1.558 0-2.856 1.3-2.856 2.86.26 1.56 1.298 2.86 2.856 2.86ZM90.335 131.578c2.856 1.56 6.23 1.04 8.567-1.04h.26c1.297-1.041 2.076-3.381 2.076-4.941 0-1.82-.779-3.641-2.077-4.941h-.26c-2.076-1.82-4.931-2.6-7.787-1.56-2.596 1.04-4.413 3.641-4.413 6.501.26 2.34 1.558 4.68 3.634 5.981ZM73.461 111.035c3.375 0 6.49-2.861 6.49-6.501-.26-3.381-2.856-6.501-6.49-6.501-3.374 0-6.49 2.86-6.49 6.501.26 3.64 3.116 6.501 6.49 6.501ZM229.729 123.776c-4.413 2.081-6.489 6.241-6.749 10.922-.779-.52-1.557-.78-2.596-.78-6.23 0-6.23 9.621 0 9.621 1.817 0 3.375-1.04 3.894-2.34 1.817 3.64 5.192 6.24 10.383 6.24 13.758 0 15.575-18.982 5.192-23.663 7.528-4.68 5.97-18.982-5.192-18.982-10.642-.26-12.46 14.302-4.932 18.982ZM226.615 102.713c3.634 0 3.893-5.72 0-5.72-3.894 0-3.894 5.72 0 5.72ZM198.061 150.04c.259 3.64 2.855 6.501 6.489 6.501 3.375 0 6.749-2.861 6.49-6.501-.26-3.641-2.856-6.501-6.49-6.501-3.374.26-6.489 3.12-6.489 6.501Z"/><path d="M143.549 221.29c12.46 0 12.46-19.243 0-19.243-12.46-.26-12.46 19.243 0 19.243ZM170.546 222.59c7.528 0 7.528-11.442 0-11.442-7.528-.26-7.528 11.442 0 11.442ZM186.38 219.469c-7.268 0-7.268 11.442 0 11.442 7.528-.26 7.528-11.442 0-11.442ZM116.292 197.886c-10.643 0-10.643 16.382 0 16.382s10.643-16.382 0-16.382ZM178.852 166.682c-2.336 0-4.932 1.04-6.49 2.861-1.557 1.56-2.855 4.16-2.855 6.5 0 2.341.779 4.941 2.855 6.501 1.817 1.56 4.154 2.861 6.49 2.861 2.336 0 4.932-1.04 6.489-2.861 1.558-1.56 2.856-4.16 2.856-6.501 0-2.34-.779-4.94-2.856-6.5-1.817-1.821-3.893-2.861-6.489-2.861ZM153.153 194.506c.26 3.38 1.298 6.761 3.634 8.841 2.337 2.34 5.452 3.641 8.826 3.641 3.115 0 6.49-1.301 8.826-3.641 1.298-1.04 2.077-2.6 2.596-4.161.779-1.56 1.038-3.12 1.038-4.94-.259-3.381-1.298-6.761-3.634-8.841-2.336-2.341-5.451-3.641-8.826-3.641-3.115 0-6.489 1.3-8.826 3.641-1.297 1.04-2.076 2.6-2.595 4.16-.52 1.82-1.039 3.381-1.039 4.941ZM180.149 201.527c-7.268 0-7.268 11.182 0 11.182 7.269 0 7.269-11.182 0-11.182Z"/></g></g><path opacity=".6" d="M214.153 84.771c7.787 13.522 12.46 29.384 12.46 46.026 0 50.707-41.014 91.532-91.633 91.532-25.439 0-48.542-10.401-65.155-27.303 15.835 27.303 45.427 45.506 79.173 45.506 50.618 0 91.632-41.086 91.632-91.532 0-24.964-10.124-47.847-26.477-64.229Z" fill="#DDC3A3"/><path opacity=".25" d="M208.182 79.05c4.413 10.662 6.749 22.363 6.749 34.585 0 50.707-41.014 91.532-91.632 91.532-22.584 0-43.35-8.321-59.185-21.843 13.758 33.545 46.465 56.948 84.884 56.948 50.618 0 91.632-41.086 91.632-91.532 0-27.824-12.72-52.787-32.448-69.69Z" fill="#DDC3A3"/><path opacity=".27" d="M225.835 99.073c-16.354-24.963-44.389-41.346-76.317-41.606h-5.711c-1.298 0-2.596.26-3.894.26h-.259c-1.298.26-2.596.26-3.894.52-.26 0-.779 0-1.038.26-1.039.26-2.337.26-3.375.52h-.519l-3.894.78c-.519 0-.779.26-1.298.26l-3.115.78c-.259 0-.519.26-.778.26-1.298.26-2.337.78-3.375 1.301-.519.26-.779.26-1.298.52-.779.26-1.557.52-2.596 1.04-.519.26-.779.26-1.298.52-1.038.52-2.076 1.04-3.115 1.3l-1.557.78c-.779.26-1.298.78-1.817 1.04l-1.558.78c-1.038.52-1.817 1.04-2.855 1.561-.519.26-1.038.78-1.817 1.04-.52.26-1.038.52-1.298.78-1.298.78-2.336 1.56-3.634 2.6-.26 0-.26.26-.52.26-.519.52-1.297 1.04-1.816 1.56-.26.26-.52.52-1.039.78a57.078 57.078 0 0 0-5.97 5.202l-.52.52c-2.076 1.82-3.893 3.9-5.71 5.98l-.26.26c-1.817 2.08-3.634 4.421-5.451 6.761-10.643 15.082-16.873 33.285-16.873 52.788 0 20.542 6.75 39.525 18.17 54.867-9.344-14.302-14.795-31.464-14.795-49.927 0-16.122 4.153-31.464 11.421-44.466 8.307 13.262 22.844 22.103 39.716 22.103 25.699 0 46.466-20.803 46.466-46.546 0-8.321-2.077-15.862-5.971-22.623 30.112.52 56.589 14.822 73.462 37.185Z" fill="#DDC3A3"/><path opacity=".68" d="M223.758 95.953c9.865 14.562 15.575 32.244 15.575 50.966 0 50.707-41.014 91.533-91.632 91.533-30.89 0-58.146-15.342-74.76-38.745C89.295 224.15 117.33 240.272 149 240.272c50.618 0 91.632-41.085 91.632-91.532 0-19.503-6.23-37.705-16.873-52.787Z" fill="#DDC3A3"/><path opacity=".46" d="M57.625 144.319c13.498 18.983 35.563 31.464 60.483 31.464 40.754 0 73.98-33.284 73.98-74.109 0-14.042-3.893-27.304-10.902-38.746a89.527 89.527 0 0 0-32.188-5.98c-49.061.52-89.037 39.005-91.373 87.371Z" fill="#DDC3A3"/><path opacity=".68" d="M125.378 141.719c21.935 0 39.716-17.813 39.716-39.785 0-21.973-17.781-39.786-39.716-39.786-21.934 0-39.716 17.813-39.716 39.786 0 21.972 17.782 39.785 39.716 39.785Z" fill="url('#paint2_radial_664_239')"/><g opacity=".42"><path d="M155.486 113.115c5.711 16.382 21.286 14.822 19.988 31.464-1.298 16.642-9.085 34.584 6.49 39.005 15.575 4.421 31.15 4.421 48.022-7.801 3.375-2.34 6.49-7.541 9.864-14.302.52-4.161.779-8.321.779-12.742 0-43.686-30.63-80.35-71.644-89.452-10.384 17.163-18.171 41.086-13.499 53.828Z" fill="url('#paint3_linear_664_239')"/><path d="M153.151 204.647c-6.749-28.084-40.235-35.105-58.146-31.465-14.796 3.121-26.997-7.281-37.38-17.942 3.115 47.846 42.831 85.551 91.373 85.551 23.622 0 45.167-9.101 61.521-23.663-20.248 3.641-52.955 6.761-57.368-12.481Z" fill="url('#paint4_linear_664_239')"/></g><path opacity=".49" d="M232.325 110.774c.26 10.922-1.298 21.843-5.191 32.765-16.873 47.846-69.309 72.81-117.072 55.907-24.66-8.841-43.09-26.783-52.955-48.886.78 36.925 24.142 71.249 61.002 84.251 47.763 16.902 100.199-8.061 117.072-55.907 8.306-23.144 6.489-47.327-2.856-68.13Z" fill="url('#paint5_linear_664_239')"/><path opacity=".49" d="M186.12 64.749c7.528 7.8 13.498 17.162 17.911 27.823 19.209 46.807-2.855 100.374-49.58 119.876-24.141 9.882-50.099 8.842-72.164-1.04 25.439 26.784 65.415 36.925 101.756 21.843 46.725-19.242 69.049-73.07 49.58-119.876-9.345-22.623-26.737-39.525-47.503-48.626Z" fill="url('#paint6_linear_664_239')"/><defs><linearGradient id="paint1_linear_664_239" x1="84.265" y1="84.178" x2="213.953" y2="213.64" gradientUnits="userSpaceOnUse"><stop stop-color="red"/><stop offset="1" stop-color="#957635"/></linearGradient><linearGradient id="paint3_linear_664_239" x1="154.084" y1="123.049" x2="240.583" y2="123.049" gradientUnits="userSpaceOnUse"><stop stop-color="red"/><stop offset="1" stop-color="#957635"/></linearGradient><linearGradient id="paint4_linear_664_239" x1="57.626" y1="197.867" x2="210.478" y2="197.867" gradientUnits="userSpaceOnUse"><stop stop-color="red"/><stop offset="1" stop-color="#957635"/></linearGradient><linearGradient id="paint5_linear_664_239" x1="140.168" y1="112.257" x2="170.352" y2="237.939" gradientUnits="userSpaceOnUse"><stop offset=".242" stop-color="#fff"/><stop offset=".92" stop-color="#fff"/><stop offset="1" stop-color="#fff"/></linearGradient><linearGradient id="paint6_linear_664_239" x1="118.471" y1="127.419" x2="224.964" y2="200.599" gradientUnits="userSpaceOnUse"><stop offset=".242" stop-color="#fff"/><stop offset=".92" stop-color="#fff"/><stop offset="1" stop-color="#fff"/></linearGradient><radialGradient id="paint0_radial_664_239" cx="0" cy="0" r="1" gradientUnits="userSpaceOnUse" gradientTransform="matrix(148.938 0 0 149.049 148.904 149.023)"><stop stop-color="#ACFFFB"/><stop offset=".167" stop-color="#7FBDBA"/><stop offset=".332" stop-color="#588381"/><stop offset=".489" stop-color="#395453"/><stop offset=".638" stop-color="#20302F"/><stop offset=".776" stop-color="#0E1515"/><stop offset=".9" stop-color="#040605"/><stop offset=".997"/></radialGradient><radialGradient id="paint2_radial_664_239" cx="0" cy="0" r="1" gradientUnits="userSpaceOnUse" gradientTransform="matrix(39.6783 0 0 39.7079 125.366 101.874)"><stop stop-color="#ECECEC"/><stop offset=".469" stop-color="#F1F1F1"/><stop offset="1" stop-color="#fff"/></radialGradient></defs></svg>