<svg width="298" height="298" fill="none" xmlns="http://www.w3.org/2000/svg"><path opacity=".54" d="M149 298c82.29 0 149-66.71 149-149S231.29 0 149 0 0 66.71 0 149s66.71 149 149 149Z" fill="url('#paint0_radial_664_955')"/><path d="M214.075 214.189c35.972-35.972 35.972-94.295 0-130.267-35.972-35.972-94.295-35.972-130.267 0-35.973 35.972-35.973 94.295 0 130.267 35.972 35.973 94.295 35.973 130.267 0Z" fill="#4FB3FF"/><path d="M241.114 149c0-40.968-26.878-75.674-63.932-87.678 1.565 13.83 2.348 35.228-2.871 46.71-7.828 17.744-15.656 35.749-34.444 30.53-19.05-4.958-30.531-9.916-45.666 0-8.611 5.741-24.79 3.914-36.271-2.609-.522 4.175-1.044 8.611-1.044 13.047 0 50.884 41.23 92.114 92.114 92.114 50.884 0 92.114-41.23 92.114-92.114Z" fill="#41AAF9"/><path d="M209.017 79.067c-7.828 10.96-20.093 28.704-25.573 44.1-8.872 24.007-26.094 41.751-47.753 35.749-20.614-5.741-60.8-6.001-76.196 9.916 8.872 41.491 45.927 72.543 90.026 72.543 50.885 0 92.114-41.229 92.114-92.114-.522-28.182-13.047-53.233-32.618-70.194Z" fill="#2BA1F9"/><path d="M149 241.114c50.884 0 92.114-41.23 92.114-92.114 0-23.485-8.872-44.883-23.224-61.061-12.004 29.748-3.654 54.798-24.79 74.108-25.051 23.485-61.322 1.044-85.069 7.829-13.308 3.653-29.486 11.742-44.1 13.83 13.57 33.662 46.71 57.408 85.069 57.408Z" fill="#41AAF9"/><path d="M137.518 218.412c-14.874 4.958-30.27 4.436-42.795 4.958 15.135 11.221 33.923 17.744 54.276 17.744 50.885 0 92.114-41.229 92.114-92.114 0-14.873-3.392-28.704-9.655-40.968-3.653 7.828-6.784 17.483-8.611 29.226-6.785 40.447-56.364 71.76-85.329 81.154Z" fill="#4FB3FF"/><path d="M65.756 109.859c.783.522 1.305 1.044 2.348 1.565 1.566.522 3.654.261 5.22-.261 4.957-1.304 9.654-3.392 14.612-4.436 4.958-1.043 10.699-.782 14.613 2.088 2.871 2.088 4.958 5.48 7.829 7.567 3.653 2.349 8.35 2.349 12.525 1.827 6.785-.783 13.83-2.609 19.31-7.046 4.697-3.653 7.828-9.133 10.438-14.352 6.001-12.264 9.133-26.877 3.392-39.141 0 0 0-.261-.261-.261-2.348-.261-4.697-.261-7.045-.261-36.533 0-68.107 21.397-82.981 52.711Z" fill="#2BA1F9"/><path d="M149.52 187.359c-7.828 0-15.657-.261-23.485-.261-15.396-.261-44.1-3.392-56.103 8.612l-.261.26c5.48 9.134 12.525 17.484 20.615 24.268 20.353-7.306 40.707-14.352 60.8-21.658 3.392-1.044 7.306-3.392 6.524-6.785-.522-3.653-4.697-4.436-8.09-4.436Z" fill="#4FB3FF"/><path d="M81.936 86.112c1.304.261 2.609.522 3.914.522 3.131-.26 6.262-1.043 9.394-1.304 3.131-.261 6.523.26 8.872 2.61 1.305 1.304 1.827 3.391 3.131 4.957 2.61 4.175 7.829 6.002 12.787 5.74 4.958-.26 9.394-2.609 13.308-5.479 4.175-2.87 7.828-8.09 5.741-12.526-.783-1.565-2.349-3.13-1.827-4.957.261-1.305 1.827-2.088 3.131-3.132 4.958-3.131 7.307-9.655 6.524-15.657-25.834.783-48.797 12.004-64.975 29.226ZM148.998 241.114c50.884 0 92.114-41.23 92.114-92.114 0-9.133-1.305-18.005-3.914-26.355-5.219 3.392-9.394 8.35-11.482 14.091-3.392 9.133-1.826 19.049-1.566 28.965 0 9.655-2.087 20.614-10.176 26.094-2.088 1.566-4.437 2.349-6.524 3.914-8.872 6.263-10.96 20.093-20.876 24.268-4.697 1.827-9.916 1.305-14.613 3.132-5.219 2.087-8.872 7.045-14.352 8.089-4.958 1.044-9.916-1.827-14.874-3.392-9.133-2.61-18.788-.522-27.66 2.609-1.566.522-3.392 1.305-4.958 1.827 11.743 5.741 25.051 8.872 38.881 8.872Z" fill="#41AAF9"/><path d="M110.119 193.883c-7.307-2.349-25.051 2.87-35.49 9.133l6.264 7.828c22.441-8.35 60.8-14.874 60.017-17.483-1.044-3.392-22.18 3.392-30.791.522Z" fill="#2BA1F9"/><path d="M221.281 152.393c-1.304 9.394-1.304 19.049-4.697 28.182-3.653 9.655-12.264 18.266-20.875 24.268-14.352 10.177-31.836 14.091-48.536 19.571-9.133 3.131-18.527 6.784-26.356 12.525 3.654 1.044 7.307 2.088 10.96 2.609 22.181-10.698 49.058-12.525 68.89-28.443 13.047-10.437 22.18-23.746 24.529-40.446 2.087-14.874 1.043-34.706 12.525-45.666-.261-1.304-.783-2.609-1.305-4.175-9.916 6.524-13.569 19.31-15.135 31.575ZM120.035 159.177c3.653 1.566 7.306 3.132 10.698 5.219 3.915 2.088 7.568 4.697 11.743 6.263 13.308 4.958 26.355-.261 36.01-9.916 11.743-11.482 14.091-25.312 18.788-40.447 3.915-13.308 10.438-24.528 18.267-34.966l-1.827-1.827c-5.741 6.785-10.438 14.613-14.091 22.441-6.524 14.352-7.567 32.097-17.483 44.883-9.394 12.004-26.356 20.615-40.708 12.525h3.653a41.986 41.986 0 0 0 23.224-9.655c8.612-7.045 12.787-17.483 17.223-27.399 4.958-10.699 9.655-21.919 14.874-32.618 2.609-4.958 5.48-9.916 9.133-14.091-1.305-1.044-2.349-2.088-3.653-3.132-8.09 7.829-12.787 19.31-17.745 29.226-9.394 20.093-16.961 47.493-42.534 50.624-20.093 2.348-38.098-13.83-58.19-4.436-8.612 3.914-15.136 10.699-23.225 15.396-1.565 1.043-3.131 1.826-4.697 2.348.522 2.349 1.044 4.697 1.827 7.046 7.045-3.393 13.047-8.351 19.31-13.048 10.96-7.828 20.614-9.916 33.662-6.262 1.826.522 3.914 1.044 5.741 1.826Z" fill="#70C1FF"/><path d="M75.15 114.817c5.741-2.61 11.482-6.263 18.006-6.524 6.523-.261 10.177 3.914 14.613 7.567 5.48 4.958 11.22 7.829 19.049 6.524 14.874-2.609 27.921-14.613 33.14-28.704 2.87-7.567 3.653-16.179 2.088-24.268-.522-3.653-1.827-7.828-3.393-11.742-3.131-.261-6.262-.522-9.655-.522 1.827 3.131 3.653 6.262 4.697 9.655 1.827 6.784 2.088 13.83.261 20.614-3.131 12.004-13.047 22.442-24.79 26.356-14.091 4.436-19.832-10.438-32.879-12.004-4.958-.521-9.655.783-14.352 2.61-2.348 1.044-6.784 4.436-9.133 4.436-3.131 0-4.958-.522-5.74-1.827-1.305 2.349-2.35 4.697-3.393 7.046 3.131 2.87 7.306 2.609 11.481.783ZM124.47 227.545c20.615-9.133 41.49-17.483 59.235-31.574 15.395-12.004 28.182-27.4 34.705-45.927 4.697-12.786 7.829-27.138 14.091-39.142-.521-1.043-1.043-2.087-1.304-3.131-6.002 9.133-9.916 19.832-13.048 30.27-7.567 24.79-21.919 43.839-43.577 57.93-20.354 13.569-43.839 19.571-65.498 30.53-1.566.783-3.392 1.827-4.958 2.61l7.829 3.914 12.525-5.48ZM76.718 148.479c19.049-3.132 40.446-23.485 59.234-9.133a.577.577 0 0 0 .783-.783c-12.264-17.223-33.401-6.263-48.797-.261-10.698 3.914-20.093 4.175-30.53 1.044-.261 2.609-.522 5.218-.522 7.828 6.523 1.566 13.047 2.348 19.832 1.305ZM167.527 102.552c7.046-13.308 5.741-30.009 0-43.578-.782-.26-1.565-.26-2.609-.522 4.958 14.352 3.653 28.183 0 43.056-.261 1.566 1.827 2.349 2.609 1.044ZM159.437 109.076c-6.002 6.524-13.309 10.177-20.615 14.874-1.044.783-.261 2.348.783 2.087 8.35-2.087 15.918-8.872 21.397-15.395.783-1.044-.522-2.61-1.565-1.566Z" fill="#70C1FF"/><path opacity=".42" d="M209.537 79.85c6.785 12.786 10.699 27.399 10.699 43.056 0 50.884-41.229 92.114-92.114 92.114-23.224 0-44.36-8.611-60.539-22.703 15.396 29.226 46.187 49.058 81.415 49.058 50.884 0 92.114-41.229 92.114-92.114 0-27.921-12.265-52.45-31.575-69.411Z" fill="#4FB3FF"/><path opacity=".26" d="M201.187 73.326c3.131 9.394 4.958 19.31 4.958 30.009 0 50.884-41.23 92.114-92.114 92.114-19.31 0-37.315-6.002-52.19-16.179 12.526 36.272 46.71 62.105 87.157 62.105 50.884 0 92.114-41.229 92.114-92.114 0-31.574-15.657-59.234-39.925-75.935Z" fill="#4398D8"/><path opacity=".35" d="M60.018 125.254c10.698 19.049 30.791 31.836 54.276 31.836 34.184 0 61.844-27.661 61.844-61.844 0-13.83-4.697-26.617-12.264-37.055-4.958-.783-9.916-1.305-14.874-1.305-42.534.261-78.545 29.226-88.982 68.368Z" fill="#9DBEFF"/><path opacity=".26" d="M212.409 82.46c10.438 14.873 16.44 33.139 16.44 52.449 0 50.885-41.23 92.114-92.114 92.114-24.529 0-46.71-9.655-63.41-25.312 16.7 23.746 44.361 39.403 75.674 39.403 50.885 0 92.114-41.229 92.114-92.114a91.195 91.195 0 0 0-28.704-66.54Z" fill="#6399C3"/><path opacity=".28" d="M213.454 83.503c-13.83-13.83-32.357-23.224-53.233-25.572-4.436-.522-8.611-.783-12.786-.783H144.043c-1.827 0-3.393.26-5.219.522h-.522c-1.044 0-1.827.26-2.87.26h-.261c-1.827.261-3.393.523-5.219 1.044h-.522c-2.61.522-5.219 1.305-7.829 2.088-.261 0-.521.26-.521.26-2.61.784-4.958 1.828-7.568 2.61-.261 0-.522.261-.522.261-1.565.783-3.131 1.305-4.697 2.088-.783.522-1.565.783-2.348 1.304-.261 0-.261.262-.522.262-1.566.782-2.871 1.565-4.175 2.348-.261 0-.261.261-.522.261-.783.522-1.566 1.044-2.349 1.305h-.26c-1.305 1.044-2.871 1.826-4.176 2.87l-.522.522c-2.087 1.566-4.175 3.131-6.001 4.958l-.522.522c-1.827 1.826-3.915 3.653-5.741 5.48l-.522.522c-1.305 1.304-2.349 2.61-3.392 3.914-.522.783-1.305 1.565-1.827 2.087l-.26.261c-1.045 1.305-2.088 2.61-2.871 4.175 0 .261-.261.261-.261.522-7.568 11.482-12.787 25.051-14.613 39.664-3.914 32.357 9.394 62.627 32.618 81.937-19.832-19.31-30.53-47.492-26.877-76.979 1.565-13.569 6.262-26.095 13.047-37.054 6.524 5.48 14.613 9.133 23.485 10.438 24.529 3.131 46.709-14.352 49.841-38.881.521-5.22.261-10.177-.783-14.874 5.48-.261 11.22-.261 16.961.522 18.527 2.61 34.706 10.176 47.753 21.136Z" fill="#fff"/><path d="M149 241.114c50.873 0 92.114-41.241 92.114-92.114 0-50.873-41.241-92.114-92.114-92.114-50.873 0-92.114 41.241-92.114 92.114 0 50.873 41.24 92.114 92.114 92.114Z" fill="url('#paint1_linear_664_955')"/><path opacity=".6" d="M149 241.114c50.873 0 92.114-41.241 92.114-92.114 0-50.873-41.241-92.114-92.114-92.114-50.873 0-92.114 41.241-92.114 92.114 0 50.873 41.24 92.114 92.114 92.114Z" fill="url('#paint2_linear_664_955')"/><path opacity=".48" d="M124.732 132.039c18.447 0 33.401-14.955 33.401-33.401 0-18.447-14.954-33.401-33.401-33.401-18.447 0-33.4 14.954-33.4 33.4 0 18.447 14.953 33.402 33.4 33.402Z" fill="url('#paint3_radial_664_955')"/><path opacity=".49" d="M233.023 111.424c.261 10.96-1.305 21.919-5.219 32.879-16.962 48.014-69.673 73.065-117.426 56.103-24.79-8.872-43.317-26.877-53.233-49.058.783 37.055 24.268 71.5 61.323 84.547 48.014 16.961 100.464-8.089 117.425-56.103 8.09-23.225 6.524-47.753-2.87-68.368Z" fill="url('#paint4_linear_664_955')"/><path opacity=".15" d="M186.577 64.976c7.567 7.828 13.569 17.222 18.005 27.921 19.31 46.971-2.871 100.725-49.841 120.296-24.268 9.916-50.362 8.872-72.543-1.044 25.312 26.878 65.759 37.055 102.03 21.92 46.97-19.31 69.412-73.326 49.841-120.296-9.133-22.702-26.617-39.664-47.492-48.797Z" fill="url('#paint5_linear_664_955')"/><defs><linearGradient id="paint1_linear_664_955" x1="83.957" y1="83.994" x2="214.126" y2="214.164" gradientUnits="userSpaceOnUse"><stop stop-color="#fff"/><stop offset=".997" stop-color="#003EE7"/></linearGradient><linearGradient id="paint2_linear_664_955" x1="227.232" y1="197.641" x2="70.851" y2="100.516" gradientUnits="userSpaceOnUse"><stop stop-color="#fff"/><stop offset="1" stop-color="#ECECEC"/></linearGradient><linearGradient id="paint4_linear_664_955" x1="140.359" y1="112.764" x2="170.595" y2="238.88" gradientUnits="userSpaceOnUse"><stop offset=".242" stop-color="#fff"/><stop offset=".92" stop-color="#fff"/><stop offset="1" stop-color="#fff"/></linearGradient><linearGradient id="paint5_linear_664_955" x1="118.603" y1="127.996" x2="225.426" y2="201.531" gradientUnits="userSpaceOnUse"><stop offset=".242" stop-color="#fff"/><stop offset=".92" stop-color="#fff"/><stop offset="1" stop-color="#fff"/></linearGradient><radialGradient id="paint0_radial_664_955" cx="0" cy="0" r="1" gradientUnits="userSpaceOnUse" gradientTransform="translate(149.124 149.078) scale(148.9)"><stop stop-color="#ACFFFB"/><stop offset=".167" stop-color="#7FBDBA"/><stop offset=".332" stop-color="#588381"/><stop offset=".489" stop-color="#395453"/><stop offset=".638" stop-color="#20302F"/><stop offset=".776" stop-color="#0E1515"/><stop offset=".9" stop-color="#040605"/><stop offset=".997"/></radialGradient><radialGradient id="paint3_radial_664_955" cx="0" cy="0" r="1" gradientUnits="userSpaceOnUse" gradientTransform="translate(124.616 98.623) scale(33.2724)"><stop stop-color="#ECECEC"/><stop offset=".546" stop-color="#EEE"/><stop offset=".836" stop-color="#F6F6F6"/><stop offset="1" stop-color="#fff"/></radialGradient></defs></svg>