<svg width="298" height="298" fill="none" xmlns="http://www.w3.org/2000/svg"><path opacity=".54" d="M147.945 298c74.179 0 134.313-66.71 134.313-149S222.124 0 147.945 0C73.767 0 13.633 66.71 13.633 149s60.134 149 134.312 149Z" fill="url('#paint0_radial_664_819')"/><path d="M147.945 240.331c45.469 0 82.328-40.89 82.328-91.331 0-50.44-36.859-91.33-82.328-91.33-45.468 0-82.328 40.89-82.328 91.33 0 50.441 36.86 91.331 82.328 91.331Z" fill="#E7A993"/><g opacity=".66" fill="#B2AFFF"><path d="M75.26 126.037c7.998 0 14.35-2.349 21.406-5.741 1.647-.783.706-3.392-.94-3.392-6.587-.261-12.703-.783-19.29-.522h-5.645a71.252 71.252 0 0 0-2.822 9.394c2.587.261 4.94.261 7.292.261Z"/><path d="M171.467 84.024c-9.644 12.265-21.17 22.703-33.872 30.792-12.467 7.828-25.64 13.569-39.753 16.439-8.938 1.827-21.17 3.915-31.05 1.305-.235 2.088-.705 3.914-.705 6.002 6.116 1.566 13.172 1.566 17.877 1.566 17.406-.261 34.578-5.48 50.102-13.83 15.76-8.351 30.344-20.615 42.105-34.967 4.47-5.48 9.88-12.787 13.879-20.615-2.353-1.566-4.94-3.131-7.528-4.436-2.822 6.263-6.821 12.264-11.055 17.744ZM116.191 82.72c7.762-3.653 21.405-13.57 23.992-24.79-2.822.26-5.645.783-8.468 1.305-.235.522-.47 1.043-.705 1.826-3.058 5.741-8.468 9.916-13.643 13.309-6.116 3.914-16.936 8.872-25.875 8.089-1.176 1.304-2.587 2.61-3.764 4.175 8.939 3.131 20.7-.522 28.463-3.914Z"/><path d="M98.077 169.876c20.935-2.349 40.458-10.96 58.806-21.92 16.701-9.915 32.225-22.702 44.222-39.402 3.763-5.219 7.527-11.221 10.585-17.223-3.999-5.48-8.703-10.438-13.878-14.874-4.47 8.35-9.88 16.179-15.055 22.442-11.055 13.047-24.463 22.963-38.576 31.313-14.819 8.611-30.579 15.918-47.28 18.788-8.233 1.305-16.701 1.566-24.934 1.305-2.117-.261-4.234-.261-6.35-.522 0 6.524.705 13.047 1.881 19.31 10.115 1.827 20.935 1.566 30.579.783ZM228.39 169.093c.471-1.827.706-3.654.941-5.48-13.407 12.003-27.991 22.702-43.281 31.313-15.054 8.611-30.814 15.918-47.044 21.659-11.291 3.914-22.817 7.828-34.578 10.177 1.882 1.304 3.763 2.609 5.645 3.653 27.051-4.436 53.631-16.701 76.683-30.531 14.819-8.872 28.697-19.31 41.634-30.791ZM145.357 69.15c-6.351 8.612-15.054 15.135-24.228 19.832-13.172 6.524-28.226 11.482-42.575 10.438-.94 1.827-2.117 3.653-3.058 5.48 15.995 2.349 34.578-3.914 47.28-9.916 11.055-5.219 21.405-12.525 28.932-22.963 2.588-3.653 5.646-8.611 7.763-13.83-2.588-.261-5.175-.783-7.527-.783-1.882 4.436-3.999 8.35-6.587 11.742Z"/><path d="M177.818 193.882c18.818-10.698 37.4-26.094 52.455-44.099V149c0-2.871-.236-6.002-.471-8.872-4.704 6.262-9.644 12.264-15.054 18.005-10.82 11.221-22.582 21.136-35.519 29.226-13.643 8.611-28.462 14.613-43.751 19.31-14.114 4.175-29.874 9.133-44.693 8.35 1.412 1.566 2.823 2.87 4.47 4.436 11.525.261 23.757-3.914 34.107-6.523 16.701-4.176 33.166-10.177 48.456-19.05Z"/><path d="M107.486 206.93c23.522-3.392 45.869-12.525 66.333-25.051 18.583-11.481 36.224-25.833 50.338-43.317 1.646-1.826 3.058-3.914 4.469-5.741-1.882-11.742-5.88-22.702-11.291-32.357-4.234 7.568-9.173 14.352-14.583 20.615-12.702 14.613-27.522 26.616-43.517 36.271-16.701 10.177-34.813 17.745-53.631 20.615-10.114 1.566-20.464 1.827-30.579 1.044-1.881-.261-3.528-.522-5.41-.783 3.293 10.96 8.468 21.137 15.055 29.748 7.762.522 15.289 0 22.816-1.044ZM150.533 83.763c-5.41 4.436-9.644 10.438-15.759 14.091-6.352 3.915-13.879 6.002-19.289 11.221-2.822 2.61.235 6.785 3.293 6.263 7.527-1.827 15.76-7.568 22.582-12.004 5.41-3.653 11.526-9.394 12.702-16.7 0-1.827-1.882-4.175-3.529-2.87Z"/></g><path d="M217.57 117.426c.235-2.088-1.882-3.393-3.528-2.871-7.762 2.088-14.349 15.135-19.288 21.659-7.057 9.655-16.466 16.439-25.64 23.224-1.176 1.044-.47 3.131.941 2.87 11.056-3.653 19.288-11.742 27.992-19.571 6.821-6.001 18.582-15.134 19.523-25.311ZM138.303 126.037c-10.585 6.002-20.935 9.655-32.696 12.004-5.88 1.304-11.761 2.087-17.642 2.609-3.999.522-6.351.261-9.409 2.87-.706.522-.47 1.827.235 2.349 7.292 5.219 23.287.522 31.285-1.827 10.82-3.131 21.17-8.089 29.403-16.439.705-.783-.235-2.088-1.176-1.566Z" fill="#E79174"/><g opacity=".63" fill="#E79174"><path d="M170.998 218.151c-1.412 1.044-2.588 2.088-3.529 3.392-1.176 1.305.235 3.654 1.882 2.61 1.176-.783 2.352-1.566 3.528-2.088 1.412-.522 2.353-1.304 3.293-2.348 1.177-.783.706-2.61-.705-2.61-1.647 0-3.058 0-4.469 1.044ZM175.232 117.426c-2.823 1.044-4.705 2.609-7.057 4.697-2.352 2.087-4.704 3.914-7.292 6.002-.941.782-1.882 2.348-1.411 3.653.235 1.044.705 1.304 1.411 2.087.706.522 2.117.522 3.058 0 4.705-3.914 10.82-8.089 12.937-14.352.236-1.304-.705-2.348-1.646-2.087ZM129.127 150.566c9.88-1.044 20.23-6.524 27.522-14.091 1.646-1.566 0-5.219-2.353-4.175-9.173 3.653-18.818 9.394-26.109 16.439-.471.522 0 1.827.94 1.827ZM197.814 159.438c.941-1.305.235-3.914-1.647-3.131-9.174 3.914-16.936 11.22-25.639 16.439-10.115 6.002-20.465 11.743-31.05 16.179-1.411.522-.941 3.131.706 2.609 10.585-2.87 20.935-6.784 30.814-12.003 9.174-5.219 20.229-10.96 26.816-20.093ZM168.882 61.583c-3.999 6.785-9.174 12.265-13.408 18.788-1.411 2.088 1.176 4.959 3.058 3.393 6.821-4.958 11.996-12.526 15.995-21.137-1.882-.783-3.528-1.305-5.41-1.827 0 .262-.235.523-.235.783ZM193.814 95.767c-3.528 5.219-7.998 9.655-11.526 14.874-1.176 1.827 1.176 4.175 2.823 3.132 9.644-6.263 15.76-19.571 19.288-31.053-.706-.783-1.411-1.305-1.882-2.087-2.587 5.219-5.41 10.177-8.703 15.135ZM212.867 187.62c-7.527 5.741-17.407 9.394-23.758 16.701-1.411 1.565-.47 4.958 1.882 4.958 9.88-1.044 19.288-8.612 27.286-14.613.706-.522 1.411-1.044 1.882-1.566 2.587-5.219 4.704-10.438 6.351-16.179-4.469 3.654-8.939 7.307-13.643 10.699ZM124.659 85.069c10.585-4.176 20.465-15.135 23.758-27.4h-.471c-1.646 0-3.293 0-5.175.261-1.646 3.914-3.763 7.568-6.586 10.699-4.234 4.958-9.409 8.35-13.172 13.57-.941 1.043-.236 3.391 1.646 2.87ZM111.956 107.771c1.647-1.305 1.412-4.958-1.176-4.697-7.762.522-15.054 4.175-22.816 4.958-4.705.522-9.41.522-13.879.522-.94 2.088-1.646 4.175-2.587 6.263 13.878 1.565 30.109 1.043 40.458-7.046ZM159.473 227.284c2.117-2.088-.235-4.958-2.352-4.697-7.527 1.305-14.584 6.002-21.876 8.35-4.94 1.566-9.644 3.132-14.584 4.436 3.764 1.566 7.762 2.61 11.761 3.654 10.115-1.827 19.994-5.219 27.051-11.743ZM105.84 190.23c9.409-1.827 18.818-3.914 27.991-7.046 7.292-2.609 17.172-5.219 21.641-12.525.941-1.566-.235-3.914-1.882-3.653-7.057.261-13.643 5.219-20.229 7.828-8.233 2.87-16.466 4.958-24.934 6.785-12.467 2.609-24.463 3.392-36.695 2.609 1.177 3.131 2.353 6.002 3.764 8.872 10.115.522 20.7-1.044 30.344-2.87ZM121.366 62.367c-7.527 2.87-14.583 6.784-21.17 12.003 4.47.26 9.174-.783 12.702-2.87 3.293-1.827 6.587-5.22 8.468-9.133Z"/></g><path opacity=".36" d="M147.945 57.67c2.587 2.087 5.41 3.913 6.586 8.35.941 3.392.47 7.045-.235 10.176-2.823 13.048-11.526 23.225-16.231 35.75-1.176 3.392-2.117 7.567-.235 10.699 1.882 2.87 5.175 3.392 8.233 3.392 14.113.261 27.756-5.48 41.87-6.263 6.821-.522 13.878.522 19.288 5.219 3.999 3.653 6.116 8.872 7.998 14.091 3.293 9.394 5.88 19.31 7.527 29.226.705 4.436 1.176 8.872 2.117 13.308 3.528-10.176 5.41-21.136 5.41-32.618 0-50.362-36.93-91.33-82.328-91.33ZM147.946 240.592c15.995 0 31.049-5.219 43.751-13.83-1.411-.261-2.823-.522-4.234-1.044-3.293-.783-6.586-2.088-8.938-4.697-4.94-5.48-4.234-14.613-1.177-21.659 3.058-7.045 7.998-12.786 10.586-19.831.705-1.827 1.176-3.915.705-5.741-.941-4.697-6.351-5.741-10.585-5.48-8.703.522-17.406 2.348-25.639 5.48-3.529 1.305-6.822 2.87-10.585 3.131-3.764.261-7.763-.783-9.88-3.914-2.587-3.653-2.822-9.655-6.821-11.482-1.882-.783-3.764-.261-5.645.261-13.643 3.914-27.992 12.787-41.164 7.307-5.41-2.349-9.645-6.785-12.232-12.526 3.058 46.971 38.577 84.025 81.858 84.025Z" fill="#E7A993"/><path opacity=".15" d="M193.58 73.065c1.176 6.262 1.881 12.525 1.881 19.31 0 50.623-36.93 91.331-82.328 91.331-16.936 0-32.696-5.741-45.868-15.396 7.997 41.229 40.928 72.282 80.681 72.282 45.634 0 82.328-40.969 82.328-91.331 0-31.836-14.584-59.757-36.694-76.196Z" fill="#E7A993"/><path opacity=".15" d="M202.518 80.632c5.41 12.264 8.468 25.834 8.468 40.447 0 50.623-36.93 91.331-82.328 91.331-20.935 0-40.224-8.872-54.807-23.225 13.407 30.27 41.399 51.146 74.095 51.146 45.633 0 82.328-40.969 82.328-91.331 0-27.138-10.585-51.406-27.756-68.368Z" fill="#E7A993"/><path opacity=".45" d="M202.047 80.371c-14.584-14.09-33.401-22.702-54.336-22.702-4.94 0-9.644.522-14.349 1.305h-.47c-1.647.26-3.058.783-4.705 1.044h-.235c-4.94 1.304-9.644 3.131-14.113 5.219-.236 0-.236.26-.471.26-1.411.783-2.823 1.305-3.999 2.088 0 0-.235 0-.235.261-4.234 2.61-8.468 5.48-12.232 8.611-.235 0-.235.261-.47.261-1.176 1.044-2.352 2.088-3.293 3.132l-.235.26a99.074 99.074 0 0 0-6.822 7.568c-.94 1.305-2.117 2.61-3.058 3.914l-.47.522c-.941 1.305-1.647 2.61-2.588 3.914 0 .261-.235.261-.235.522-9.173 14.874-14.819 32.618-14.819 52.189 0 30.531 13.408 57.408 34.107 74.109-17.17-16.701-28.226-41.491-28.226-68.89 0-15.135 3.293-29.748 9.409-42.273 6.586 5.48 14.584 8.872 23.522 8.872 21.405 0 38.577-19.31 38.577-42.795 0-4.958-.706-9.655-2.117-13.83 4.234-.783 8.703-1.044 12.937-1.044 18.582 0 35.283 6.524 48.926 17.483Z" fill="#E7A993"/><path opacity=".25" d="M68.44 124.471c10.35 14.352 26.11 23.485 43.752 23.485 30.814 0 55.983-27.66 55.983-62.105 0-9.655-1.882-18.788-5.41-26.877-4.705-1.044-9.644-1.566-14.819-1.566-37.871.26-69.861 28.704-79.506 67.063Z" fill="#E7A993"/><path opacity=".76" d="M147.945 240.331c45.469 0 82.328-40.89 82.328-91.331 0-50.44-36.859-91.33-82.328-91.33-45.468 0-82.328 40.89-82.328 91.33 0 50.441 36.86 91.331 82.328 91.331Z" fill="url('#paint1_linear_664_819')"/><path opacity=".15" d="M223.453 110.902c.235 10.96-1.177 21.919-4.705 32.879-15.289 48.014-62.805 73.065-105.85 56.103-22.347-8.872-39.047-26.877-47.986-49.057.706 37.054 21.876 71.499 55.278 84.546 43.281 16.961 90.561-8.089 105.85-56.103 7.527-23.225 5.881-47.492-2.587-68.368Z" fill="url('#paint2_linear_664_819')"/><path opacity=".15" d="M181.819 64.453c6.821 7.829 12.231 17.223 16.23 27.921 17.407 46.971-2.587 100.726-44.927 120.296-21.876 9.916-45.399 8.873-65.393-1.043 22.817 26.877 59.277 37.054 91.973 21.919 42.34-19.31 62.569-73.326 44.927-120.296-8.232-22.702-23.992-39.663-42.81-48.797Z" fill="url('#paint3_linear_664_819')"/><g opacity=".72"><path d="M74.32 190.49c-.47-1.044-.706-2.087-1.176-2.87-33.872 23.224-48.691 38.359-50.573 44.882-.235.522-.235 1.044 0 1.305v.261c.235.261.706.522.94.522 4.235 1.566 26.346 1.827 130.785-58.713 62.805-36.532 105.615-71.76 117.141-86.112 1.411-1.826 0-4.436-2.117-4.175-8.703 1.566-25.639 7.306-50.102 18.527.47.783.705 1.305 1.176 2.088 20.229-9.133 33.637-13.048 35.048-9.916 3.058 6.523-42.34 39.663-101.616 74.108-59.041 34.445-109.614 57.147-112.672 50.885-1.647-3.654 11.29-15.396 33.166-30.792Z" fill="url('#paint4_linear_664_819')"/><path d="M214.513 95.767c.471.522.706 1.044.941 1.827 31.285-14.352 54.572-22.18 61.864-19.571 2.352.782 3.998 2.87 4.234 5.48.235 2.609.705 10.698-36.695 40.446-24.228 19.049-55.278 39.925-87.268 58.713-13.408 7.828-27.991 15.918-42.105 23.746-41.164 22.18-80.917 40.186-93.854 35.489-2.823-1.044-4.234-2.871-4.94-4.437-.705-1.304-1.411-3.653-.47-7.045 3.058-12.004 27.286-31.314 54.337-49.841-.236-.522-.236-.783-.471-1.304C24.453 211.105-4.009 238.243.46 247.898c6.351 13.569 78.094-14.091 160.187-62.105 82.093-48.014 143.251-97.854 136.9-111.424-4.469-9.133-37.401.261-83.034 21.398Z" fill="url('#paint5_linear_664_819')"/><path d="M235.919 104.9c.705 0-2.823 4.436-3.058 4.697-1.411 1.566-3.293 2.87-4.94 4.175-4.469 3.653-9.174 7.307-13.878 10.438-6.586 4.697-14.113 8.611-20.229 14.091-.706.522 0 1.566.705 1.305 14.349-5.48 30.109-17.484 41.164-28.965 1.647-1.566 4.235-3.915 3.058-6.785-.705-1.827-2.117-2.087-3.763-1.305-.706.783-.235 2.61.941 2.349Z" fill="url('#paint6_linear_664_819')"/><path d="M289.551 94.723c-20.935 26.355-49.868 41.229-74.331 62.888-.705.522 0 1.826.941 1.304 14.819-8.611 28.933-20.092 42.811-30.791 10.82-8.089 27.286-18.005 32.225-32.357.236-.783-.941-1.827-1.646-1.044Z" fill="url('#paint7_linear_664_819')"/><path d="M201.105 166.222c-10.35 6.263-22.817 12.004-31.99 20.093-.471.522 0 1.566.47 1.305 11.291-3.393 22.582-12.265 32.226-19.31 1.176-.783.47-2.61-.706-2.088Z" fill="url('#paint8_linear_664_819')"/><path d="M128.893 208.235c-16.7 9.916-34.813 17.483-51.278 27.921-.941.522-.47 2.348.706 2.087 18.347-4.697 35.283-18.005 51.513-28.182.706-.782 0-2.348-.941-1.826Z" fill="url('#paint9_linear_664_819')"/><path d="M55.738 208.495c-2.823.261-6.351 5.741-3.293 8.351 1.411 1.304 3.763 0 5.175-.522 2.822-1.044 5.88-2.088 7.997-4.436.47-.522.236-1.566-.705-1.305-2.353.261-4.47 1.566-6.822 2.348-.94.261-3.528 1.827-4.234.522-.47-.783 1.411-3.392 2.117-3.914.706-.261.47-1.044-.235-1.044Z" fill="url('#paint10_linear_664_819')"/><path d="M2.578 254.161c4.234 3.392 11.996 3.914 16.23 0 .47-.261.236-1.305-.47-1.305-2.352 0-4.705 1.305-7.057 1.566-2.823.261-5.645 0-8.233-1.305-.47-.261-1.176.783-.47 1.044Z" fill="url('#paint11_linear_664_819')"/><path d="M19.748 235.112c3.058 4.958 9.41 5.219 13.643 2.348.47-.261.236-1.044-.235-1.044-4.469.783-8.938 1.827-12.937-1.826-.47 0-.706.522-.47.522Z" fill="url('#paint12_linear_664_819')"/><path d="M38.332 237.721c7.527-1.826 16.936-3.392 23.522-7.828.47-.522.706-1.566-.235-1.566-7.762 0-16.466 4.436-23.758 7.829-.94 0-.47 1.565.47 1.565Z" fill="url('#paint13_linear_664_819')"/><path d="M65.616 176.66c-7.057 2.609-14.349 8.089-19.994 13.569-.706.783 0 2.087.94 1.566 6.587-3.915 13.879-8.873 19.76-14.352.234-.261-.236-1.044-.706-.783Z" fill="url('#paint14_linear_664_819')"/><path d="M256.384 84.285c3.528-.522 7.292-1.565 10.82-1.565 1.647 0 3.293 0 4.705.522 2.117 1.043 2.352 2.87 3.293 4.697.235.522.705.522 1.176.26 3.293-3.13-1.647-7.306-4.469-8.089-5.41-1.565-10.821.522-15.76 2.87-.706.262-.471 1.566.235 1.305Z" fill="url('#paint15_linear_664_819')"/><path d="M273.555 91.592c-.706.26-1.176 1.044-1.882 1.827-.47.782-.941 1.565-.941 2.348 0 .522.471 1.044.941 1.044 1.647-.522 2.823-2.61 2.823-4.436 0-.783-.706-1.044-.941-.783Z" fill="url('#paint16_linear_664_819')"/></g><defs><linearGradient id="paint1_linear_664_819" x1="89.565" y1="84.419" x2="218.191" y2="200.366" gradientUnits="userSpaceOnUse"><stop stop-color="red"/><stop offset=".106" stop-color="#F30007"/><stop offset=".298" stop-color="#D20119"/><stop offset=".556" stop-color="#9D0236"/><stop offset=".866" stop-color="#55045E"/><stop offset=".997" stop-color="#340570"/></linearGradient><linearGradient id="paint2_linear_664_819" x1="140.026" y1="112.324" x2="173.152" y2="236.879" gradientUnits="userSpaceOnUse"><stop offset=".242" stop-color="#fff"/><stop offset=".92" stop-color="#fff"/><stop offset="1" stop-color="#fff"/></linearGradient><linearGradient id="paint3_linear_664_819" x1="120.5" y1="127.394" x2="222.967" y2="190.977" gradientUnits="userSpaceOnUse"><stop offset=".242" stop-color="#fff"/><stop offset=".92" stop-color="#fff"/><stop offset="1" stop-color="#fff"/></linearGradient><linearGradient id="paint4_linear_664_819" x1="20.804" y1="229.783" x2="283.935" y2="114.483" gradientUnits="userSpaceOnUse"><stop stop-color="#FFB6A0"/><stop offset=".148" stop-color="#F3ACA1"/><stop offset=".417" stop-color="#D293A5"/><stop offset=".774" stop-color="#9E6BAB"/><stop offset=".994" stop-color="#7A4FAF"/></linearGradient><linearGradient id="paint5_linear_664_819" x1="-1.589" y1="243.056" x2="311.313" y2="105.947" gradientUnits="userSpaceOnUse"><stop stop-color="#FFB6A0"/><stop offset=".148" stop-color="#F3ACA1"/><stop offset=".417" stop-color="#D293A5"/><stop offset=".774" stop-color="#9E6BAB"/><stop offset=".994" stop-color="#7A4FAF"/></linearGradient><linearGradient id="paint6_linear_664_819" x1="192.227" y1="134.021" x2="241.551" y2="112.408" gradientUnits="userSpaceOnUse"><stop stop-color="#FFB6A0"/><stop offset=".148" stop-color="#F3ACA1"/><stop offset=".417" stop-color="#D293A5"/><stop offset=".774" stop-color="#9E6BAB"/><stop offset=".994" stop-color="#7A4FAF"/></linearGradient><linearGradient id="paint7_linear_664_819" x1="211.64" y1="148.988" x2="297.31" y2="111.449" gradientUnits="userSpaceOnUse"><stop stop-color="#FFB6A0"/><stop offset=".148" stop-color="#F3ACA1"/><stop offset=".417" stop-color="#D293A5"/><stop offset=".774" stop-color="#9E6BAB"/><stop offset=".994" stop-color="#7A4FAF"/></linearGradient><linearGradient id="paint8_linear_664_819" x1="169.182" y1="186.355" x2="203.263" y2="171.421" gradientUnits="userSpaceOnUse"><stop stop-color="#FFB6A0"/><stop offset=".148" stop-color="#F3ACA1"/><stop offset=".417" stop-color="#D293A5"/><stop offset=".774" stop-color="#9E6BAB"/><stop offset=".994" stop-color="#7A4FAF"/></linearGradient><linearGradient id="paint9_linear_664_819" x1="78.236" y1="237.837" x2="131.577" y2="214.464" gradientUnits="userSpaceOnUse"><stop stop-color="#FFB6A0"/><stop offset=".148" stop-color="#F3ACA1"/><stop offset=".417" stop-color="#D293A5"/><stop offset=".774" stop-color="#9E6BAB"/><stop offset=".994" stop-color="#7A4FAF"/></linearGradient><linearGradient id="paint10_linear_664_819" x1="52.49" y1="214.949" x2="64.511" y2="209.682" gradientUnits="userSpaceOnUse"><stop stop-color="#FFB6A0"/><stop offset=".148" stop-color="#F3ACA1"/><stop offset=".417" stop-color="#D293A5"/><stop offset=".774" stop-color="#9E6BAB"/><stop offset=".994" stop-color="#7A4FAF"/></linearGradient><linearGradient id="paint11_linear_664_819" x1="4.218" y1="257.407" x2="17.41" y2="251.626" gradientUnits="userSpaceOnUse"><stop stop-color="#FFB6A0"/><stop offset=".148" stop-color="#F3ACA1"/><stop offset=".417" stop-color="#D293A5"/><stop offset=".774" stop-color="#9E6BAB"/><stop offset=".994" stop-color="#7A4FAF"/></linearGradient><linearGradient id="paint12_linear_664_819" x1="21.323" y1="238.972" x2="31.858" y2="234.356" gradientUnits="userSpaceOnUse"><stop stop-color="#FFB6A0"/><stop offset=".148" stop-color="#F3ACA1"/><stop offset=".417" stop-color="#D293A5"/><stop offset=".774" stop-color="#9E6BAB"/><stop offset=".994" stop-color="#7A4FAF"/></linearGradient><linearGradient id="paint13_linear_664_819" x1="39.012" y1="238.645" x2="61.488" y2="228.796" gradientUnits="userSpaceOnUse"><stop stop-color="#FFB6A0"/><stop offset=".148" stop-color="#F3ACA1"/><stop offset=".417" stop-color="#D293A5"/><stop offset=".774" stop-color="#9E6BAB"/><stop offset=".994" stop-color="#7A4FAF"/></linearGradient><linearGradient id="paint14_linear_664_819" x1="45.491" y1="189.664" x2="67.147" y2="180.174" gradientUnits="userSpaceOnUse"><stop stop-color="#FFB6A0"/><stop offset=".148" stop-color="#F3ACA1"/><stop offset=".417" stop-color="#D293A5"/><stop offset=".774" stop-color="#9E6BAB"/><stop offset=".994" stop-color="#7A4FAF"/></linearGradient><linearGradient id="paint15_linear_664_819" x1="258.822" y1="89.624" x2="274.75" y2="82.644" gradientUnits="userSpaceOnUse"><stop stop-color="#FFB6A0"/><stop offset=".148" stop-color="#F3ACA1"/><stop offset=".417" stop-color="#D293A5"/><stop offset=".774" stop-color="#9E6BAB"/><stop offset=".994" stop-color="#7A4FAF"/></linearGradient><linearGradient id="paint16_linear_664_819" x1="271.105" y1="94.885" x2="274.438" y2="93.425" gradientUnits="userSpaceOnUse"><stop stop-color="#FFB6A0"/><stop offset=".148" stop-color="#F3ACA1"/><stop offset=".417" stop-color="#D293A5"/><stop offset=".774" stop-color="#9E6BAB"/><stop offset=".994" stop-color="#7A4FAF"/></linearGradient><radialGradient id="paint0_radial_664_819" cx="0" cy="0" r="1" gradientUnits="userSpaceOnUse" gradientTransform="matrix(134.222 0 0 148.9 147.978 149.078)"><stop stop-color="#ACFFFB"/><stop offset=".167" stop-color="#7FBDBA"/><stop offset=".332" stop-color="#588381"/><stop offset=".489" stop-color="#395453"/><stop offset=".638" stop-color="#20302F"/><stop offset=".776" stop-color="#0E1515"/><stop offset=".9" stop-color="#040605"/><stop offset=".997"/></radialGradient></defs></svg>