<svg width="298" height="298" fill="none" xmlns="http://www.w3.org/2000/svg"><path opacity=".9" d="M149 298c82.29 0 149-66.71 149-149S231.29 0 149 0 0 66.71 0 149s66.71 149 149 149Z" fill="url('#paint0_radial_657_5')"/><path d="M162.783 237.834c49.057-7.855 82.457-53.991 74.603-103.047-7.855-49.057-53.991-82.457-103.048-74.602-49.056 7.854-82.457 53.99-74.602 103.047 7.855 49.056 53.991 82.457 103.047 74.602Z" fill="#FFB817"/><path d="M148.571 59.041c-8.159 0-15.888 1.074-23.402 3.006h.644c15.244 1.289 30.058 6.656 42.295 15.888 3.436 2.576 6.656 5.582 8.159 9.447 3.22 8.802-3.435 17.819-9.876 24.904-6.656 7.3-13.311 14.815-20.182 22.114-4.508 4.938-9.232 10.52-9.232 16.961 0 7.085 5.368 13.097 10.95 17.391 5.582 4.294 12.023 8.158 15.458 14.385 4.509 8.158 3.006 18.678-2.147 26.407-5.153 7.729-13.526 12.882-22.114 16.532-7.729 3.221-15.673 5.153-24.046 6.226 10.306 4.08 21.47 6.227 33.064 6.227 49.595 0 89.958-40.149 89.958-89.959.429-49.165-39.934-89.528-89.529-89.528Z" fill="#FFA917"/><path d="M138.266 87.382c-6.226 2.576-12.238 6.44-18.893 8.158-2.791.644-6.012.859-7.944-1.288-1.932-2.362-.644-5.797.859-8.373 1.503-2.577 3.435-5.153 3.005-8.159-.644-4.508-6.011-5.797-10.09-7.514-27.696 15.243-46.59 44.872-46.59 78.794 0 32.204 16.961 60.544 42.725 76.432l1.932-.644c10.95-3.435 22.329-6.012 31.346-12.882 3.65-2.576 6.656-6.011 8.373-10.305 1.718-4.08 1.503-9.018-1.073-12.668-3.006-4.508-9.447-6.87-10.091-12.237-.644-4.08 2.791-8.159 2.576-12.238-.429-7.3-10.305-9.447-14.814-15.244-3.22-4.079-3.435-10.305-1.073-15.028 2.147-4.724 6.441-8.588 10.949-11.165 5.153-2.791 10.95-4.508 16.532-6.87 5.582-2.362 10.95-5.367 14.385-10.305 3.435-4.938 4.079-12.023.429-16.747-5.367-6.011-15.243-4.938-22.543-1.717Z" fill="#FFA917"/><path d="M221.138 95.755c-4.723 1.717-9.017 3.864-12.452 5.796-6.012 3.221-11.809 8.159-12.882 15.029-.429 1.933-.215 3.865.859 5.368 1.717 2.361 5.152 2.361 8.158 2.791a31.154 31.154 0 0 1 14.385 4.938c.644.429 1.288.859 1.503 1.717.429 1.289-.43 2.577-1.288 3.436-5.153 5.367-12.667 8.587-20.182 8.587-4.723 0-9.661-1.073-14.385.43-3.649 1.288-6.655 4.079-9.017 7.085-3.006 4.079-5.582 9.017-4.723 14.17.859 6.656 6.87 11.594 12.882 14.385 2.576 1.073 5.152 2.147 7.943 2.147 3.65 0 7.085-1.503 10.091-3.221 3.65-1.932 7.3-4.079 10.52-6.441 3.221-2.147 6.441-4.508 10.091-5.582 4.509-1.073 9.232 0 13.741.429 1.073-5.796 1.717-11.593 1.717-17.605.43-20.181-6.011-38.431-16.961-53.46Z" fill="#FFB817"/><path d="M238.528 146.209c-9.661 4.079-20.182 5.797-30.487 6.441-4.294.215-8.803.43-12.667 1.932-4.079 1.718-7.515 5.368-7.515 9.662 0 1.288.215 2.361 1.074 3.435 2.147 3.006 6.655 2.576 10.091 1.073 4.938-1.932 9.446-5.152 14.384-7.514 7.729-3.65 16.532-4.938 25.12-4.938.215-2.362.429-4.938.429-7.514-.429-.644-.429-1.718-.429-2.577ZM210.187 118.728c.644 2.576 3.005 4.294 5.582 5.152 2.576.859 5.152.859 7.944 1.074 4.079.429 8.158 1.073 12.237 2.147-2.361-9.018-5.797-17.391-10.52-25.12-3.435 1.718-6.656 3.65-9.661 6.226-3.435 2.577-6.656 6.441-5.582 10.521Z" fill="#FFA917"/><g opacity=".66" fill="#FFCB24"><path opacity=".43" d="M189.364 98.331c1.074 6.441 15.244-.644 17.605-3.65 2.362-3.005 1.718-6.87-2.147-8.373-5.367-2.147-9.876 1.932-13.311 5.797-1.073 1.073-1.932 2.361-2.362 4.08 0 .643 0 1.502.215 2.146ZM188.934 108.207c-.429-.859-1.718-1.717-2.791-1.503-.43 0-.859 0-1.288.215-1.289.429-2.577 1.718-2.577 3.22v.215c0 .43 0 .644.215 1.074v.214c0 1.718 1.718 2.577 3.22 2.362 1.074-.215 2.147-.859 2.792-1.718 0-.214.214-.214.214-.429 0 0 0-.215.215-.429v-.43c0-.214.215-.429.215-.429.429-.859.429-1.718-.215-2.362Z"/><path d="M190.652 128.389c-.214-4.509-3.435-9.447-8.587-8.374-7.944 1.503-5.153 14.6 1.717 15.244 4.938.429 7.085-3.006 6.87-6.87ZM183.353 100.263c2.577 0 2.577-4.08 0-4.08-2.576 0-2.576 4.08 0 4.08ZM184.855 92.32c1.503.429 3.436-.43 3.65-2.148v-.214l1.933-2.577c1.288-1.932-.859-4.508-3.006-3.864-2.147.644-4.509 2.576-4.724 4.938-.214 1.717.215 3.65 2.147 3.864Z"/><path opacity=".43" d="M193.443 85.664c1.933 0 1.933-3.006 0-3.006-1.717 0-1.717 3.006 0 3.006Z"/><path d="M198.381 83.732c2.577 0 2.577-4.08 0-4.08-2.576 0-2.576 4.08 0 4.08ZM222.859 179.272c-.215-.429-.645-.859-1.289-1.073-6.011-1.933-13.096 1.932-17.175 6.226-2.577 2.791-3.65 6.87-1.503 10.091 2.147 3.649 6.441 4.079 10.305 2.791 5.582-1.718 13.097-6.227 12.882-12.882-.215-2.362-1.503-4.079-3.22-5.153ZM189.579 190.221a4.306 4.306 0 0 0 4.294 4.294c2.147 0 4.294-1.932 4.294-4.294a4.307 4.307 0 0 0-4.294-4.294c-2.147 0-4.294 1.933-4.294 4.294Z"/><path opacity=".43" d="M197.309 199.239c-1.503-.859-3.435-1.288-4.938-1.074-3.65.43-9.447 5.582-5.582 9.232 3.435 3.221 9.017.215 11.379-2.791 1.717-2.361.859-4.294-.859-5.367Z"/><path d="M206.54 201.171c-3.65 0-3.65 5.583 0 5.583 3.65-.215 3.65-5.583 0-5.583ZM200.529 210.403c-1.503 0-1.503 2.362 0 2.362 1.502 0 1.502-2.362 0-2.362ZM214.7 199.239c-3.006 0-3.006 4.508 0 4.508 2.791 0 2.791-4.508 0-4.508Z"/></g><path opacity=".39" d="M58.613 149c0 21.469 7.515 41.222 20.182 56.68-.215-3.006.215-6.012.859-9.017 1.932-7.944 7.3-14.815 13.096-20.826 1.288-1.288 2.576-2.576 3.006-4.294 1.073-3.65-1.932-7.3-5.153-9.017-3.22-1.718-7.085-2.362-10.305-4.08-7.3-4.079-10.091-14.814-5.368-21.899.644-1.073 1.503-2.147 2.791-2.576 3.22-1.503 6.441.859 9.662 2.362 6.44 3.005 14.599 2.147 20.181-2.362 5.582-4.509 8.159-12.238 6.656-19.323-.859-3.65-3.221-7.3-6.87-8.158-5.153-1.289-9.876 3.22-15.03 4.294-1.073.214-2.36.214-3.434-.215-1.074-.644-1.933-1.718-2.362-2.791-3.865-7.515-3.65-15.458-.859-22.543C68.92 101.552 58.613 124.095 58.613 149Z" fill="#FFCB24"/><g opacity=".64" fill="#FFCB24"><path d="M106.276 170.899c-2.147 0-4.08 1.933-4.08 4.08 0 2.147 1.718 4.079 4.08 4.079 2.147 0 4.079-1.932 4.079-4.079-.215-2.362-1.718-4.08-4.079-4.08Z"/><path opacity=".63" d="M118.512 159.52c-.644-2.362-2.147-4.294-4.294-5.368-2.147-1.073-4.723-1.502-7.085-.644-1.717.644-3.435 1.503-4.294 3.221-.859 1.717-1.073 3.65-.644 5.582.215.644.43 1.073.644 1.503.215 1.288.859 2.362 1.933 3.22l-.215-.214c.429.429 1.073.858 1.503 1.288.859.429 1.503.644 2.361.859h-.429c1.932.214 3.65.644 5.582 0 3.65-1.503 6.012-5.368 4.938-9.447Z"/><path d="M98.975 157.158c2.362 0 2.362-3.649 0-3.649-2.361 0-2.361 3.649 0 3.649ZM90.603 152.864c3.65 0 3.65-5.796 0-5.796-3.865.214-3.865 5.796 0 5.796ZM91.246 188.075c-3.006 0-3.006 4.509 0 4.509 3.005 0 3.005-4.509 0-4.509ZM92.32 199.239a3.848 3.848 0 0 0-3.865-3.864c-1.932 0-3.864 1.717-3.864 3.864a3.849 3.849 0 0 0 3.864 3.865c1.933 0 3.865-1.718 3.865-3.865Z"/><path opacity=".63" d="M92.105 203.318c-4.079 0-4.079 6.441 0 6.441 4.08 0 4.08-6.441 0-6.441ZM107.564 192.584l.215-.215c.214-.644.214-1.503.214-2.147 0-1.718-.858-3.435-2.576-4.294-1.503-1.932-4.294-1.288-6.011-.429-1.718 1.073-3.22 2.576-3.865 4.508-.644 1.932-.43 4.294.644 6.012 1.503 2.361 4.509 3.65 7.085 2.791 2.791-.859 3.865-3.221 4.294-6.012-.215.215-.215 0 0-.214Z"/><path d="M111.856 189.792c3.865 0 3.865-6.011 0-6.011-3.864-.215-3.864 6.011 0 6.011ZM110.997 193.228h-.214c-2.791 1.073-2.791 4.938 0 5.796h.214c1.933.645 3.865-1.073 3.865-3.005.215-1.718-1.932-3.65-3.865-2.791ZM107.992 200.313c-1.932 0-1.932 3.22 0 3.22s1.932-3.22 0-3.22ZM101.336 203.963c-1.288 0-1.288 1.932 0 1.932s1.288-1.932 0-1.932Z"/></g><g opacity=".36" fill="#FFCB24"><path d="M92.321 94.467c-3.005 0-5.796 2.576-5.582 5.582.215 3.006 2.362 5.582 5.582 5.582 3.006 0 5.797-2.576 5.582-5.582-.214-3.22-2.576-5.582-5.582-5.582ZM89.744 92.105c.86.859 1.933 1.073 3.006.644 1.074-.43 1.718-1.503 1.718-2.576-.215-2.577-3.006-3.65-4.724-1.933l-.214.215c-.86.859-.86 2.791.214 3.65ZM99.407 88.026c-1.502 0-1.502 2.362 0 2.362 1.503 0 1.503-2.362 0-2.362ZM103.915 94.681c-3.435 0-3.435 5.153 0 5.153 3.221 0 3.221-5.153 0-5.153ZM104.988 89.743c-2.791 0-2.791 4.08 0 4.08 2.576 0 2.576-4.08 0-4.08ZM103.916 74.5c-7.73 0-7.73 11.808 0 11.808 7.514 0 7.514-11.808 0-11.808ZM94.684 85.45c1.288 0 1.288-1.933 0-1.933s-1.288 1.932 0 1.932Z"/></g><g opacity=".42" fill="#FFB817"><path d="M183.566 221.997c-9.876 7.729-21.47 13.311-33.493 16.961 48.951-.859 88.456-40.792 88.456-89.958 0-41.437-27.911-76.218-65.912-86.738 1.073.43 1.932.859 2.791 1.503 4.723 2.576 8.373 6.656 11.164 11.38a30.42 30.42 0 0 1 4.294 14.384c.215 7.944-3.435 15.458-8.373 21.899-9.447 12.452-22.973 20.611-34.352 31.346-3.435 3.22-7.085 7.299-6.87 12.237 0 4.294 3.006 7.944 6.441 10.306 3.435 2.362 7.514 3.65 11.379 4.938 8.802 3.435 16.961 8.159 24.26 14.17 6.441 5.367 12.453 12.882 11.594 21.255-.859 6.656-6.011 12.023-11.379 16.317ZM149.859 59.042h-1.288c-1.718 0-3.435 0-4.938.214 2.147 0 4.294 0 6.226-.214Z"/></g><path opacity=".35" d="M215.986 89.529c6.227 12.237 9.876 26.193 9.876 41.007 0 49.595-40.148 89.958-89.958 89.958-26.837 0-51.098-11.808-67.415-30.487 14.814 28.984 45.087 48.951 80.082 48.951 49.595 0 89.959-40.148 89.959-89.958 0-22.758-8.588-43.584-22.544-59.471Z" fill="#FFCD5C"/><path opacity=".39" d="M206.54 80.296c1.503 6.441 2.147 12.882 2.147 19.753 0 49.595-40.148 89.958-89.958 89.958-22.114 0-42.295-7.944-57.968-21.041 9.017 40.149 44.871 70.206 87.811 70.206 49.595 0 89.958-40.148 89.958-89.958 0-27.91-12.452-52.6-31.99-68.918Z" fill="#FFB817"/><path opacity=".61" d="M216.201 89.743c-16.532-18.678-40.578-30.701-67.63-30.701-11.593 0-22.757 2.146-33.063 6.226 0 0-.215 0-.215.214-1.073.43-1.932.86-3.005 1.289 0 0-.215 0-.215.214-3.006 1.288-5.797 2.791-8.588 4.509-.215 0-.429.215-.429.215-.859.429-1.503.858-2.362 1.502-.429.215-.644.43-1.073.645-.645.429-1.503.858-2.147 1.503-.43.214-.645.429-1.074.858a69.875 69.875 0 0 0-6.226 4.938c-.43.43-.859.86-1.288 1.074-.43.43-1.074.859-1.503 1.503l-1.288 1.288-1.503 1.503c-.43.43-.86 1.073-1.503 1.503-15.029 16.102-24.476 37.786-24.476 61.618 0 24.69 9.876 47.019 25.979 63.336-13.956-15.888-22.329-36.499-22.329-59.257 0-22.758 8.588-43.584 22.543-59.471 4.938 6.226 12.668 10.091 21.255 10.091 15.029 0 27.267-12.238 27.267-27.267 0-3.864-.859-7.514-2.147-10.735 6.87-1.717 13.955-2.576 21.255-2.576 24.905-.644 47.448 9.447 63.765 25.978Z" fill="#FFC747"/><path opacity=".2" d="M63.765 119.157c8.802 18.893 27.91 31.99 50.024 31.99 30.487 0 55.177-24.691 55.177-55.178 0-14.17-5.367-27.052-14.17-36.928-2.147-.214-4.079-.214-6.226-.214-39.289.214-72.568 25.334-84.805 60.33Z" fill="#FFB817"/><path opacity=".91" d="M148.571 238.958c49.683 0 89.959-40.276 89.959-89.958 0-49.683-40.276-89.959-89.959-89.959-49.682 0-89.958 40.276-89.958 89.959 0 49.682 40.276 89.958 89.958 89.958Z" fill="url('#paint1_linear_657_5')"/><path opacity=".68" d="M118.727 139.983c21.699 0 39.29-17.495 39.29-39.075 0-21.58-17.591-39.075-39.29-39.075-21.699 0-39.29 17.494-39.29 39.075 0 21.58 17.591 39.075 39.29 39.075Z" fill="url('#paint2_radial_657_5')"/><path opacity=".25" d="M231.229 113.145c.215 10.52-1.288 21.255-5.152 31.775-16.532 46.375-67.415 70.636-114.005 54.319-24.046-8.588-42.08-26.193-51.527-47.663.859 35.855 23.402 69.347 59.471 82.015 46.375 16.531 97.473-7.73 114.004-54.319 7.944-22.543 6.227-45.945-2.791-66.127Z" fill="url('#paint3_linear_657_5')"/><path opacity=".37" d="M186.143 68.274c7.3 7.729 13.311 16.746 17.605 27.052 18.894 45.515-2.791 97.687-48.307 116.58-23.402 9.662-48.736 8.588-70.206-.859 24.691 26.194 63.765 35.855 98.976 21.255 45.516-18.893 67.2-71.064 48.307-116.58-9.232-22.114-26.193-38.646-46.375-47.448Z" fill="url('#paint4_linear_657_5')"/><defs><linearGradient id="paint1_linear_657_5" x1="85.026" y1="85.418" x2="212.174" y2="212.566" gradientUnits="userSpaceOnUse"><stop stop-color="#fff"/><stop offset="1" stop-color="#DD3D02"/></linearGradient><linearGradient id="paint3_linear_657_5" x1="141.367" y1="114.486" x2="170.669" y2="236.709" gradientUnits="userSpaceOnUse"><stop offset=".242" stop-color="#fff"/><stop offset=".38" stop-color="#FFFFFC"/><stop offset=".483" stop-color="#FFFEF2"/><stop offset=".575" stop-color="#FFFDE2"/><stop offset=".661" stop-color="#FFFBCB"/><stop offset=".742" stop-color="#FFF8AE"/><stop offset=".82" stop-color="#FFF589"/><stop offset=".895" stop-color="#FFF25E"/><stop offset=".966" stop-color="#FFEE2E"/><stop offset="1" stop-color="#FFEC14"/></linearGradient><linearGradient id="paint4_linear_657_5" x1="120.234" y1="129.228" x2="223.842" y2="200.55" gradientUnits="userSpaceOnUse"><stop offset=".242" stop-color="#fff"/><stop offset=".47" stop-color="#FFFFFD"/><stop offset=".576" stop-color="#FFFEF5"/><stop offset=".658" stop-color="#FFFDE9"/><stop offset=".726" stop-color="#FFFCD6"/><stop offset=".787" stop-color="#FFFABE"/><stop offset=".841" stop-color="#FFF7A1"/><stop offset=".892" stop-color="#FFF57E"/><stop offset=".939" stop-color="#FFF156"/><stop offset=".982" stop-color="#FFEE29"/><stop offset="1" stop-color="#FFEC14"/></linearGradient><radialGradient id="paint0_radial_657_5" cx="0" cy="0" r="1" gradientUnits="userSpaceOnUse" gradientTransform="translate(148.962 148.992) scale(149.02)"><stop stop-color="#FFB300"/><stop offset=".213" stop-color="#B68000"/><stop offset=".424" stop-color="#755200"/><stop offset=".614" stop-color="#432F00"/><stop offset=".779" stop-color="#1E1500" stop-opacity=".53"/><stop offset=".912" stop-color="#080600" stop-opacity=".68"/><stop offset=".997" stop-opacity=".74"/></radialGradient><radialGradient id="paint2_radial_657_5" cx="0" cy="0" r="1" gradientUnits="userSpaceOnUse" gradientTransform="matrix(39.2172 0 0 39.178 118.776 100.872)"><stop stop-color="#ECECEC"/><stop offset=".469" stop-color="#F1F1F1"/><stop offset="1" stop-color="#fff"/></radialGradient></defs></svg>