<svg width="298" height="298" fill="none" xmlns="http://www.w3.org/2000/svg"><path opacity=".54" d="M149 298c82.29 0 149-66.71 149-149S231.29 0 149 0 0 66.71 0 149s66.71 149 149 149Z" fill="url('#paint0_radial_664_886')"/><path d="M149.784 240.331c50.441 0 91.331-40.89 91.331-91.331 0-50.44-40.89-91.33-91.331-91.33-50.44 0-91.33 40.89-91.33 91.33 0 50.441 40.89 91.331 91.33 91.331Z" fill="#005DC6"/><path opacity=".63" d="M149.782 57.67c-2.87 0-5.741.26-8.611.521-1.305.261-4.958 12.264-5.48 13.83-2.61 7.829-4.436 15.918-4.436 24.007 0 8.089 3.392 15.657 10.177 20.354 6.262 4.175 13.047 3.653 20.353 3.653 9.655 0 19.571-1.826 29.226-.261 7.568 1.305 14.874 3.393 21.659 7.046 8.089 4.175 15.135 10.699 19.571 18.788 2.609 4.958 3.653 10.438 4.175 15.918.261 2.87.261 5.479.522 8.35 0 1.305 1.305 4.958.783 6.263 2.609-8.612 3.914-17.484 3.914-26.878-.261-50.623-41.23-91.592-91.853-91.592ZM60.279 168.049c8.61 40.447 42.534 68.89 81.676 72.021 4.697.522-3.393-27.138-4.697-29.748-8.09-15.135-21.92-25.833-32.358-39.142-3.131-3.914-5.48-8.35-5.48-13.308.522-20.615 38.099-10.177 36.794-31.835-.261-4.697-2.871-8.872-6.263-12.004-7.306-6.262-16.7-8.872-25.573-12.003-4.175-1.566-8.089-3.132-11.742-5.741-1.044-.783-10.699-8.872-9.655-10.177-19.571 21.398-28.965 51.406-22.702 81.937Z" fill="#247EE2"/><path opacity=".47" d="M110.38 159.96c.261 6.002 7.306 10.438 12.525 12.003 1.827.522 3.653.522 5.219-.522 2.871-1.826 1.827-4.958 2.088-7.567.261-2.87 1.304-6.785-.522-9.133-3.653-5.48-16.962-4.175-19.049 2.348-.261.783-.261 1.827-.261 2.871Z" fill="#154B86"/><path opacity=".63" d="M88.722 81.154c2.61 3.132 7.045 4.958 10.438 5.741 3.653.783 8.089.783 10.437-2.348 2.088-2.87 1.044-7.046 2.349-10.177 1.305-2.87 4.697-4.697 7.828-5.48 3.132-1.044 6.524-1.566 9.394-3.131 2.349-1.566 4.175-3.914 5.219-6.524-17.483 2.87-33.14 10.699-45.665 21.92Z" fill="#247EE2"/><path opacity=".25" d="M198.58 132.822c-1.827 0-3.392.261-5.219.522-5.48 1.304-13.308 5.74-8.611 12.525 1.827 2.61 4.697 3.653 7.567 4.958 2.871 1.044 6.002 2.088 8.09 4.436 3.653 3.914 3.131 10.438.783 15.396-2.349 4.958-6.263 9.133-8.873 13.83-2.609 4.697-3.392 11.221 0 15.657 3.132 3.914 9.394 4.697 14.091 2.609 4.697-2.087 8.351-6.262 11.221-10.438 5.48-8.35 9.394-18.527 8.872-28.704-.261-10.176-4.958-20.353-13.308-26.094-3.914-3.132-9.133-4.697-14.613-4.697Z" fill="#154B86"/><path opacity=".47" d="M102.292 179.531c-3.914-3.132-7.828-6.263-10.96-10.177-3.131-3.914-5.219-9.133-4.175-13.83 1.566-7.568 9.655-11.482 16.179-15.657 2.87-1.827 5.741-3.914 7.567-6.785 1.827-2.87 2.349-6.784.522-9.655-2.348-3.914-7.306-4.697-11.742-6.001-9.395-2.871-17.223-9.916-21.398-18.528-.783-1.304-1.044-2.87-1.566-4.175-11.481 15.396-18.266 34.184-18.266 54.799 0 41.49 27.66 76.457 65.237 87.678 1.565-2.871 2.87-5.48 3.653-8.611 1.044-4.436.522-9.395-.783-13.831-3.914-14.352-13.308-26.094-24.268-35.227ZM151.609 57.67c-1.827 3.652-3.393 7.567-4.175 9.915-3.132 7.829-5.48 16.179-6.524 24.529-.522 3.131-.783 6.524.522 9.655 1.566 3.653 5.219 6.263 9.394 7.306 3.914 1.044 8.089.783 12.264.522 8.873-.782 18.006-2.087 26.878-2.087 9.133 0 18.266 1.565 26.094 6.002 6.785 3.914 12.265 9.916 16.701 16.178 3.392 4.958 6.263 9.916 8.611 15.396-2.087-48.014-41.229-86.373-89.765-87.417ZM201.45 150.044c6.002 4.958 7.568 13.83 5.48 21.397-1.566 6.263-4.697 12.004-4.697 18.267 0 .782 0 1.304.522 2.087 1.044 1.566 3.392 1.305 4.958.522 8.35-3.914 12.525-13.569 12.786-22.702.261-7.046-1.565-14.352-5.74-19.832-3.393-4.697-9.655-8.872-15.657-9.394-2.61-.261-4.436.783-3.654 3.653.783 2.87 3.915 4.436 6.002 6.002Z" fill="#368BEA"/><path d="M188.925 161.526c-.261 6.263-6.524 8.089-8.873 13.047-1.043 2.61.001 6.524 3.393 6.002 8.611-.783 16.178-12.004 13.047-20.093a3.852 3.852 0 0 0-7.567 1.044ZM179.531 186.838c-5.74 5.218-5.74 15.134-1.565 21.658 3.392 5.48 11.481 11.482 17.483 6.263 1.566-1.305 1.305-3.914 0-5.219-2.87-3.132-7.306-3.132-9.394-7.307-2.348-4.436-1.305-9.394-2.088-14.091-.782-2.348-3.131-2.609-4.436-1.304ZM165.7 194.927c-.783.522-1.305 1.566-1.566 2.609-.783 3.393-.522 9.134 3.392 10.438 1.044.261 2.088-.261 2.61-1.044 1.566-2.609.261-5.479 0-8.089-.261-1.826-.261-4.958-3.131-4.436-.522 0-.783.261-1.305.522Z" fill="#368BEA" opacity=".32"/><path d="M120.559 76.98c-1.566 1.304-2.871 3.913-3.132 5.48-.782 6.523-1.565 8.871-8.35 9.654-1.305.261-2.348 2.088-1.826 3.392 2.087 5.48 10.176 2.61 13.569-.26 3.653-2.871 4.175-7.046 4.175-11.482-.261-2.088-.522-10.438-4.436-6.785Z" fill="#154B86" opacity=".47"/><path opacity=".47" d="M126.296 159.699c-.522-2.088-1.565-4.175-3.131-5.219-2.088-1.566-5.219-.783-7.046 1.044-8.089 8.611 13.048 17.483 10.177 4.175Z" fill="#368BEA"/><path d="M105.161 131.256c-4.436-2.088-10.177.261-13.83 2.87-3.654 2.61-8.35 7.046-6.785 12.004.26 1.305 1.827 2.088 3.131 1.827 3.654-.522 6.002-4.176 8.872-6.263 4.958-3.392 6.263-2.61 9.395-5.48 1.304-1.566 1.304-3.914-.783-4.958ZM76.717 156.307c-4.436 9.655 1.305 20.353 9.133 26.616 5.741 4.436 11.221 7.567 15.135 13.83 3.914 6.263 4.436 13.83 8.872 19.832 1.305 1.827 3.654 1.827 4.958 0 6.263-9.394-.783-22.441-7.567-29.748-4.175-4.436-9.394-7.045-14.613-10.177-8.09-4.958-9.655-11.22-12.264-19.831-.783-1.305-3.132-2.088-3.654-.522Z" fill="#154B86" opacity=".47"/><path d="M89.243 200.407c1.044 2.087 2.088 4.436 3.132 6.523 1.043 2.61 1.304 5.219 3.914 7.046 1.305 1.044 3.914.522 4.958-.522 2.87-3.131 1.565-7.307-.522-10.438-2.088-2.87-4.436-4.436-7.828-6.002-2.61-1.304-4.698 1.044-3.654 3.393Z" fill="#154B86" opacity=".47"/><path d="M158.917 67.064c-2.349 1.043-4.697 4.436-6.002 6.001-4.436 6.002-6.785 13.83-4.697 21.137 2.609 9.394 14.874 13.569 22.702 7.567 2.088-1.565 1.305-4.436-1.044-5.48-1.565-.782-3.392-1.043-5.219-1.043-1.826 0-3.653-.261-5.218-1.305-1.566-1.044-2.349-3.132-2.61-5.219-.522-6.263 3.131-12.525 6.263-17.483 1.305-2.088-.783-4.697-3.132-4.437-.521 0-.782 0-1.043.261Z" fill="#005DC6" opacity=".47"/><path d="M169.093 76.979c-1.826.26-3.653 1.566-4.436 3.131-1.304 2.088-.782 5.741 1.044 7.568 2.349 2.087 7.307 1.044 7.307-2.349 0 .522-.261.783-.261 1.305 1.044-3.132 1.044-10.699-3.654-9.655Z" fill="#005DC6" opacity=".47"/><g opacity=".38" fill="#59A7FF"><path d="M180.312 162.569c6.785 0 6.785-10.699 0-10.699s-6.785 10.699 0 10.699ZM169.615 170.659c3.915 0 3.915-6.002 0-6.002-3.914 0-3.914 6.002 0 6.002ZM164.134 183.967c3.654 0 3.654-5.741 0-5.741-3.653.261-3.653 5.741 0 5.741ZM152.653 191.012c1.565 0 1.565-2.609 0-2.609-1.566.261-1.566 2.609 0 2.609ZM179.268 228.327c4.958 0 4.958-7.828 0-7.828s-4.958 7.828 0 7.828ZM189.706 228.066c3.393 0 3.393-5.219 0-5.219-3.392 0-3.392 5.219 0 5.219ZM167.528 233.025c1.305 0 1.305-1.827 0-1.827-1.304 0-1.304 1.827 0 1.827ZM190.228 128.385c2.349 0 2.349-3.653 0-3.653-2.348 0-2.348 3.653 0 3.653ZM198.841 129.168c2.871 0 2.871-4.436 0-4.436-2.87 0-2.87 4.436 0 4.436ZM136.733 91.592c2.61 0 2.61-4.175 0-4.175-2.609.26-2.609 4.175 0 4.175ZM135.17 99.681c2.87 0 2.87-4.436 0-4.436-2.609 0-2.609 4.436 0 4.436ZM138.04 109.075c1.566 0 2.871-1.304 2.871-2.87s-1.305-2.87-2.871-2.87c-1.565 0-2.87 1.304-2.87 2.87s1.044 2.87 2.87 2.87ZM146.129 108.553c-1.044-1.043-2.87-1.043-3.653-.261v.261c-1.566 1.827-.522 4.697 1.827 4.697 2.348 0 3.392-2.87 1.826-4.697Z"/></g><path opacity=".51" d="M149.781 240.331c50.441 0 91.331-40.89 91.331-91.331 0-50.44-40.89-91.33-91.331-91.33-50.44 0-91.33 40.89-91.33 91.33 0 50.441 40.89 91.331 91.33 91.331Z" fill="url('#paint1_linear_664_886')"/><path opacity=".07" d="M149.781 240.592c50.623 0 91.331-40.968 91.331-91.331 0-50.623-40.968-91.33-91.331-91.33-6.263 0-12.525.521-18.527 1.826 3.392.522 7.045 1.044 10.438 1.827 12.786 2.87 25.05 8.35 35.488 15.917 6.002 4.436 11.482 9.394 16.44 15.135 7.828 9.394 13.83 20.615 14.874 32.618 1.044 12.265-3.653 25.051-13.569 32.097-12.526 8.872-31.575 7.828-39.664 20.875-4.958 7.829-3.392 18.267-7.828 26.617-5.219 10.177-17.484 14.091-28.705 16.178-7.828 1.305-15.656 2.088-23.746 1.827 15.657 10.96 34.445 17.744 54.799 17.744Z" fill="#005DC6"/><path opacity=".21" d="M149.783 240.592c50.623 0 91.331-40.968 91.331-91.331 0-43.578-30.531-79.85-71.238-89.243.521.521 1.043.782 2.087 1.304 18.005 8.611 33.14 23.224 42.273 40.708 5.219 9.655 8.611 20.354 9.916 31.574.783 6.002.783 12.004-1.826 17.484-5.48 11.742-19.832 15.134-30.792 22.18-2.088 1.305-4.175 2.87-5.48 4.958-2.348 4.175-1.044 9.394-1.565 14.091-.783 8.35-7.307 15.396-14.352 19.832-22.181 14.613-52.19 13.569-76.458 2.609-6.001-2.87-11.742-6.262-17.222-9.916 17.483 21.659 43.839 35.75 73.326 35.75Z" fill="#005DC6"/><path opacity=".28" d="M149.782 57.67c-33.662 0-66.802 20.092-81.676 50.362-6.001 12.003-9.133 25.051-9.655 38.62-.522 19.571 5.48 39.141 16.44 55.059-3.131-13.308-6.002-27.399-4.175-40.968 1.826-13.569 9.133-27.4 21.658-33.401 15.396-7.568 34.184-1.827 50.885-6.524 9.394-2.609 18.266-8.611 27.921-7.306 2.609.26 5.219 1.304 7.828 1.304 2.61 0 5.741-1.304 6.524-3.653 1.305-3.653-2.088-7.046-2.349-10.96-.261-5.48 6.524-8.61 12.004-9.133 10.699-1.044 21.658 1.566 30.531 7.568C209.8 74.63 182.14 58.713 153.436 57.669h-3.654Z" fill="#70B2FF"/><path opacity=".58" d="M149.781 57.67c-50.623 0-91.33 40.968-91.33 91.33 0 23.746 9.132 45.405 24.006 61.583-12.525-15.656-19.832-35.488-19.832-56.886 0-20.354 6.785-39.403 18.006-54.538 6.001 9.656 16.7 16.179 28.965 16.179 19.049 0 34.183-15.396 34.183-34.184 0-6.523-1.826-12.525-4.957-17.483 4.957-.783 9.915-1.305 14.873-1.305 26.617 0 50.885 11.482 67.585 29.748-16.7-20.876-42.534-34.445-71.499-34.445Z" fill="#005DC6"/><path opacity=".32" d="M232.763 110.641c.261 10.96-1.305 21.92-5.219 32.88-16.961 48.014-69.672 73.064-117.425 56.103-24.79-8.872-43.317-26.878-53.233-49.058.783 37.054 24.268 71.499 61.322 84.546 48.014 16.962 100.464-8.089 117.426-56.103 8.089-23.224 6.523-47.492-2.871-68.368Z" fill="url('#paint2_linear_664_886')"/><path opacity=".32" d="M186.314 64.454c7.567 7.829 13.569 17.223 18.005 27.921 19.31 46.97-2.87 100.725-49.841 120.296-24.267 9.916-50.362 8.872-72.543-1.044 25.312 26.878 65.759 37.055 102.03 21.92 46.971-19.31 69.412-73.326 49.841-120.296-9.133-22.702-26.617-39.664-47.492-48.797Z" fill="url('#paint3_linear_664_886')"/><path opacity=".43" d="M126.559 144.564c22.05 0 39.925-17.875 39.925-39.925 0-22.05-17.875-39.924-39.925-39.924-22.049 0-39.924 17.874-39.924 39.924s17.875 39.925 39.924 39.925Z" fill="url('#paint4_radial_664_886')"/><path opacity=".78" d="M65.236 181.618c-.522-1.043-1.044-2.087-1.305-2.87-37.576 23.224-54.016 38.359-56.103 44.883-.261.521-.261 1.043 0 1.304v.261c.26.261.782.522 1.043.522 4.697 1.566 29.226 1.827 145.086-58.713 69.673-36.532 117.165-71.76 129.951-86.112 1.566-1.826 0-4.436-2.348-4.175-9.655 1.566-28.444 7.307-55.582 18.527.522.783.783 1.305 1.305 2.088 22.441-9.133 37.315-13.047 38.881-9.916 3.392 6.523-46.97 39.664-112.729 74.108-65.497 34.445-121.6 57.148-124.993 50.885-1.565-3.653 12.787-15.396 36.794-30.792Z" fill="url('#paint5_linear_664_886')"/><defs><linearGradient id="paint1_linear_664_886" x1="85.183" y1="84.419" x2="214.502" y2="213.738" gradientUnits="userSpaceOnUse"><stop stop-color="#fff"/><stop offset=".091" stop-color="#EBEBF6"/><stop offset=".539" stop-color="#8B8FCE"/><stop offset=".851" stop-color="#4F55B4"/><stop offset="1" stop-color="#383EAA"/></linearGradient><linearGradient id="paint2_linear_664_886" x1="140.185" y1="112.163" x2="170.421" y2="238.279" gradientUnits="userSpaceOnUse"><stop offset=".242" stop-color="#fff"/><stop offset=".92" stop-color="#fff"/><stop offset="1" stop-color="#fff"/></linearGradient><linearGradient id="paint3_linear_664_886" x1="118.426" y1="127.394" x2="225.249" y2="200.929" gradientUnits="userSpaceOnUse"><stop offset=".242" stop-color="#fff"/><stop offset=".391" stop-color="#FCFFFF"/><stop offset=".503" stop-color="#F2FFFF"/><stop offset=".603" stop-color="#E2FEFF"/><stop offset=".696" stop-color="#CBFDFF"/><stop offset=".784" stop-color="#AEFCFF"/><stop offset=".869" stop-color="#8AFBFF"/><stop offset=".949" stop-color="#5FF9FF"/><stop offset="1" stop-color="#40F8FF"/></linearGradient><linearGradient id="paint5_linear_664_886" x1="5.981" y1="220.895" x2="287.429" y2="84.082" gradientUnits="userSpaceOnUse"><stop stop-color="#77EDF6"/><stop offset=".156" stop-color="#6BE1F0"/><stop offset=".441" stop-color="#4CC0E1"/><stop offset=".819" stop-color="#1A8CC8"/><stop offset=".994" stop-color="#0071BB"/></linearGradient><radialGradient id="paint0_radial_664_886" cx="0" cy="0" r="1" gradientUnits="userSpaceOnUse" gradientTransform="translate(149.056 149.078) scale(148.9)"><stop stop-color="#ACFFFB"/><stop offset=".167" stop-color="#7FBDBA"/><stop offset=".332" stop-color="#588381"/><stop offset=".489" stop-color="#395453"/><stop offset=".638" stop-color="#20302F"/><stop offset=".776" stop-color="#0E1515"/><stop offset=".9" stop-color="#040605"/><stop offset=".997"/></radialGradient><radialGradient id="paint4_radial_664_886" cx="0" cy="0" r="1" gradientUnits="userSpaceOnUse" gradientTransform="translate(126.664 104.604) scale(39.8475)"><stop stop-color="#ECECEC"/><stop offset=".469" stop-color="#F1F1F1"/><stop offset="1" stop-color="#fff"/></radialGradient></defs></svg>