<svg width="298" height="298" fill="none" xmlns="http://www.w3.org/2000/svg"><path opacity=".54" d="M149 298c82.29 0 149-66.71 149-149S231.29 0 149 0 0 66.71 0 149s66.71 149 149 149Z" fill="url('#paint0_radial_664_417')"/><path d="M223.45 175.305c16.631-44.441-5.913-93.95-50.354-110.58-44.441-16.632-93.95 5.913-110.58 50.354-16.632 44.441 5.913 93.949 50.354 110.58s93.949-5.913 110.58-50.354Z" fill="#D8C34E"/><path opacity=".13" d="M157.722 60.518c1.963 3.682 3.191 7.855 3.436 12.519.246 14.237-12.519 25.529-23.074 33.138-12.519 9.083-26.265 14.729-41.239 18.165-7.61 1.718-15.464 3.437-23.32 2.7-5.89-.491-9.573-2.945-13.01-6.382-1.718 5.891-2.945 12.274-3.436 18.656 9.083 5.891 21.847 8.346 31.175 8.346 23.319-.246 47.13-8.837 66.276-22.338 18.165-12.764 33.875-30.438 33.63-53.512-9.328-5.4-19.392-9.328-30.438-11.292ZM210.497 105.193c-1.473 7.364-4.418 15.219-8.591 23.074-8.346 15.465-21.11 29.948-35.839 41.976-14.728 11.782-31.911 20.619-51.057 24.792-13.01 2.946-27.002 3.437-40.748 1.473 2.209 3.191 4.91 6.137 7.61 8.837 11.045 3.191 22.828 4.909 34.856 4.909 22.092 0 44.43-5.646 65.049-15.71 10.065-5.155 19.883-11.046 28.966-17.919 5.891-4.419 11.537-9.082 16.937-14.237 1.228-5.646 1.718-11.292 1.718-17.429 0-19.637-6.627-37.802-17.673-52.285-.246 4.173-.491 8.346-1.228 12.519Z" fill="#D83F3F"/><path d="M146.919 84.329c-1.718 1.227-2.946 2.209-4.173 3.927-1.227 1.473-2.209 3.191-3.191 4.664-.982 1.473.982 2.7 2.209 1.718 1.473-1.227 2.946-2.454 4.173-3.927 1.228-1.473 2.209-2.946 3.191-4.418.246-1.228-.982-2.946-2.209-1.964ZM168.274 123.604c.491.245 1.228.491 2.455.491 4.173-.246 6.382-4.419 8.837-7.119 4.909-5.155 9.328-11.291 10.555-18.41.245-1.227-1.227-1.718-1.718-.736-3.437 4.664-5.646 10.064-9.083 14.728-2.454 3.436-6.873 4.664-9.818 7.609-1.719 1.719-1.964 2.946-1.228 3.437ZM115.745 101.021c-6.873.736-43.694 13.01-48.112 2.454-1.719 3.191-3.191 6.383-4.664 9.574 1.718 1.718 3.927 3.191 6.382 3.927 14.483 4.664 35.838-1.227 48.112-9.328 2.7-1.718 1.964-6.873-1.718-6.627ZM150.11 67.145c.245 4.664-.736 8.837-1.227 13.256-.246 1.964 2.7 2.455 3.682.982 3.436-5.4 3.927-14.483 1.472-21.356-1.718-.246-3.436-.491-5.154-.491.491 2.455.982 4.91 1.227 7.61ZM204.36 85.065c-.736 4.173-1.473 8.346-2.455 12.52-2.209 8.1-5.4 15.955-9.082 23.564-7.61 14.728-18.656 26.02-30.193 37.802-1.718 1.719.491 4.419 2.455 3.192 15.219-8.346 26.756-23.32 34.366-38.539 4.664-9.082 9.082-20.865 10.309-32.157-1.472-2.209-3.436-4.418-5.4-6.382ZM161.649 129.495c-17.674 7.61-34.611 16.447-53.758 19.638-16.937 2.946-34.61 1.718-50.812-4.419v3.192c33.875 14.237 76.096 3.191 105.307-17.183.981-.491 0-1.719-.737-1.228ZM182.267 204.364c-15.71 6.136-31.666 11.782-48.849 13.255-13.009 1.227-26.51.246-39.766-1.964 3.437 2.455 7.119 4.419 10.801 6.382 27.002 4.419 56.458-.245 78.55-15.464 1.473-.491.737-2.7-.736-2.209Z" fill="#D83F3F" opacity=".25"/><path opacity=".13" d="M140.536 152.815c-26.51.245-54.74 18.901-81.741 10.064 1.473 6.628 3.682 13.255 6.382 19.147 7.61 2.454 15.956 3.191 24.547 2.454 10.31-.982 20.374-2.945 30.193-6.382 11.046-3.927 18.41-7.855 25.283-17.183 2.455-3.436-.736-8.346-4.664-8.1ZM103.963 82.856c-8.1 3.436-15.71 3.927-23.81 3.682-3.192 3.191-5.892 6.873-8.346 10.555 21.355 17.919 71.922-10.555 65.54-37.802-2.455.245-4.909.49-7.119.736-.491 12.028-16.446 18.901-26.265 22.829Z" fill="#D83F3F"/><g opacity=".85"><path d="M127.774 125.568c5.155 0 5.155-7.855 0-7.855-4.91 0-4.91 7.855 0 7.855Z" fill="#E5B55E" opacity=".25"/><path d="M136.122 123.358c5.891 0 5.891-9.082 0-9.082-5.892-.246-5.892 9.082 0 9.082Z" fill="#E5B55E" opacity=".25"/><path d="M142.012 117.222c1.718 0 1.718-2.946 0-2.946-1.964.245-1.964 2.946 0 2.946ZM146.185 115.258c3.436 0 3.436-5.4 0-5.4-3.437-.246-3.437 5.4 0 5.4ZM154.775 109.612c.246 0 .246-.245.491-.245.982-.737 1.719-1.964 1.473-3.437-.491-1.227-1.473-2.209-2.946-2.209h-.491c-1.963.245-3.436 1.964-2.945 3.927.491 1.964 2.7 3.192 4.418 1.964ZM163.368 101.02c.245 0 .245 0 0 0 .736-2.209-.737-4.418-2.701-4.909h-.245c-3.191-.982-6.382 2.946-4.419 5.891.737 1.228 1.964 1.964 3.437 1.964 2.209 0 3.437-1.227 3.928-2.946ZM164.103 96.111c1.473 0 2.455-1.227 2.455-2.454 0-1.473-1.228-2.455-2.455-2.455-1.473 0-2.455 1.227-2.455 2.455 0 1.227 1.228 2.454 2.455 2.454ZM167.049 88.011c2.454 0 2.454-3.927 0-3.927-2.701.245-2.701 3.927 0 3.927ZM122.128 125.813c0-.245 0-.245 0 0 .737-1.963-.981-3.682-2.454-3.682-1.718 0-3.191 1.719-2.7 3.437v.245c.982 2.455 4.173 2.455 5.154 0ZM73.035 173.68c1.719 0 1.719-2.946 0-2.946-1.963.245-1.963 2.946 0 2.946ZM79.908 175.153c2.946 0 2.946-4.664 0-4.664-2.945 0-2.945 4.664 0 4.664ZM88.745 177.116c2.455 0 4.91-2.209 4.664-4.664 0-2.454-2.209-4.664-4.664-4.664-2.454 0-4.909 2.21-4.663 4.664 0 2.455 1.963 4.664 4.663 4.664Z" fill="#E5B55E" opacity=".25"/><path d="M97.335 176.625c2.946 0 5.891-2.7 5.646-5.646-.246-3.191-2.455-5.646-5.646-5.646-2.946 0-5.891 2.701-5.646 5.646.246 2.946 2.455 5.646 5.646 5.646Z" fill="#E5B55E" opacity=".25"/><path d="M107.646 170.98a3.113 3.113 0 0 0 0-4.419v-.245c-1.719-1.964-5.646-.491-5.401 2.209 0 .982.491 2.209 1.473 2.7 1.228.982 2.946.982 3.928-.245ZM112.8 169.261c1.473 0 2.7-1.227 2.7-2.7s-1.227-2.7-2.7-2.7-2.7 1.227-2.7 2.7 1.227 2.7 2.7 2.7ZM119.675 167.788c4.419 0 4.419-6.873 0-6.873-4.418 0-4.418 6.873 0 6.873ZM218.106 127.04c7.364 0 7.364-11.291 0-11.291s-7.364 11.291 0 11.291Z" fill="#E5B55E" opacity=".25"/><path d="M215.408 134.65c1.964 0 3.927-1.718 3.927-3.928 0-2.209-1.718-3.927-3.927-3.927-1.964 0-3.928 1.718-3.928 3.927 0 2.21 1.719 3.928 3.928 3.928Z" fill="#E5B55E" opacity=".25"/><path d="M211.235 140.541c4.173 0 4.173-6.382 0-6.382s-4.173 6.382 0 6.382ZM205.834 145.941c2.946 0 2.946-4.418 0-4.418-2.945-.246-2.945 4.418 0 4.418ZM198.961 157.97c6.628 0 6.628-10.064 0-10.064s-6.628 10.064 0 10.064Z" fill="#E5B55E" opacity=".25"/><path d="M193.313 166.561c5.4 0 5.4-8.592 0-8.592s-5.4 8.592 0 8.592ZM187.424 170.243c1.473 0 2.7-1.227 2.7-2.7s-1.227-2.7-2.7-2.7-2.7 1.227-2.7 2.7 1.227 2.7 2.7 2.7ZM179.813 174.907c2.7 0 2.7-4.418 0-4.418-2.946.245-2.946 4.418 0 4.418ZM189.388 206.327c5.154 0 5.154-8.1 0-8.1-5.155 0-5.155 8.1 0 8.1ZM196.995 200.927c3.682 0 3.682-5.891 0-5.891-3.927 0-3.927 5.891 0 5.891ZM203.871 187.181h-.246c-2.454 0-4.909 2.209-4.909 4.909 0 2.7 2.209 4.909 4.909 4.909h.246c2.454 0 4.909-2.209 4.909-4.909 0-2.7-2.209-4.909-4.909-4.909ZM211.481 190.371c1.964 0 3.682-1.718 3.682-3.682 0-1.963-1.473-3.682-3.682-3.682-1.964 0-3.682 1.719-3.682 3.682.245 1.964 1.718 3.682 3.682 3.682ZM216.143 182.026c1.473 0 1.473-2.209 0-2.209s-1.473 2.209 0 2.209ZM218.845 178.835c2.455 0 2.455-3.928 0-3.928s-2.455 3.928 0 3.928ZM100.527 194.299c1.718 0 1.718-2.945 0-2.945-1.964 0-1.964 2.945 0 2.945ZM106.419 194.545c3.191 0 3.191-4.91 0-4.91s-3.191 4.91 0 4.91ZM113.536 194.054c1.718 0 3.437-1.473 3.437-3.437 0-1.718-1.473-3.436-3.437-3.436-1.718 0-3.436 1.473-3.436 3.436.245 1.964 1.472 3.437 3.436 3.437ZM121.883 191.108c3.191 0 3.191-4.91 0-4.91-3.192 0-3.192 4.91 0 4.91ZM127.283 189.389c3.437 0 3.437-5.154 0-5.154-3.191 0-3.191 5.154 0 5.154ZM132.438 185.462c1.718 0 1.718-2.7 0-2.7s-1.718 2.7 0 2.7ZM84.817 98.32c4.91 0 4.91-7.609 0-7.609s-4.91 7.61 0 7.61ZM93.408 96.602c2.455 0 2.7-3.928 0-3.928-2.7-.245-2.7 3.928 0 3.928ZM101.019 96.848c4.909 0 4.909-7.61 0-7.61-4.91 0-4.91 7.61 0 7.61ZM110.102 91.938c3.682 0 3.682-5.891 0-5.891-3.928 0-3.928 5.891 0 5.891ZM115.255 87.766c2.455 0 2.455-3.683 0-3.683s-2.455 3.683 0 3.683ZM120.166 84.083c.982 0 .982-1.473 0-1.473s-.982 1.473 0 1.473ZM123.601 82.61c3.191 0 3.191-4.909 0-4.909s-3.191 4.91 0 4.91ZM63.953 162.142c5.89 0 5.89-9.082 0-9.082-5.892-.246-5.892 9.082 0 9.082ZM73.28 157.478c-.736-.736-2.209-.736-2.7-.245v.245c-1.227 1.228-.49 3.437 1.473 3.437 1.719 0 2.455-1.964 1.228-3.437ZM78.435 161.406c2.945 0 2.945-4.418 0-4.418-2.946 0-2.946 4.418 0 4.418ZM194.788 90.465c2.455 0 4.664-2.209 4.664-4.664 0-2.454-1.964-4.663-4.664-4.663-2.455 0-4.664 2.209-4.664 4.663.245 2.455 2.209 4.664 4.664 4.664ZM196.26 98.075c3.928 0 3.928-5.892 0-5.892-3.927-.245-3.927 5.892 0 5.892ZM195.277 103.23c2.7 0 2.7-4.418 0-4.418s-2.7 4.418 0 4.418ZM193.804 106.912c.737 0 .982-1.228 0-1.228-.736 0-.736 1.228 0 1.228ZM158.948 155.76c2.455 0 4.664-2.209 4.664-4.663 0-2.455-1.964-4.664-4.664-4.664-2.455 0-4.664 2.209-4.664 4.664 0 2.7 1.964 4.663 4.664 4.663ZM167.049 148.396c6.137 0 6.137-9.573 0-9.573s-6.137 9.573 0 9.573ZM173.923 140.541c3.191 0 3.191-4.909 0-4.909-2.946 0-2.946 4.909 0 4.909ZM178.096 135.141c1.964 0 1.964-2.946 0-2.946-1.964-.245-1.964 2.946 0 2.946ZM155.267 161.406c2.454 0 2.7-3.927 0-3.927-2.455 0-2.455 3.927 0 3.927ZM151.34 166.07c2.455 0 2.455-3.682 0-3.682s-2.455 3.682 0 3.682Z" fill="#E5B55E" opacity=".25"/></g><path opacity=".17" d="M157.72 60.518c-.491.491-.736 1.227-.982 1.964-3.927 7.855-6.627 16.446-7.364 25.283-.736 6.628 0 13.992 4.173 19.147 3.682 4.418 9.328 6.382 14.728 7.364 9.574 1.964 19.393 2.455 28.966 4.418 9.573 1.964 19.146 5.892 25.038 13.747 3.927 5.154 5.891 11.537 6.382 18.164 0-1.718.245-3.436.245-4.909 0-42.957-30.683-78.06-71.186-85.178ZM227.434 161.897c-5.4 5.401-11.046 10.801-17.428 14.974-6.382 4.173-13.992 6.873-21.601 6.382-7.61-.491-15.219-4.664-18.656-11.537-3.927-7.855-1.964-18.41-7.61-25.283-3.436-4.173-9.082-6.137-14.482-6.137-8.592-.245-16.938 3.437-24.302 7.855-7.364 4.418-13.992 10.064-21.601 14.483-7.364 4.418-15.956 7.609-24.547 6.627-3.682-.245-7.364-1.718-10.555-3.682-3.682-2.209-4.91-5.645-7.61-8.346-1.718-1.472-1.227-.981-1.227 1.228 0 1.964.736 4.173 1.227 6.137.982 3.927 2.21 7.609 3.682 11.291 5.892 14.728 15.71 27.984 28.23 37.557 2.945 2.209 6.136 4.418 9.573 6.382 23.565 13.255 53.512 14.483 78.304 3.191 24.547-11.046 43.203-34.611 48.603-61.122Z" fill="#CE9C5F"/><path opacity=".19" d="M202.396 83.101c5.4 11.292 8.346 23.811 8.346 37.066 0 47.621-38.539 85.915-85.915 85.915-23.074 0-43.939-9.083-59.403-23.811 13.992 28.965 43.448 48.848 77.568 48.848 47.621 0 85.915-38.538 85.915-85.914 0-24.301-10.065-46.394-26.511-62.104Z" fill="#CE5F5F"/><path opacity=".17" d="M183.74 69.355c1.719 6.873 2.701 13.992 2.701 21.601 0 47.621-38.539 85.914-85.915 85.914-14.728 0-28.72-3.682-40.748-10.309 9.574 37.066 43.203 64.558 83.214 64.558 47.622 0 85.915-38.539 85.915-85.914 0-32.648-18.165-61.122-45.167-75.85Z" fill="#CE9C5F"/><path opacity=".44" d="M205.834 86.538c-15.71-16.692-38.048-27.247-62.841-27.247-2.209 0-4.664 0-6.873.245-15.955 1.228-30.438 6.873-42.711 15.465-4.664 3.19-8.837 6.873-12.765 11.046-6.382 6.873-11.782 14.728-15.71 23.32-4.91 10.8-7.855 23.074-7.855 35.838 0 25.283 10.8 47.867 28.23 63.577-14.238-15.465-23.075-36.084-23.075-58.667 0-12.765 2.946-25.038 7.855-36.085 7.61 6.137 17.183 9.819 27.493 9.819 24.301 0 43.939-19.637 43.939-43.939 0-5.4-.982-10.555-2.701-15.464 3.192-.246 6.383-.491 9.574-.491 21.847.245 42.221 8.591 57.44 22.583Z" fill="#CEC35F"/><path opacity=".32" d="M144.221 92.429c0 6.628 5.155 11.783 11.782 11.783 6.628 0 11.783-5.155 11.783-11.783 0-6.628-5.155-11.782-11.783-11.782-6.382 0-11.782 5.4-11.782 11.782ZM142.009 115.503a5.892 5.892 0 1 0 0-11.784 5.892 5.892 0 0 0 0 11.784Z" fill="#CEC35F"/><path opacity=".44" d="M72.052 96.602c5.4 6.873 13.991 11.046 23.32 11.046 16.691 0 29.947-13.5 29.947-29.947 0-5.646-1.719-11.046-4.419-15.465-20.128 5.155-37.311 17.674-48.848 34.366Z" fill="#CEC35F"/><path opacity=".45" d="M142.993 231.119c47.45 0 85.915-38.465 85.915-85.914 0-47.45-38.465-85.914-85.915-85.914-47.449 0-85.914 38.465-85.914 85.914s38.465 85.914 85.914 85.914Z" fill="url('#paint1_linear_664_417')"/><path opacity=".32" d="M221.542 109.121c.246 10.31-1.227 20.62-4.909 30.93-15.956 45.166-65.541 68.731-110.462 52.775-23.32-8.346-40.748-25.283-50.075-46.148.736 34.857 22.828 67.259 57.685 79.532 45.166 15.956 94.506-7.609 110.461-52.776 7.61-21.846 6.137-44.675-2.7-64.313Z" fill="url('#paint2_linear_664_417')"/><path opacity=".13" d="M177.848 65.427c7.119 7.365 12.764 16.201 16.937 26.266 18.165 44.184-2.7 94.751-46.884 113.161-22.829 9.328-47.376 8.346-68.24-.982 23.81 25.284 61.857 34.857 95.978 20.62 44.184-18.165 65.295-68.977 46.884-113.162-8.591-21.11-25.037-37.066-44.675-45.903Z" fill="url('#paint3_linear_664_417')"/><defs><linearGradient id="paint1_linear_664_417" x1="82.144" y1="84.402" x2="203.794" y2="206.051" gradientUnits="userSpaceOnUse"><stop stop-color="red"/><stop offset="1" stop-color="#930000"/></linearGradient><linearGradient id="paint2_linear_664_417" x1="134.329" y1="110.5" x2="162.771" y2="229.137" gradientUnits="userSpaceOnUse"><stop offset=".242" stop-color="#fff"/><stop offset=".92" stop-color="#fff"/><stop offset="1" stop-color="#fff"/></linearGradient><linearGradient id="paint3_linear_664_417" x1="113.861" y1="124.828" x2="214.348" y2="194.001" gradientUnits="userSpaceOnUse"><stop offset=".242" stop-color="#fff"/><stop offset=".363" stop-color="#FEFBFB"/><stop offset=".47" stop-color="#FBF1F1"/><stop offset=".573" stop-color="#F6DEDE"/><stop offset=".672" stop-color="#EFC5C5"/><stop offset=".768" stop-color="#E6A4A4"/><stop offset=".864" stop-color="#DC7C7C"/><stop offset=".955" stop-color="#CF4D4D"/><stop offset="1" stop-color="#C83333"/></linearGradient><radialGradient id="paint0_radial_664_417" cx="0" cy="0" r="1" gradientUnits="userSpaceOnUse" gradientTransform="translate(149.082 149.021) scale(149.023)"><stop stop-color="#ACFFFB"/><stop offset=".167" stop-color="#7FBDBA"/><stop offset=".332" stop-color="#588381"/><stop offset=".489" stop-color="#395453"/><stop offset=".638" stop-color="#20302F"/><stop offset=".776" stop-color="#0E1515"/><stop offset=".9" stop-color="#040605"/><stop offset=".997"/></radialGradient></defs></svg>